<?xml version="1.0" standalone="no"?>
<!DOCTYPE svg PUBLIC "-//W3C//DTD SVG 1.1//EN" "http://www.w3.org/Graphics/SVG/1.1/DTD/svg11.dtd" >
<svg xmlns="http://www.w3.org/2000/svg" xmlns:xlink="http://www.w3.org/1999/xlink" version="1.1">
<metadata>
Created by FontForge 20190801 at Wed Jul  3 00:06:14 2019
 By Unknown
Copyright \(c\) 2019 by Mathieu Desjardins. All rights reserved.
</metadata>
<defs>
<font id="EditorialNew-Regular" horiz-adv-x="940" >
  <font-face 
    font-family="Editorial New"
    font-weight="400"
    font-stretch="normal"
    units-per-em="1000"
    panose-1="0 0 5 0 0 0 0 0 0 0"
    ascent="800"
    descent="-200"
    x-height="528"
    cap-height="800"
    bbox="-365 -300 1410 1096"
    underline-thickness="35"
    underline-position="-88"
    stemh="61"
    stemv="28"
    unicode-range="U+0020-277F"
  />
<missing-glyph horiz-adv-x="560" 
d="M459 820v-1120h-355v1120h355zM373 745h-185v-37h73v-41h-74v-37h186v37h-74v41h74v37zM299 600h-112v-116h186v38h-74v78zM261 562v-40h-37v40h37zM373 454h-186v-37h74v-42h-74v-37h112v79h74v37zM373 387h-37v-74h-149v-38h186v112zM373 250h-112v-63h38v26h37v-53
h-112v90h-37v-127h186v127zM373 56h-186v-126h186v126zM336 19v-52h-112v52h112zM373 -96h-186v-37h78l-78 -53v-37h186v37h-114l78 53h36v37z" />
    <glyph glyph-name="f_f" unicode="ff" horiz-adv-x="610" 
d="M564 820c74 0 142 -49 142 -106c0 -37 -25 -55 -53 -55c-29 0 -52 15 -56 53c-1 27 -5 67 -49 67c-61 0 -73 -60 -73 -154v-97h96v-42h-96v-383c0 -64 14 -79 100 -79v-24h-265v24c61 0 71 15 71 79v383h-184v-383c0 -64 14 -79 100 -79v-24h-264v24c60 0 70 15 70 79
v383h-70v42h70v27c0 165 63 245 170 245c74 0 121 -38 131 -84c30 71 87 104 160 104zM381 528v53c0 28 2 54 6 77c-7 -5 -15 -7 -25 -7c-27 0 -44 15 -46 45c-2 29 -4 63 -46 63c-60 0 -73 -66 -73 -157v-74h184z" />
    <glyph glyph-name="f_f_i" unicode="ffi" horiz-adv-x="867" 
d="M777 103c0 -64 10 -79 70 -79v-24h-234v24c60 0 70 15 70 79v309c0 39 0 74 -56 74h-152v-383c0 -64 14 -79 101 -79v-24h-265v24c61 0 71 15 71 79v383h-185v-383c0 -64 14 -79 101 -79v-24h-265v24c60 0 70 15 70 79v383h-70v42h70v27c0 165 64 245 170 245
c74 0 122 -38 132 -84c30 71 87 104 160 104c74 0 142 -49 142 -106c0 -37 -25 -55 -54 -55s-51 15 -55 53c-2 27 -5 67 -49 67c-61 0 -74 -60 -74 -154v-97h173c42 0 78 7 115 20l14 -14v-431zM382 528v53c0 28 2 54 6 77c-7 -5 -15 -7 -25 -7c-27 0 -45 15 -47 45
c-2 29 -3 63 -46 63c-60 0 -73 -66 -73 -157v-74h185z" />
    <glyph glyph-name="f_i" unicode="fi" horiz-adv-x="589" 
d="M498 103c0 -64 10 -79 71 -79v-24h-235v24c61 0 71 15 71 79v309c0 39 0 74 -56 74h-152v-383c0 -64 14 -79 100 -79v-24h-264v24c60 0 70 15 70 79v383h-70v42h70v53c0 165 74 239 183 239c74 0 142 -49 142 -106c0 -37 -25 -55 -53 -55c-29 0 -52 15 -56 53
c-1 27 -5 67 -49 67c-61 0 -73 -60 -73 -154v-97h173c42 0 78 7 115 20l13 -14v-431z" />
    <glyph glyph-name="f_l" unicode="fl" horiz-adv-x="584" 
d="M493 103c0 -64 10 -79 71 -79v-24h-235v24c61 0 71 15 71 79v561c-8 -3 -16 -5 -25 -5c-29 0 -52 15 -56 53c-1 27 -5 67 -49 67c-61 0 -73 -60 -73 -154v-97h97v-42h-97v-383c0 -64 14 -79 100 -79v-24h-264v24c60 0 70 15 70 79v383h-70v42h70v53c0 165 74 239 183 239
c60 0 117 -33 135 -76l59 56l13 -14v-683z" />
    <glyph glyph-name=".notdef" horiz-adv-x="560" 
d="M459 820v-1120h-355v1120h355zM373 745h-185v-37h73v-41h-74v-37h186v37h-74v41h74v37zM299 600h-112v-116h186v38h-74v78zM261 562v-40h-37v40h37zM373 454h-186v-37h74v-42h-74v-37h112v79h74v37zM373 387h-37v-74h-149v-38h186v112zM373 250h-112v-63h38v26h37v-53
h-112v90h-37v-127h186v127zM373 56h-186v-126h186v126zM336 19v-52h-112v52h112zM373 -96h-186v-37h78l-78 -53v-37h186v37h-114l78 53h36v37z" />
    <glyph glyph-name="space" unicode=" " horiz-adv-x="208" 
 />
    <glyph glyph-name="A" unicode="A" horiz-adv-x="741" 
d="M628 98c20 -61 42 -74 103 -74v-24h-303v24c93 0 94 16 75 74l-48 147h-256l-46 -147c-18 -58 -18 -74 76 -74v-24h-219v24c61 0 82 13 102 74l229 725h50zM212 287h230l-115 355h-3z" />
    <glyph glyph-name="Aacute" unicode="&#xc1;" horiz-adv-x="741" 
d="M492 1076l-129 -183h-38l67 183h100zM628 98c20 -61 42 -74 103 -74v-24h-303v24c93 0 94 16 75 74l-48 147h-256l-46 -147c-18 -58 -18 -74 76 -74v-24h-219v24c61 0 82 13 102 74l229 725h50zM212 287h230l-115 355h-3z" />
    <glyph glyph-name="Abreve" unicode="&#x102;" horiz-adv-x="741" 
d="M367 915c-79 0 -132 49 -138 143h24c7 -46 51 -69 114 -69s106 23 113 69h24c-6 -94 -59 -143 -137 -143zM628 98c20 -61 42 -74 103 -74v-24h-303v24c93 0 94 16 75 74l-48 147h-256l-46 -147c-18 -58 -18 -74 76 -74v-24h-219v24c61 0 82 13 102 74l229 725h50z
M212 287h230l-115 355h-3z" />
    <glyph glyph-name="Acircumflex" unicode="&#xc2;" horiz-adv-x="741" 
d="M367 1018l-106 -129h-38l95 184h97l95 -184h-38zM628 98c20 -61 42 -74 103 -74v-24h-303v24c93 0 94 16 75 74l-48 147h-256l-46 -147c-18 -58 -18 -74 76 -74v-24h-219v24c61 0 82 13 102 74l229 725h50zM212 287h230l-115 355h-3z" />
    <glyph glyph-name="Adieresis" unicode="&#xc4;" horiz-adv-x="741" 
d="M268 928c-32 0 -59 26 -59 58c0 33 27 59 59 59s59 -26 59 -59c0 -32 -27 -58 -59 -58zM465 928c-32 0 -58 26 -58 58c0 33 26 59 58 59c33 0 59 -26 59 -59c0 -32 -26 -58 -59 -58zM628 98c20 -61 42 -74 103 -74v-24h-303v24c93 0 94 16 75 74l-48 147h-256l-46 -147
c-18 -58 -18 -74 76 -74v-24h-219v24c61 0 82 13 102 74l229 725h50zM212 287h230l-115 355h-3z" />
    <glyph glyph-name="Agrave" unicode="&#xc0;" horiz-adv-x="741" 
d="M421 893h-38l-129 183h100zM628 98c20 -61 42 -74 103 -74v-24h-303v24c93 0 94 16 75 74l-48 147h-256l-46 -147c-18 -58 -18 -74 76 -74v-24h-219v24c61 0 82 13 102 74l229 725h50zM212 287h230l-115 355h-3z" />
    <glyph glyph-name="Amacron" unicode="&#x100;" horiz-adv-x="741" 
d="M514 999v-41h-295v41h295zM628 98c20 -61 42 -74 103 -74v-24h-303v24c93 0 94 16 75 74l-48 147h-256l-46 -147c-18 -58 -18 -74 76 -74v-24h-219v24c61 0 82 13 102 74l229 725h50zM212 287h230l-115 355h-3z" />
    <glyph glyph-name="Aogonek" unicode="&#x104;" horiz-adv-x="741" 
d="M644 0c-42 -46 -101 -62 -101 -131c0 -39 23 -65 67 -65c24 0 45 6 82 23l6 -24c-34 -27 -71 -44 -118 -44c-59 0 -111 33 -111 97c0 99 109 112 149 144h-190v24c93 0 94 16 75 74l-48 147h-256l-46 -147c-18 -58 -18 -74 76 -74v-24h-219v24c61 0 82 13 102 74l229 725
h50l237 -725c20 -61 42 -74 103 -74v-24h-87zM212 287h230l-115 355h-3z" />
    <glyph glyph-name="Aring" unicode="&#xc5;" horiz-adv-x="741" 
d="M367 892c-60 0 -103 49 -103 103s43 101 103 101c59 0 101 -47 101 -101s-42 -103 -101 -103zM367 1059c-44 0 -65 -33 -65 -64c0 -32 21 -65 65 -65c43 0 64 33 64 65c0 31 -21 64 -64 64zM628 98c20 -61 42 -74 103 -74v-24h-303v24c93 0 94 16 75 74l-48 147h-256
l-46 -147c-18 -58 -18 -74 76 -74v-24h-219v24c61 0 82 13 102 74l229 725h50zM212 287h230l-115 355h-3z" />
    <glyph glyph-name="Atilde" unicode="&#xc3;" horiz-adv-x="741" 
d="M287 996c-37 0 -48 -27 -54 -69h-24c6 66 23 139 86 139c64 0 96 -69 152 -69c37 0 48 27 53 69h24c-6 -66 -23 -139 -86 -139s-96 69 -151 69zM628 98c20 -61 42 -74 103 -74v-24h-303v24c93 0 94 16 75 74l-48 147h-256l-46 -147c-18 -58 -18 -74 76 -74v-24h-219v24
c61 0 82 13 102 74l229 725h50zM212 287h230l-115 355h-3z" />
    <glyph glyph-name="AE" unicode="&#xc6;" horiz-adv-x="910" 
d="M876 221l23 -6l-53 -190l-7 -25h-496v24c94 0 107 18 107 79v157h-215l-70 -165c-24 -56 -27 -71 66 -71v-24h-221v24c61 0 85 11 111 71l258 610c23 56 26 71 -67 71v24h524l3 -27l20 -161l-24 -3c-15 128 -36 150 -97 150h-175v-318h114c61 0 79 14 79 117h24v-276h-24
c0 103 -18 117 -79 117h-114v-301c0 -47 8 -57 47 -57h137c61 0 86 29 129 180zM253 302h197v460h-3z" />
    <glyph glyph-name="B" unicode="B" horiz-adv-x="643" 
d="M20 0v24c93 0 107 18 107 79v594c0 61 -14 79 -107 79v24h317c146 0 245 -63 245 -201c0 -108 -67 -174 -172 -186v-3c127 -8 207 -88 207 -201c0 -158 -131 -209 -290 -209h-307zM239 436c26 -4 47 -5 75 -5c80 0 153 51 153 167c0 114 -73 161 -153 161
c-28 0 -49 -2 -75 -10v-313zM239 51c26 -7 51 -10 73 -10c92 0 190 35 190 172c0 139 -111 176 -188 176c-28 0 -49 -1 -75 -5v-333z" />
    <glyph glyph-name="C" unicode="C" horiz-adv-x="671" 
d="M36 400c0 242 133 420 334 420c108 0 160 -56 185 -56c13 0 19 6 19 46h23l15 -275h-23c-17 171 -90 244 -197 244c-150 0 -233 -165 -233 -379s83 -371 230 -371c125 0 214 111 238 294h24c-27 -200 -114 -343 -286 -343c-201 0 -329 178 -329 420z" />
    <glyph glyph-name="Cacute" unicode="&#x106;" horiz-adv-x="671" 
d="M328 874l67 183h100l-129 -183h-38zM36 400c0 242 133 420 334 420c108 0 160 -56 185 -56c13 0 19 6 19 46h23l15 -275h-23c-17 171 -90 244 -197 244c-150 0 -233 -165 -233 -379s83 -371 230 -371c125 0 214 111 238 294h24c-27 -200 -114 -343 -286 -343
c-201 0 -329 178 -329 420z" />
    <glyph glyph-name="Ccaron" unicode="&#x10c;" horiz-adv-x="671" 
d="M322 870l-95 184h38l105 -129l106 129h38l-95 -184h-97zM627 323h24c-27 -200 -114 -343 -286 -343c-201 0 -329 178 -329 420s133 420 334 420c108 0 160 -56 185 -56c13 0 19 6 19 46h23l15 -275h-23c-17 171 -90 244 -197 244c-150 0 -233 -165 -233 -379
s83 -371 230 -371c125 0 214 111 238 294z" />
    <glyph glyph-name="Ccedilla" unicode="&#xc7;" horiz-adv-x="671" 
d="M651 323c-25 -185 -101 -322 -249 -341l-34 -43c49 -4 102 -27 102 -84c0 -98 -122 -126 -233 -111l6 23c94 -7 153 18 153 79c0 53 -44 68 -103 69l61 65c-194 6 -318 182 -318 420c0 242 133 420 334 420c108 0 160 -56 185 -56c13 0 19 6 19 46h23l15 -275h-23
c-17 171 -90 244 -197 244c-150 0 -233 -165 -233 -379s83 -371 230 -371c125 0 214 111 238 294h24z" />
    <glyph glyph-name="Cdotaccent" unicode="&#x10a;" horiz-adv-x="671" 
d="M370 909c-32 0 -59 26 -59 58c0 33 27 59 59 59s59 -26 59 -59c0 -32 -27 -58 -59 -58zM36 400c0 242 133 420 334 420c108 0 160 -56 185 -56c13 0 19 6 19 46h23l15 -275h-23c-17 171 -90 244 -197 244c-150 0 -233 -165 -233 -379s83 -371 230 -371
c125 0 214 111 238 294h24c-27 -200 -114 -343 -286 -343c-201 0 -329 178 -329 420z" />
    <glyph glyph-name="D" unicode="D" horiz-adv-x="770" 
d="M20 0v24c93 0 107 18 107 79v594c0 61 -14 79 -107 79v24h322c215 0 392 -126 392 -400s-184 -400 -392 -400h-322zM342 41c173 0 269 138 269 359s-96 359 -269 359c-42 0 -75 -5 -103 -18v-682c28 -13 61 -18 103 -18z" />
    <glyph glyph-name="Eth" unicode="&#xd0;" horiz-adv-x="770" 
d="M342 800c215 0 392 -126 392 -400s-184 -400 -392 -400h-322v24c93 0 107 18 107 79v312h-87v30h87v252c0 61 -14 79 -107 79v24h322zM342 41c173 0 269 138 269 359s-96 359 -269 359c-42 0 -75 -5 -103 -18v-296h178v-30h-178v-356c28 -13 61 -18 103 -18z" />
    <glyph glyph-name="Dcaron" unicode="&#x10e;" horiz-adv-x="770" 
d="M307 870l-95 184h38l105 -129l106 129h38l-95 -184h-97zM342 800c215 0 392 -126 392 -400s-184 -400 -392 -400h-322v24c93 0 107 18 107 79v594c0 61 -14 79 -107 79v24h322zM342 41c173 0 269 138 269 359s-96 359 -269 359c-42 0 -75 -5 -103 -18v-682
c28 -13 61 -18 103 -18z" />
    <glyph glyph-name="Dcroat" unicode="&#x110;" horiz-adv-x="770" 
d="M342 800c215 0 392 -126 392 -400s-184 -400 -392 -400h-322v24c93 0 107 18 107 79v312h-87v30h87v252c0 61 -14 79 -107 79v24h322zM342 41c173 0 269 138 269 359s-96 359 -269 359c-42 0 -75 -5 -103 -18v-296h178v-30h-178v-356c28 -13 61 -18 103 -18z" />
    <glyph glyph-name="E" unicode="E" horiz-adv-x="629" 
d="M552 800l3 -27l19 -161l-24 -3c-15 128 -36 150 -97 150h-214v-318h131c61 0 79 14 79 117h24v-276h-24c0 103 -18 117 -79 117h-131v-301c0 -47 8 -57 47 -57h180c61 0 87 29 129 180l23 -6l-53 -190l-7 -25h-538v24c93 0 107 18 107 79v594c0 61 -14 79 -107 79v24h532
z" />
    <glyph glyph-name="Eacute" unicode="&#xc9;" horiz-adv-x="629" 
d="M275 874l67 183h100l-129 -183h-38zM552 800l3 -27l19 -161l-24 -3c-15 128 -36 150 -97 150h-214v-318h131c61 0 79 14 79 117h24v-276h-24c0 103 -18 117 -79 117h-131v-301c0 -47 8 -57 47 -57h180c61 0 87 29 129 180l23 -6l-53 -190l-7 -25h-538v24
c93 0 107 18 107 79v594c0 61 -14 79 -107 79v24h532z" />
    <glyph glyph-name="Ecaron" unicode="&#x11a;" horiz-adv-x="629" 
d="M268 870l-95 184h38l105 -129l106 129h38l-95 -184h-97zM595 221l23 -6l-53 -190l-7 -25h-538v24c93 0 107 18 107 79v594c0 61 -14 79 -107 79v24h532l3 -27l19 -161l-24 -3c-15 128 -36 150 -97 150h-214v-318h131c61 0 79 14 79 117h24v-276h-24
c0 103 -18 117 -79 117h-131v-301c0 -47 8 -57 47 -57h180c61 0 87 29 129 180z" />
    <glyph glyph-name="Ecircumflex" unicode="&#xca;" horiz-adv-x="629" 
d="M317 999l-106 -129h-38l95 184h97l95 -184h-38zM595 221l23 -6l-53 -190l-7 -25h-538v24c93 0 107 18 107 79v594c0 61 -14 79 -107 79v24h532l3 -27l19 -161l-24 -3c-15 128 -36 150 -97 150h-214v-318h131c61 0 79 14 79 117h24v-276h-24c0 103 -18 117 -79 117h-131
v-301c0 -47 8 -57 47 -57h180c61 0 87 29 129 180z" />
    <glyph glyph-name="Edieresis" unicode="&#xcb;" horiz-adv-x="629" 
d="M218 909c-32 0 -59 26 -59 58c0 33 27 59 59 59s59 -26 59 -59c0 -32 -27 -58 -59 -58zM415 909c-32 0 -58 26 -58 58c0 33 26 59 58 59c33 0 59 -26 59 -59c0 -32 -26 -58 -59 -58zM552 800l3 -27l19 -161l-24 -3c-15 128 -36 150 -97 150h-214v-318h131
c61 0 79 14 79 117h24v-276h-24c0 103 -18 117 -79 117h-131v-301c0 -47 8 -57 47 -57h180c61 0 87 29 129 180l23 -6l-53 -190l-7 -25h-538v24c93 0 107 18 107 79v594c0 61 -14 79 -107 79v24h532z" />
    <glyph glyph-name="Edotaccent" unicode="&#x116;" horiz-adv-x="629" 
d="M317 909c-32 0 -59 26 -59 58c0 33 27 59 59 59s59 -26 59 -59c0 -32 -27 -58 -59 -58zM552 800l3 -27l19 -161l-24 -3c-15 128 -36 150 -97 150h-214v-318h131c61 0 79 14 79 117h24v-276h-24c0 103 -18 117 -79 117h-131v-301c0 -47 8 -57 47 -57h180
c61 0 87 29 129 180l23 -6l-53 -190l-7 -25h-538v24c93 0 107 18 107 79v594c0 61 -14 79 -107 79v24h532z" />
    <glyph glyph-name="Egrave" unicode="&#xc8;" horiz-adv-x="629" 
d="M371 874h-38l-129 183h100zM552 800l3 -27l19 -161l-24 -3c-15 128 -36 150 -97 150h-214v-318h131c61 0 79 14 79 117h24v-276h-24c0 103 -18 117 -79 117h-131v-301c0 -47 8 -57 47 -57h180c61 0 87 29 129 180l23 -6l-53 -190l-7 -25h-538v24c93 0 107 18 107 79v594
c0 61 -14 79 -107 79v24h532z" />
    <glyph glyph-name="Emacron" unicode="&#x112;" horiz-adv-x="629" 
d="M169 980h295v-41h-295v41zM552 800l3 -27l19 -161l-24 -3c-15 128 -36 150 -97 150h-214v-318h131c61 0 79 14 79 117h24v-276h-24c0 103 -18 117 -79 117h-131v-301c0 -47 8 -57 47 -57h180c61 0 87 29 129 180l23 -6l-53 -190l-7 -25h-538v24c93 0 107 18 107 79v594
c0 61 -14 79 -107 79v24h532z" />
    <glyph glyph-name="Eogonek" unicode="&#x118;" horiz-adv-x="629" 
d="M524 -196c24 0 45 6 82 23l6 -24c-34 -27 -71 -44 -118 -44c-59 0 -111 33 -111 97c0 99 109 112 149 144h-512v24c93 0 107 18 107 79v594c0 61 -14 79 -107 79v24h532l3 -27l19 -161l-24 -3c-15 128 -36 150 -97 150h-214v-318h131c61 0 79 14 79 117h24v-276h-24
c0 103 -18 117 -79 117h-131v-301c0 -47 8 -57 47 -57h180c61 0 87 29 129 180l23 -6l-53 -190l-7 -25c-42 -46 -101 -62 -101 -131c0 -39 23 -65 67 -65z" />
    <glyph glyph-name="F" unicode="F" horiz-adv-x="628" 
d="M601 800l2 -27l15 -162l-24 -2c-12 129 -32 150 -93 150h-262v-345h148c61 0 79 15 79 118h24v-276h-24c0 102 -18 117 -79 117h-148v-270c0 -61 14 -79 107 -79v-24h-326v24c93 0 107 18 107 79v594c0 61 -14 79 -107 79v24h581z" />
    <glyph glyph-name="G" unicode="G" horiz-adv-x="775" 
d="M36 396c0 237 136 424 360 424c130 0 174 -52 199 -52c13 0 17 6 17 42h24l15 -275h-24c-17 164 -80 244 -215 244c-175 0 -253 -169 -253 -383s68 -375 256 -375c70 0 120 28 151 58v236c0 61 -23 79 -185 79v24h371v-24c-61 0 -71 -15 -71 -79v-230
c-79 -76 -168 -105 -271 -105c-239 0 -374 180 -374 416z" />
    <glyph glyph-name="Gbreve" unicode="&#x11e;" horiz-adv-x="775" 
d="M536 1039c-6 -94 -59 -143 -137 -143c-79 0 -132 49 -138 143h24c7 -46 51 -69 114 -69s106 23 113 69h24zM36 396c0 237 136 424 360 424c130 0 174 -52 199 -52c13 0 17 6 17 42h24l15 -275h-24c-17 164 -80 244 -215 244c-175 0 -253 -169 -253 -383s68 -375 256 -375
c70 0 120 28 151 58v236c0 61 -23 79 -185 79v24h371v-24c-61 0 -71 -15 -71 -79v-230c-79 -76 -168 -105 -271 -105c-239 0 -374 180 -374 416z" />
    <glyph glyph-name="uni0122" unicode="&#x122;" horiz-adv-x="775" 
d="M36 396c0 237 136 424 360 424c130 0 174 -52 199 -52c13 0 17 6 17 42h24l15 -275h-24c-17 164 -80 244 -215 244c-175 0 -253 -169 -253 -383s68 -375 256 -375c70 0 120 28 151 58v236c0 61 -23 79 -185 79v24h371v-24c-61 0 -71 -15 -71 -79v-230
c-79 -76 -168 -105 -271 -105c-239 0 -374 180 -374 416zM408 -165c-17 0 -33 16 -33 43c0 32 24 48 52 48c37 0 62 -27 62 -69c0 -47 -30 -86 -103 -104v24c29 7 64 26 64 53c0 7 -2 15 -10 15s-15 -10 -32 -10z" />
    <glyph glyph-name="Gdotaccent" unicode="&#x120;" horiz-adv-x="775" 
d="M399 909c-32 0 -59 26 -59 58c0 33 27 59 59 59s59 -26 59 -59c0 -32 -27 -58 -59 -58zM36 396c0 237 136 424 360 424c130 0 174 -52 199 -52c13 0 17 6 17 42h24l15 -275h-24c-17 164 -80 244 -215 244c-175 0 -253 -169 -253 -383s68 -375 256 -375
c70 0 120 28 151 58v236c0 61 -23 79 -185 79v24h371v-24c-61 0 -71 -15 -71 -79v-230c-79 -76 -168 -105 -271 -105c-239 0 -374 180 -374 416z" />
    <glyph glyph-name="H" unicode="H" horiz-adv-x="775" 
d="M755 776c-94 0 -107 -18 -107 -79v-594c0 -61 13 -79 107 -79v-24h-326v24c93 0 106 18 106 79v300h-296v-300c0 -61 14 -79 107 -79v-24h-326v24c93 0 107 18 107 79v594c0 61 -14 79 -107 79v24h326v-24c-93 0 -107 -18 -107 -79v-253h296v253c0 61 -13 79 -106 79v24
h326v-24z" />
    <glyph glyph-name="Hbar" unicode="&#x126;" horiz-adv-x="803" 
d="M770 599h-118v-496c0 -61 14 -79 107 -79v-24h-326v24c93 0 107 18 107 79v300h-296v-300c0 -61 13 -79 106 -79v-24h-326v24c94 0 107 18 107 79v496h-97v30h97v68c0 61 -13 79 -107 79v24h326v-24c-93 0 -106 -18 -106 -79v-68h296v68c0 61 -14 79 -107 79v24h326v-24
c-93 0 -107 -18 -107 -79v-68h118v-30zM540 444v155h-296v-155h296z" />
    <glyph glyph-name="I" unicode="I" horiz-adv-x="366" 
d="M127 697c0 61 -14 79 -107 79v24h326v-24c-93 0 -107 -18 -107 -79v-594c0 -61 14 -79 107 -79v-24h-326v24c93 0 107 18 107 79v594z" />
    <glyph glyph-name="Iacute" unicode="&#xcd;" horiz-adv-x="366" 
d="M141 874l67 183h100l-129 -183h-38zM127 697c0 61 -14 79 -107 79v24h326v-24c-93 0 -107 -18 -107 -79v-594c0 -61 14 -79 107 -79v-24h-326v24c93 0 107 18 107 79v594z" />
    <glyph glyph-name="Icircumflex" unicode="&#xce;" horiz-adv-x="366" 
d="M183 999l-106 -129h-38l95 184h97l95 -184h-38zM346 776c-93 0 -107 -18 -107 -79v-594c0 -61 14 -79 107 -79v-24h-326v24c93 0 107 18 107 79v594c0 61 -14 79 -107 79v24h326v-24z" />
    <glyph glyph-name="Idieresis" unicode="&#xcf;" horiz-adv-x="366" 
d="M84 909c-32 0 -59 26 -59 58c0 33 27 59 59 59s59 -26 59 -59c0 -32 -27 -58 -59 -58zM281 909c-32 0 -58 26 -58 58c0 33 26 59 58 59c33 0 59 -26 59 -59c0 -32 -26 -58 -59 -58zM127 697c0 61 -14 79 -107 79v24h326v-24c-93 0 -107 -18 -107 -79v-594
c0 -61 14 -79 107 -79v-24h-326v24c93 0 107 18 107 79v594z" />
    <glyph glyph-name="Idotaccent" unicode="&#x130;" horiz-adv-x="366" 
d="M183 909c-32 0 -59 26 -59 58c0 33 27 59 59 59s59 -26 59 -59c0 -32 -27 -58 -59 -58zM127 697c0 61 -14 79 -107 79v24h326v-24c-93 0 -107 -18 -107 -79v-594c0 -61 14 -79 107 -79v-24h-326v24c93 0 107 18 107 79v594z" />
    <glyph glyph-name="Igrave" unicode="&#xcc;" horiz-adv-x="366" 
d="M238 874h-38l-129 183h100zM127 697c0 61 -14 79 -107 79v24h326v-24c-93 0 -107 -18 -107 -79v-594c0 -61 14 -79 107 -79v-24h-326v24c93 0 107 18 107 79v594z" />
    <glyph glyph-name="Imacron" unicode="&#x12a;" horiz-adv-x="366" 
d="M35 980h295v-41h-295v41zM127 697c0 61 -14 79 -107 79v24h326v-24c-93 0 -107 -18 -107 -79v-594c0 -61 14 -79 107 -79v-24h-326v24c93 0 107 18 107 79v594z" />
    <glyph glyph-name="Iogonek" unicode="&#x12e;" horiz-adv-x="366" 
d="M346 776c-93 0 -107 -18 -107 -79v-594c0 -61 14 -79 107 -79v-24h-63c-42 -46 -101 -62 -101 -131c0 -39 23 -65 67 -65c24 0 45 6 82 23l6 -24c-34 -27 -71 -44 -118 -44c-59 0 -111 33 -111 97c0 99 109 112 149 144h-237v24c93 0 107 18 107 79v594
c0 61 -14 79 -107 79v24h326v-24z" />
    <glyph glyph-name="J" unicode="J" horiz-adv-x="447" 
d="M207 189v508c0 61 -13 79 -106 79v24h326v-24c-94 0 -107 -18 -107 -79v-458c0 -194 -60 -259 -159 -259c-100 0 -141 51 -141 112c0 38 26 55 53 55s52 -14 52 -49c0 -34 -10 -77 29 -77c46 0 53 57 53 168z" />
    <glyph glyph-name="K" unicode="K" horiz-adv-x="806" 
d="M123 697c0 61 -13 79 -107 79v24h326v-24c-93 0 -106 -18 -106 -79v-594c0 -61 13 -79 106 -79v-24h-326v24c94 0 107 18 107 79v594zM655 84c38 -53 70 -60 131 -60v-24h-302v24c80 0 70 7 32 59l-249 336l259 302c42 50 53 55 -32 55v24h222v-24c-61 0 -95 -5 -137 -55
l-205 -245z" />
    <glyph glyph-name="uni0136" unicode="&#x136;" horiz-adv-x="806" 
d="M123 697c0 61 -13 79 -107 79v24h326v-24c-93 0 -106 -18 -106 -79v-594c0 -61 13 -79 106 -79v-24h-326v24c94 0 107 18 107 79v594zM655 84c38 -53 70 -60 131 -60v-24h-302v24c80 0 70 7 32 59l-249 336l259 302c42 50 53 55 -32 55v24h222v-24c-61 0 -95 -5 -137 -55
l-205 -245zM404 -165c-17 0 -33 16 -33 43c0 32 24 48 52 48c37 0 62 -27 62 -69c0 -47 -30 -86 -103 -104v24c29 7 64 26 64 53c0 7 -2 15 -10 15s-15 -10 -32 -10z" />
    <glyph glyph-name="L" unicode="L" horiz-adv-x="617" 
d="M346 800v-24c-93 0 -107 -18 -107 -79v-589c0 -57 12 -67 62 -67h151c61 0 86 29 127 189l23 -6l-51 -200l-6 -24h-525v24c93 0 107 18 107 79v594c0 61 -14 79 -107 79v24h326z" />
    <glyph glyph-name="Lacute" unicode="&#x139;" horiz-adv-x="617" 
d="M178 874l67 184h100l-129 -184h-38zM346 800v-24c-93 0 -107 -18 -107 -79v-589c0 -57 12 -67 62 -67h151c61 0 86 29 127 189l23 -6l-51 -200l-6 -24h-525v24c93 0 107 18 107 79v594c0 61 -14 79 -107 79v24h326z" />
    <glyph glyph-name="Lcaron" unicode="&#x13d;" horiz-adv-x="633" 
d="M405 637l67 183h100l-129 -183h-38zM346 800v-24c-93 0 -107 -18 -107 -79v-589c0 -57 12 -67 62 -67h151c61 0 86 29 127 189l23 -6l-51 -200l-6 -24h-525v24c93 0 107 18 107 79v594c0 61 -14 79 -107 79v24h326z" />
    <glyph glyph-name="uni013B" unicode="&#x13b;" horiz-adv-x="617" 
d="M346 800v-24c-93 0 -107 -18 -107 -79v-589c0 -57 12 -67 62 -67h151c61 0 86 29 127 189l23 -6l-51 -200l-6 -24h-525v24c93 0 107 18 107 79v594c0 61 -14 79 -107 79v24h326zM306 -165c-18 0 -33 16 -33 43c0 32 23 48 52 48c37 0 61 -27 61 -69
c0 -47 -29 -86 -103 -104v24c30 7 64 26 64 53c0 7 -2 15 -10 15s-14 -10 -31 -10z" />
    <glyph glyph-name="Lslash" unicode="&#x141;" horiz-adv-x="617" 
d="M579 230l23 -6l-51 -200l-6 -24h-525v24c93 0 107 18 107 79v229l-78 -45l-15 26l93 54v330c0 61 -14 79 -107 79v24h326v-24c-93 0 -107 -18 -107 -79v-265l229 133l15 -26l-244 -142v-289c0 -57 12 -67 62 -67h151c61 0 86 29 127 189z" />
    <glyph glyph-name="M" unicode="M" horiz-adv-x="946" 
d="M474 176h3l203 624h246v-24c-93 0 -107 -18 -107 -79v-594c0 -61 14 -79 107 -79v-24h-326v24c93 0 107 18 107 79v639h-3l-244 -765h-50l-241 755h-3l2 -629c0 -61 13 -79 107 -79v-24h-255v24c93 0 107 18 107 79v594c0 61 -14 79 -107 79v24h251z" />
    <glyph glyph-name="N" unicode="N" horiz-adv-x="772" 
d="M752 800v-24c-93 0 -106 -18 -106 -79v-720h-50l-428 696v-570c0 -61 14 -79 107 -79v-24h-255v24c93 0 107 18 107 79v634c-27 33 -57 39 -107 39v24h209l372 -606h3v503c0 61 -13 79 -106 79v24h254z" />
    <glyph glyph-name="Nacute" unicode="&#x143;" horiz-adv-x="772" 
d="M502 1057l-129 -183h-38l67 183h100zM752 800v-24c-93 0 -106 -18 -106 -79v-720h-50l-428 696v-570c0 -61 14 -79 107 -79v-24h-255v24c93 0 107 18 107 79v634c-27 33 -57 39 -107 39v24h209l372 -606h3v503c0 61 -13 79 -106 79v24h254z" />
    <glyph glyph-name="Ncaron" unicode="&#x147;" horiz-adv-x="772" 
d="M328 870l-95 184h38l105 -129l106 129h38l-95 -184h-97zM752 800v-24c-93 0 -106 -18 -106 -79v-720h-50l-428 696v-570c0 -61 14 -79 107 -79v-24h-255v24c93 0 107 18 107 79v634c-27 33 -57 39 -107 39v24h209l372 -606h3v503c0 61 -13 79 -106 79v24h254z" />
    <glyph glyph-name="uni0145" unicode="&#x145;" horiz-adv-x="772" 
d="M752 800v-24c-93 0 -106 -18 -106 -79v-720h-50l-428 696v-570c0 -61 14 -79 107 -79v-24h-255v24c93 0 107 18 107 79v634c-27 33 -57 39 -107 39v24h209l372 -606h3v503c0 61 -13 79 -106 79v24h254zM417 -74c37 0 62 -27 62 -69c0 -47 -30 -86 -103 -104v24
c29 7 64 26 64 53c0 7 -2 15 -10 15s-15 -10 -32 -10s-33 16 -33 43c0 32 24 48 52 48z" />
    <glyph glyph-name="Eng" unicode="&#x14a;" horiz-adv-x="772" 
d="M752 800v-24c-93 0 -106 -18 -106 -79v-725c0 -118 -30 -212 -142 -212c-83 0 -128 44 -128 96c0 34 23 51 52 51c28 0 53 -16 53 -52c0 -33 3 -54 45 -54c59 0 78 78 78 165v11h-8l-428 696v-570c0 -61 14 -79 107 -79v-24h-255v24c93 0 107 18 107 79v634
c-27 33 -57 39 -107 39v24h209l372 -606h3v503c0 61 -13 79 -106 79v24h254z" />
    <glyph glyph-name="Ntilde" unicode="&#xd1;" horiz-adv-x="772" 
d="M297 977c-37 0 -48 -27 -54 -69h-24c6 66 23 139 86 139c64 0 96 -69 152 -69c37 0 48 27 53 69h24c-6 -66 -23 -139 -86 -139s-96 69 -151 69zM752 800v-24c-93 0 -106 -18 -106 -79v-720h-50l-428 696v-570c0 -61 14 -79 107 -79v-24h-255v24c93 0 107 18 107 79v634
c-27 33 -57 39 -107 39v24h209l372 -606h3v503c0 61 -13 79 -106 79v24h254z" />
    <glyph glyph-name="O" unicode="O" horiz-adv-x="702" 
d="M351 -20c-199 0 -315 189 -315 420s116 420 315 420c200 0 315 -189 315 -420s-115 -420 -315 -420zM384 19c116 11 180 145 158 398c-22 252 -109 375 -224 365c-116 -11 -181 -146 -159 -399c23 -252 108 -374 225 -364z" />
    <glyph glyph-name="Oacute" unicode="&#xd3;" horiz-adv-x="702" 
d="M309 874l67 183h100l-129 -183h-38zM351 -20c-199 0 -315 189 -315 420s116 420 315 420c200 0 315 -189 315 -420s-115 -420 -315 -420zM384 19c116 11 180 145 158 398c-22 252 -109 375 -224 365c-116 -11 -181 -146 -159 -399c23 -252 108 -374 225 -364z" />
    <glyph glyph-name="Ocircumflex" unicode="&#xd4;" horiz-adv-x="702" 
d="M352 999l-106 -129h-38l95 184h97l95 -184h-38zM351 820c200 0 315 -189 315 -420s-115 -420 -315 -420c-199 0 -315 189 -315 420s116 420 315 420zM384 19c116 11 180 145 158 398c-22 252 -109 375 -224 365c-116 -11 -181 -146 -159 -399c23 -252 108 -374 225 -364z
" />
    <glyph glyph-name="Odieresis" unicode="&#xd6;" horiz-adv-x="702" 
d="M253 909c-32 0 -59 26 -59 58c0 33 27 59 59 59s59 -26 59 -59c0 -32 -27 -58 -59 -58zM450 909c-32 0 -58 26 -58 58c0 33 26 59 58 59c33 0 59 -26 59 -59c0 -32 -26 -58 -59 -58zM351 -20c-199 0 -315 189 -315 420s116 420 315 420c200 0 315 -189 315 -420
s-115 -420 -315 -420zM384 19c116 11 180 145 158 398c-22 252 -109 375 -224 365c-116 -11 -181 -146 -159 -399c23 -252 108 -374 225 -364z" />
    <glyph glyph-name="Ograve" unicode="&#xd2;" horiz-adv-x="702" 
d="M406 874h-38l-129 183h100zM351 -20c-199 0 -315 189 -315 420s116 420 315 420c200 0 315 -189 315 -420s-115 -420 -315 -420zM384 19c116 11 180 145 158 398c-22 252 -109 375 -224 365c-116 -11 -181 -146 -159 -399c23 -252 108 -374 225 -364z" />
    <glyph glyph-name="Ohungarumlaut" unicode="&#x150;" horiz-adv-x="702" 
d="M248 874l53 183h72l-95 -183h-30zM352 874l61 183h71l-102 -183h-30zM351 -20c-199 0 -315 189 -315 420s116 420 315 420c200 0 315 -189 315 -420s-115 -420 -315 -420zM384 19c116 11 180 145 158 398c-22 252 -109 375 -224 365c-116 -11 -181 -146 -159 -399
c23 -252 108 -374 225 -364z" />
    <glyph glyph-name="Omacron" unicode="&#x14c;" horiz-adv-x="702" 
d="M204 980h295v-41h-295v41zM351 -20c-199 0 -315 189 -315 420s116 420 315 420c200 0 315 -189 315 -420s-115 -420 -315 -420zM384 19c116 11 180 145 158 398c-22 252 -109 375 -224 365c-116 -11 -181 -146 -159 -399c23 -252 108 -374 225 -364z" />
    <glyph glyph-name="Oslash" unicode="&#xd8;" horiz-adv-x="722" 
d="M564 722c66 -77 102 -193 102 -322c0 -231 -115 -420 -315 -420c-70 0 -130 23 -178 64l-67 -117l-26 15l71 123c-74 77 -115 198 -115 335c0 231 116 420 315 420c77 0 141 -28 191 -76l75 130l26 -15zM159 383c8 -91 25 -165 48 -221l282 490c-41 92 -101 136 -171 130
c-116 -11 -181 -146 -159 -399zM384 19c116 11 180 145 158 398c-7 79 -20 146 -39 199l-281 -488c40 -78 96 -115 162 -109z" />
    <glyph glyph-name="Otilde" unicode="&#xd5;" horiz-adv-x="702" 
d="M423 908c-63 0 -96 69 -151 69c-37 0 -48 -27 -54 -69h-24c6 66 23 139 86 139c64 0 96 -69 152 -69c37 0 48 27 53 69h24c-6 -66 -23 -139 -86 -139zM351 -20c-199 0 -315 189 -315 420s116 420 315 420c200 0 315 -189 315 -420s-115 -420 -315 -420zM384 19
c116 11 180 145 158 398c-22 252 -109 375 -224 365c-116 -11 -181 -146 -159 -399c23 -252 108 -374 225 -364z" />
    <glyph glyph-name="OE" unicode="&#x152;" horiz-adv-x="942" 
d="M908 221l23 -6l-53 -190l-7 -25h-335c-63 0 -101 -10 -180 -10c-205 0 -320 179 -320 410s115 410 320 410c79 0 117 -10 180 -10h332l3 -27l20 -161l-24 -3c-15 128 -36 150 -97 150h-200v-318h124c61 0 79 14 79 117h24v-276h-24c0 103 -18 117 -79 117h-124v-301
c0 -47 8 -57 47 -57h162c61 0 86 29 129 180zM346 31c38 0 65 7 109 37v665c-44 31 -71 38 -109 37c-125 -4 -187 -156 -187 -370s62 -369 187 -369z" />
    <glyph glyph-name="P" unicode="P" horiz-adv-x="647" 
d="M20 0v24c93 0 107 18 107 79v594c0 61 -14 79 -107 79v24h311c178 0 284 -74 284 -231c0 -156 -115 -228 -240 -228c-50 0 -94 9 -136 21v-259c0 -61 14 -79 107 -79v-24h-326zM344 383c85 0 148 68 148 186c0 126 -73 190 -165 190c-33 0 -60 -6 -88 -18v-338
c34 -12 65 -20 105 -20z" />
    <glyph glyph-name="Thorn" unicode="&#xde;" horiz-adv-x="645" 
d="M20 0v24c93 0 107 18 107 79v594c0 61 -14 79 -107 79v24h326v-24c-93 0 -107 -18 -107 -79v-66h92c178 0 284 -74 284 -231c0 -156 -115 -227 -240 -227c-50 0 -94 11 -136 23v-93c0 -61 14 -79 107 -79v-24h-326zM344 214c85 0 148 68 148 186c0 127 -73 190 -165 190
c-33 0 -60 -6 -88 -18v-337c34 -13 65 -21 105 -21z" />
    <glyph glyph-name="Q" unicode="Q" horiz-adv-x="696" 
d="M737 -73l18 -23c-46 -47 -102 -96 -178 -96c-105 0 -148 78 -267 78c-42 0 -75 -7 -145 -27l-17 68c53 12 119 30 181 54c-185 13 -293 197 -293 419c0 231 116 420 315 420c200 0 315 -189 315 -420c0 -138 -41 -261 -117 -338l-15 -14l-6 -6
c-87 -72 -222 -108 -293 -124l1 -4c46 9 75 13 108 13c101 0 158 -59 242 -59c63 0 101 20 151 59zM159 383c23 -252 108 -374 225 -364c116 11 180 145 158 398c-22 252 -109 375 -224 365c-116 -11 -181 -146 -159 -399z" />
    <glyph glyph-name="R" unicode="R" horiz-adv-x="691" 
d="M557 92c29 -58 57 -68 117 -68v-24h-80c-93 0 -119 2 -156 86l-151 302h-21h-27v-285c0 -61 14 -79 107 -79v-24h-326v24c93 0 107 18 107 79v594c0 61 -14 79 -107 79v24h302c167 0 257 -70 257 -202c0 -155 -123 -197 -241 -207h8v-3c46 -11 83 -37 119 -111zM266 429
c79 -1 198 25 198 171c0 107 -62 159 -146 159c-30 0 -58 -7 -79 -18v-312h27z" />
    <glyph glyph-name="Racute" unicode="&#x154;" horiz-adv-x="691" 
d="M442 1058l-130 -184h-37l67 184h100zM557 92c29 -58 57 -68 117 -68v-24h-80c-93 0 -119 2 -156 86l-151 302h-21h-27v-285c0 -61 14 -79 107 -79v-24h-326v24c93 0 107 18 107 79v594c0 61 -14 79 -107 79v24h302c167 0 257 -70 257 -202c0 -155 -123 -197 -241 -207h8
v-3c46 -11 83 -37 119 -111zM266 429c79 -1 198 25 198 171c0 107 -62 159 -146 159c-30 0 -58 -7 -79 -18v-312h27z" />
    <glyph glyph-name="Rcaron" unicode="&#x158;" horiz-adv-x="691" 
d="M271 870l-94 184h37l106 -129l106 129h37l-94 -184h-98zM557 92c29 -58 57 -68 117 -68v-24h-80c-93 0 -119 2 -156 86l-151 302h-21h-27v-285c0 -61 14 -79 107 -79v-24h-326v24c93 0 107 18 107 79v594c0 61 -14 79 -107 79v24h302c167 0 257 -70 257 -202
c0 -155 -123 -197 -241 -207h8v-3c46 -11 83 -37 119 -111zM266 429c79 -1 198 25 198 171c0 107 -62 159 -146 159c-30 0 -58 -7 -79 -18v-312h27z" />
    <glyph glyph-name="uni0156" unicode="&#x156;" horiz-adv-x="691" 
d="M557 92c29 -58 57 -68 117 -68v-24h-80c-93 0 -119 2 -156 86l-151 302h-21h-27v-285c0 -61 14 -79 107 -79v-24h-326v24c93 0 107 18 107 79v594c0 61 -14 79 -107 79v24h302c167 0 257 -70 257 -202c0 -155 -123 -197 -241 -207h8v-3c46 -11 83 -37 119 -111zM266 429
c79 -1 198 25 198 171c0 107 -62 159 -146 159c-30 0 -58 -7 -79 -18v-312h27zM412 -74c37 0 62 -27 62 -69c0 -47 -30 -86 -104 -104v24c30 7 64 26 64 53c0 7 -2 15 -10 15s-14 -10 -31 -10s-33 16 -33 43c0 32 24 48 52 48z" />
    <glyph glyph-name="S" unicode="S" horiz-adv-x="561" 
d="M57 -4v288h24c4 -162 95 -263 203 -263c81 0 132 51 132 127c0 90 -94 158 -194 242c-113 97 -166 147 -166 252c0 115 88 178 197 178c108 0 153 -69 177 -69c11 0 15 9 15 53h24v-235h-24c-4 123 -76 210 -181 210c-83 0 -119 -49 -119 -102c0 -75 75 -126 149 -190
c131 -113 211 -169 211 -304c0 -131 -105 -203 -209 -203c-126 0 -165 73 -194 73c-16 0 -21 -15 -21 -57h-24z" />
    <glyph glyph-name="Sacute" unicode="&#x15a;" horiz-adv-x="561" 
d="M233 874l67 183h100l-129 -183h-38zM57 -4v288h24c4 -162 95 -263 203 -263c81 0 132 51 132 127c0 90 -94 158 -194 242c-113 97 -166 147 -166 252c0 115 88 178 197 178c108 0 153 -69 177 -69c11 0 15 9 15 53h24v-235h-24c-4 123 -76 210 -181 210
c-83 0 -119 -49 -119 -102c0 -75 75 -126 149 -190c131 -113 211 -169 211 -304c0 -131 -105 -203 -209 -203c-126 0 -165 73 -194 73c-16 0 -21 -15 -21 -57h-24z" />
    <glyph glyph-name="Scaron" unicode="&#x160;" horiz-adv-x="561" 
d="M227 870l-95 184h38l105 -129l106 129h38l-95 -184h-97zM294 487c131 -113 211 -169 211 -304c0 -131 -105 -203 -209 -203c-126 0 -165 73 -194 73c-16 0 -21 -15 -21 -57h-24v288h24c4 -162 95 -263 203 -263c81 0 132 51 132 127c0 90 -94 158 -194 242
c-113 97 -166 147 -166 252c0 115 88 178 197 178c108 0 153 -69 177 -69c11 0 15 9 15 53h24v-235h-24c-4 123 -76 210 -181 210c-83 0 -119 -49 -119 -102c0 -75 75 -126 149 -190z" />
    <glyph glyph-name="Scedilla" unicode="&#x15e;" horiz-adv-x="561" 
d="M505 183c0 -110 -75 -179 -160 -198l-30 -38c49 -4 102 -27 102 -84c0 -98 -122 -126 -233 -111l6 23c94 -7 153 18 153 79c0 53 -44 68 -103 69l54 57c-124 1 -163 73 -192 73c-16 0 -21 -15 -21 -57h-24v288h24c4 -162 95 -263 203 -263c81 0 132 51 132 127
c0 90 -94 158 -194 242c-113 97 -166 147 -166 252c0 115 88 178 197 178c108 0 153 -69 177 -69c11 0 15 9 15 53h24v-235h-24c-4 123 -76 210 -181 210c-83 0 -119 -49 -119 -102c0 -75 75 -126 149 -190c131 -113 211 -169 211 -304z" />
    <glyph glyph-name="uni0218" unicode="&#x218;" horiz-adv-x="561" 
d="M57 -4v288h24c4 -162 95 -263 203 -263c81 0 132 51 132 127c0 90 -94 158 -194 242c-113 97 -166 147 -166 252c0 115 88 178 197 178c108 0 153 -69 177 -69c11 0 15 9 15 53h24v-235h-24c-4 123 -76 210 -181 210c-83 0 -119 -49 -119 -102c0 -75 75 -126 149 -190
c131 -113 211 -169 211 -304c0 -131 -105 -203 -209 -203c-126 0 -165 73 -194 73c-16 0 -21 -15 -21 -57h-24zM258 -165c-17 0 -33 16 -33 43c0 32 24 48 52 48c37 0 62 -27 62 -69c0 -47 -30 -86 -103 -104v24c29 7 64 26 64 53c0 7 -2 15 -10 15s-15 -10 -32 -10z" />
    <glyph glyph-name="T" unicode="T" horiz-adv-x="662" 
d="M617 773l14 -163l-24 -2c-11 130 -31 151 -92 151h-128v-656c0 -61 14 -79 107 -79v-24h-326v24c93 0 107 18 107 79v656h-129c-61 0 -81 -21 -92 -151l-23 2l13 163l2 27h569z" />
    <glyph glyph-name="Tbar" unicode="&#x166;" horiz-adv-x="682" 
d="M617 773l14 -163l-24 -2c-11 130 -31 151 -92 151h-128v-350h169v-30h-169v-276c0 -61 14 -79 107 -79v-24h-326v24c93 0 107 18 107 79v276h-149v30h149v350h-129c-61 0 -81 -21 -92 -151l-23 2l13 163l2 27h569z" />
    <glyph glyph-name="Tcaron" unicode="&#x164;" horiz-adv-x="662" 
d="M283 870l-95 184h38l105 -129l106 129h38l-95 -184h-97zM617 773l14 -163l-24 -2c-11 130 -31 151 -92 151h-128v-656c0 -61 14 -79 107 -79v-24h-326v24c93 0 107 18 107 79v656h-129c-61 0 -81 -21 -92 -151l-23 2l13 163l2 27h569z" />
    <glyph glyph-name="uni0162" unicode="&#x162;" horiz-adv-x="662" 
d="M617 773l14 -163l-24 -2c-11 130 -31 151 -92 151h-128v-656c0 -61 14 -79 107 -79v-24h-125l-40 -53c48 -4 101 -27 101 -84c0 -98 -122 -126 -232 -111l6 23c94 -7 152 18 152 79c0 53 -43 68 -102 69l73 77h-159v24c93 0 107 18 107 79v656h-129
c-61 0 -81 -21 -92 -151l-23 2l13 163l2 27h569z" />
    <glyph glyph-name="uni021A" unicode="&#x21a;" horiz-adv-x="662" 
d="M617 773l14 -163l-24 -2c-11 130 -31 151 -92 151h-128v-656c0 -61 14 -79 107 -79v-24h-326v24c93 0 107 18 107 79v656h-129c-61 0 -81 -21 -92 -151l-23 2l13 163l2 27h569zM331 -74c37 0 62 -27 62 -69c0 -47 -30 -86 -103 -104v24c29 7 64 26 64 53
c0 7 -2 15 -10 15s-15 -10 -32 -10s-33 16 -33 43c0 32 24 48 52 48z" />
    <glyph glyph-name="U" unicode="U" horiz-adv-x="787" 
d="M619 697c0 61 -13 79 -107 79v24h255v-24c-93 0 -107 -18 -107 -79v-457c0 -124 -45 -260 -241 -260c-200 0 -292 106 -292 267v450c0 61 -14 79 -107 79v24h326v-24c-93 0 -107 -18 -107 -79v-457c0 -155 65 -219 192 -219c113 0 188 61 188 219v457z" />
    <glyph glyph-name="Uacute" unicode="&#xda;" horiz-adv-x="787" 
d="M385 874l67 183h100l-129 -183h-38zM619 697c0 61 -13 79 -107 79v24h255v-24c-93 0 -107 -18 -107 -79v-457c0 -124 -45 -260 -241 -260c-200 0 -292 106 -292 267v450c0 61 -14 79 -107 79v24h326v-24c-93 0 -107 -18 -107 -79v-457c0 -155 65 -219 192 -219
c113 0 188 61 188 219v457z" />
    <glyph glyph-name="Ucircumflex" unicode="&#xdb;" horiz-adv-x="787" 
d="M427 999l-106 -129h-38l95 184h97l95 -184h-38zM767 800v-24c-93 0 -107 -18 -107 -79v-457c0 -124 -45 -260 -241 -260c-200 0 -292 106 -292 267v450c0 61 -14 79 -107 79v24h326v-24c-93 0 -107 -18 -107 -79v-457c0 -155 65 -219 192 -219c113 0 188 61 188 219v457
c0 61 -13 79 -107 79v24h255z" />
    <glyph glyph-name="Udieresis" unicode="&#xdc;" horiz-adv-x="787" 
d="M328 909c-32 0 -59 26 -59 58c0 33 27 59 59 59s59 -26 59 -59c0 -32 -27 -58 -59 -58zM525 909c-32 0 -58 26 -58 58c0 33 26 59 58 59c33 0 59 -26 59 -59c0 -32 -26 -58 -59 -58zM619 697c0 61 -13 79 -107 79v24h255v-24c-93 0 -107 -18 -107 -79v-457
c0 -124 -45 -260 -241 -260c-200 0 -292 106 -292 267v450c0 61 -14 79 -107 79v24h326v-24c-93 0 -107 -18 -107 -79v-457c0 -155 65 -219 192 -219c113 0 188 61 188 219v457z" />
    <glyph glyph-name="Ugrave" unicode="&#xd9;" horiz-adv-x="787" 
d="M481 874h-38l-129 183h100zM619 697c0 61 -13 79 -107 79v24h255v-24c-93 0 -107 -18 -107 -79v-457c0 -124 -45 -260 -241 -260c-200 0 -292 106 -292 267v450c0 61 -14 79 -107 79v24h326v-24c-93 0 -107 -18 -107 -79v-457c0 -155 65 -219 192 -219
c113 0 188 61 188 219v457z" />
    <glyph glyph-name="Uhungarumlaut" unicode="&#x170;" horiz-adv-x="787" 
d="M324 874l53 183h72l-95 -183h-30zM428 874l61 183h71l-102 -183h-30zM619 697c0 61 -13 79 -107 79v24h255v-24c-93 0 -107 -18 -107 -79v-457c0 -124 -45 -260 -241 -260c-200 0 -292 106 -292 267v450c0 61 -14 79 -107 79v24h326v-24c-93 0 -107 -18 -107 -79v-457
c0 -155 65 -219 192 -219c113 0 188 61 188 219v457z" />
    <glyph glyph-name="Umacron" unicode="&#x16a;" horiz-adv-x="787" 
d="M279 980h295v-41h-295v41zM619 697c0 61 -13 79 -107 79v24h255v-24c-93 0 -107 -18 -107 -79v-457c0 -124 -45 -260 -241 -260c-200 0 -292 106 -292 267v450c0 61 -14 79 -107 79v24h326v-24c-93 0 -107 -18 -107 -79v-457c0 -155 65 -219 192 -219
c113 0 188 61 188 219v457z" />
    <glyph glyph-name="Uogonek" unicode="&#x172;" horiz-adv-x="787" 
d="M767 800v-24c-93 0 -107 -18 -107 -79v-457c0 -106 -33 -221 -165 -252c-42 -44 -99 -61 -99 -129c0 -39 23 -65 67 -65c24 0 45 6 82 23l6 -24c-34 -27 -71 -44 -118 -44c-59 0 -111 33 -111 97c0 90 91 109 137 136c-12 -1 -26 -2 -40 -2c-200 0 -292 106 -292 267v450
c0 61 -14 79 -107 79v24h326v-24c-93 0 -107 -18 -107 -79v-457c0 -155 65 -219 192 -219c113 0 188 61 188 219v457c0 61 -13 79 -107 79v24h255z" />
    <glyph glyph-name="Uring" unicode="&#x16e;" horiz-adv-x="787" 
d="M427 873c-60 0 -103 49 -103 103s43 101 103 101c59 0 101 -47 101 -101s-42 -103 -101 -103zM427 911c43 0 64 33 64 65c0 31 -21 64 -64 64c-44 0 -65 -33 -65 -64c0 -32 21 -65 65 -65zM619 697c0 61 -13 79 -107 79v24h255v-24c-93 0 -107 -18 -107 -79v-457
c0 -124 -45 -260 -241 -260c-200 0 -292 106 -292 267v450c0 61 -14 79 -107 79v24h326v-24c-93 0 -107 -18 -107 -79v-457c0 -155 65 -219 192 -219c113 0 188 61 188 219v457z" />
    <glyph glyph-name="V" unicode="V" horiz-adv-x="741" 
d="M414 158h3l171 544c18 58 17 74 -76 74v24h219v-24c-61 0 -82 -13 -102 -74l-229 -725h-50l-237 725c-21 61 -42 74 -103 74v24h303v-24c-93 0 -94 -16 -75 -74z" />
    <glyph glyph-name="W" unicode="W" horiz-adv-x="995" 
d="M985 800v-24c-60 0 -80 -13 -96 -76l-186 -723h-50l-138 515l-163 -515h-48l-196 723c-17 63 -37 76 -98 76v24h301v-24c-93 0 -96 -17 -80 -76l141 -530h3l121 391l-37 139c-17 63 -36 76 -97 76v24h301v-24c-93 0 -96 -17 -81 -76l134 -513h3l129 513
c15 59 12 76 -81 76v24h218z" />
    <glyph glyph-name="Wacute" unicode="&#x1e82;" horiz-adv-x="995" 
d="M660 1057l-129 -183h-38l67 183h100zM985 800v-24c-60 0 -80 -13 -96 -76l-186 -723h-50l-138 515l-163 -515h-48l-196 723c-17 63 -37 76 -98 76v24h301v-24c-93 0 -96 -17 -80 -76l141 -530h3l121 391l-37 139c-17 63 -36 76 -97 76v24h301v-24c-93 0 -96 -17 -81 -76
l134 -513h3l129 513c15 59 12 76 -81 76v24h218z" />
    <glyph glyph-name="Wcircumflex" unicode="&#x174;" horiz-adv-x="995" 
d="M536 999l-106 -129h-38l95 184h97l95 -184h-38zM985 800v-24c-60 0 -80 -13 -96 -76l-186 -723h-50l-138 515l-163 -515h-48l-196 723c-17 63 -37 76 -98 76v24h301v-24c-93 0 -96 -17 -80 -76l141 -530h3l121 391l-37 139c-17 63 -36 76 -97 76v24h301v-24
c-93 0 -96 -17 -81 -76l134 -513h3l129 513c15 59 12 76 -81 76v24h218z" />
    <glyph glyph-name="Wdieresis" unicode="&#x1e84;" horiz-adv-x="995" 
d="M437 909c-32 0 -59 26 -59 58c0 33 27 59 59 59s59 -26 59 -59c0 -32 -27 -58 -59 -58zM634 909c-32 0 -58 26 -58 58c0 33 26 59 58 59c33 0 59 -26 59 -59c0 -32 -26 -58 -59 -58zM985 800v-24c-60 0 -80 -13 -96 -76l-186 -723h-50l-138 515l-163 -515h-48l-196 723
c-17 63 -37 76 -98 76v24h301v-24c-93 0 -96 -17 -80 -76l141 -530h3l121 391l-37 139c-17 63 -36 76 -97 76v24h301v-24c-93 0 -96 -17 -81 -76l134 -513h3l129 513c15 59 12 76 -81 76v24h218z" />
    <glyph glyph-name="Wgrave" unicode="&#x1e80;" horiz-adv-x="995" 
d="M590 874h-38l-129 183h100zM985 800v-24c-60 0 -80 -13 -96 -76l-186 -723h-50l-138 515l-163 -515h-48l-196 723c-17 63 -37 76 -98 76v24h301v-24c-93 0 -96 -17 -80 -76l141 -530h3l121 391l-37 139c-17 63 -36 76 -97 76v24h301v-24c-93 0 -96 -17 -81 -76l134 -513
h3l129 513c15 59 12 76 -81 76v24h218z" />
    <glyph glyph-name="X" unicode="X" horiz-adv-x="787" 
d="M644 89c33 -56 62 -65 123 -65v-24h-315v24c94 0 86 12 55 65l-142 243l-155 -245c-33 -51 -42 -63 52 -63v-24h-227v24c61 0 91 9 126 63l180 285l-198 339c-33 56 -62 65 -123 65v24h314v-24c-93 0 -85 -12 -54 -65l133 -226l144 228c33 51 42 63 -51 63v24h226v-24
c-60 0 -91 -9 -126 -63l-170 -269z" />
    <glyph glyph-name="Y" unicode="Y" horiz-adv-x="703" 
d="M418 103c0 -61 13 -79 106 -79v-24h-326v24c94 0 107 18 107 79v249l-178 356c-29 58 -56 68 -117 68v24h311v-24c-93 0 -88 -14 -61 -69l142 -285h3l129 284c25 56 29 70 -64 70v24h223v-24c-61 0 -87 -11 -114 -70l-161 -354v-249z" />
    <glyph glyph-name="Yacute" unicode="&#xdd;" horiz-adv-x="703" 
d="M343 874l67 183h100l-129 -183h-38zM418 103c0 -61 13 -79 106 -79v-24h-326v24c94 0 107 18 107 79v249l-178 356c-29 58 -56 68 -117 68v24h311v-24c-93 0 -88 -14 -61 -69l142 -285h3l129 284c25 56 29 70 -64 70v24h223v-24c-61 0 -87 -11 -114 -70l-161 -354v-249z
" />
    <glyph glyph-name="Ycircumflex" unicode="&#x176;" horiz-adv-x="703" 
d="M386 999l-106 -129h-38l95 184h97l95 -184h-38zM693 800v-24c-61 0 -87 -11 -114 -70l-161 -354v-249c0 -61 13 -79 106 -79v-24h-326v24c94 0 107 18 107 79v249l-178 356c-29 58 -56 68 -117 68v24h311v-24c-93 0 -88 -14 -61 -69l142 -285h3l129 284
c25 56 29 70 -64 70v24h223z" />
    <glyph glyph-name="Ydieresis" unicode="&#x178;" horiz-adv-x="703" 
d="M287 909c-32 0 -59 26 -59 58c0 33 27 59 59 59s59 -26 59 -59c0 -32 -27 -58 -59 -58zM484 909c-32 0 -58 26 -58 58c0 33 26 59 58 59c33 0 59 -26 59 -59c0 -32 -26 -58 -59 -58zM418 103c0 -61 13 -79 106 -79v-24h-326v24c94 0 107 18 107 79v249l-178 356
c-29 58 -56 68 -117 68v24h311v-24c-93 0 -88 -14 -61 -69l142 -285h3l129 284c25 56 29 70 -64 70v24h223v-24c-61 0 -87 -11 -114 -70l-161 -354v-249z" />
    <glyph glyph-name="Ygrave" unicode="&#x1ef2;" horiz-adv-x="703" 
d="M440 874h-38l-129 183h100zM418 103c0 -61 13 -79 106 -79v-24h-326v24c94 0 107 18 107 79v249l-178 356c-29 58 -56 68 -117 68v24h311v-24c-93 0 -88 -14 -61 -69l142 -285h3l129 284c25 56 29 70 -64 70v24h223v-24c-61 0 -87 -11 -114 -70l-161 -354v-249z" />
    <glyph glyph-name="Z" unicode="Z" horiz-adv-x="579" 
d="M543 800l-373 -759h250c61 0 83 26 104 178l24 -3l-27 -191l-3 -25h-488v24l367 735h-219c-61 0 -80 -19 -84 -140l-24 1l5 152l1 28h467z" />
    <glyph glyph-name="Zacute" unicode="&#x179;" horiz-adv-x="579" 
d="M269 874l67 183h100l-129 -183h-38zM543 800l-373 -759h250c61 0 83 26 104 178l24 -3l-27 -191l-3 -25h-488v24l367 735h-219c-61 0 -80 -19 -84 -140l-24 1l5 152l1 28h467z" />
    <glyph glyph-name="Zcaron" unicode="&#x17d;" horiz-adv-x="579" 
d="M263 870l-95 184h38l105 -129l106 129h38l-95 -184h-97zM524 219l24 -3l-27 -191l-3 -25h-488v24l367 735h-219c-61 0 -80 -19 -84 -140l-24 1l5 152l1 28h467l-373 -759h250c61 0 83 26 104 178z" />
    <glyph glyph-name="Zdotaccent" unicode="&#x17b;" horiz-adv-x="579" 
d="M311 909c-32 0 -59 26 -59 58c0 33 27 59 59 59s59 -26 59 -59c0 -32 -27 -58 -59 -58zM543 800l-373 -759h250c61 0 83 26 104 178l24 -3l-27 -191l-3 -25h-488v24l367 735h-219c-61 0 -80 -19 -84 -140l-24 1l5 152l1 28h467z" />
    <glyph glyph-name="a" unicode="a" horiz-adv-x="480" 
d="M447 68h23c-14 -51 -32 -88 -90 -88c-59 0 -85 37 -85 99v4h-2c-19 -31 -63 -103 -150 -103c-70 0 -113 49 -113 126c0 128 112 168 218 216l47 22v47c0 75 -9 122 -76 122c-39 0 -69 -18 -69 -48c0 -24 16 -35 16 -62c0 -24 -21 -40 -53 -40c-35 0 -55 25 -55 69
c0 72 71 116 168 116c100 0 163 -50 163 -159v-321c0 -31 3 -47 22 -47c17 0 24 15 36 47zM189 50c39 0 68 23 106 72v185l-44 -21c-77 -36 -128 -84 -128 -155c0 -54 27 -81 66 -81z" />
    <glyph glyph-name="aacute" unicode="&#xe1;" horiz-adv-x="480" 
d="M360 811l-129 -183h-38l67 183h100zM447 68h23c-14 -51 -32 -88 -90 -88c-59 0 -85 37 -85 99v4h-2c-19 -31 -63 -103 -150 -103c-70 0 -113 49 -113 126c0 128 112 168 218 216l47 22v47c0 75 -9 122 -76 122c-39 0 -69 -18 -69 -48c0 -24 16 -35 16 -62
c0 -24 -21 -40 -53 -40c-35 0 -55 25 -55 69c0 72 71 116 168 116c100 0 163 -50 163 -159v-321c0 -31 3 -47 22 -47c17 0 24 15 36 47zM189 50c39 0 68 23 106 72v185l-44 -21c-77 -36 -128 -84 -128 -155c0 -54 27 -81 66 -81z" />
    <glyph glyph-name="abreve" unicode="&#x103;" horiz-adv-x="480" 
d="M235 650c-79 0 -132 49 -138 143h24c7 -46 51 -69 114 -69s106 23 113 69h24c-6 -94 -59 -143 -137 -143zM447 68h23c-14 -51 -32 -88 -90 -88c-59 0 -85 37 -85 99v4h-2c-19 -31 -63 -103 -150 -103c-70 0 -113 49 -113 126c0 128 112 168 218 216l47 22v47
c0 75 -9 122 -76 122c-39 0 -69 -18 -69 -48c0 -24 16 -35 16 -62c0 -24 -21 -40 -53 -40c-35 0 -55 25 -55 69c0 72 71 116 168 116c100 0 163 -50 163 -159v-321c0 -31 3 -47 22 -47c17 0 24 15 36 47zM189 50c39 0 68 23 106 72v185l-44 -21c-77 -36 -128 -84 -128 -155
c0 -54 27 -81 66 -81z" />
    <glyph glyph-name="acircumflex" unicode="&#xe2;" horiz-adv-x="480" 
d="M235 753l-106 -129h-38l95 184h97l95 -184h-38zM447 68h23c-14 -51 -32 -88 -90 -88c-59 0 -85 37 -85 99v4h-2c-19 -31 -63 -103 -150 -103c-70 0 -113 49 -113 126c0 128 112 168 218 216l47 22v47c0 75 -9 122 -76 122c-39 0 -69 -18 -69 -48c0 -24 16 -35 16 -62
c0 -24 -21 -40 -53 -40c-35 0 -55 25 -55 69c0 72 71 116 168 116c100 0 163 -50 163 -159v-321c0 -31 3 -47 22 -47c17 0 24 15 36 47zM189 50c39 0 68 23 106 72v185l-44 -21c-77 -36 -128 -84 -128 -155c0 -54 27 -81 66 -81z" />
    <glyph glyph-name="adieresis" unicode="&#xe4;" horiz-adv-x="480" 
d="M136 663c-32 0 -59 26 -59 58c0 33 27 59 59 59s59 -26 59 -59c0 -32 -27 -58 -59 -58zM333 663c-32 0 -58 26 -58 58c0 33 26 59 58 59c33 0 59 -26 59 -59c0 -32 -26 -58 -59 -58zM447 68h23c-14 -51 -32 -88 -90 -88c-59 0 -85 37 -85 99v4h-2
c-19 -31 -63 -103 -150 -103c-70 0 -113 49 -113 126c0 128 112 168 218 216l47 22v47c0 75 -9 122 -76 122c-39 0 -69 -18 -69 -48c0 -24 16 -35 16 -62c0 -24 -21 -40 -53 -40c-35 0 -55 25 -55 69c0 72 71 116 168 116c100 0 163 -50 163 -159v-321c0 -31 3 -47 22 -47
c17 0 24 15 36 47zM189 50c39 0 68 23 106 72v185l-44 -21c-77 -36 -128 -84 -128 -155c0 -54 27 -81 66 -81z" />
    <glyph glyph-name="agrave" unicode="&#xe0;" horiz-adv-x="480" 
d="M289 628h-38l-129 183h100zM447 68h23c-14 -51 -32 -88 -90 -88c-59 0 -85 37 -85 99v4h-2c-19 -31 -63 -103 -150 -103c-70 0 -113 49 -113 126c0 128 112 168 218 216l47 22v47c0 75 -9 122 -76 122c-39 0 -69 -18 -69 -48c0 -24 16 -35 16 -62c0 -24 -21 -40 -53 -40
c-35 0 -55 25 -55 69c0 72 71 116 168 116c100 0 163 -50 163 -159v-321c0 -31 3 -47 22 -47c17 0 24 15 36 47zM189 50c39 0 68 23 106 72v185l-44 -21c-77 -36 -128 -84 -128 -155c0 -54 27 -81 66 -81z" />
    <glyph glyph-name="amacron" unicode="&#x101;" horiz-adv-x="480" 
d="M382 734v-41h-295v41h295zM447 68h23c-14 -51 -32 -88 -90 -88c-59 0 -85 37 -85 99v4h-2c-19 -31 -63 -103 -150 -103c-70 0 -113 49 -113 126c0 128 112 168 218 216l47 22v47c0 75 -9 122 -76 122c-39 0 -69 -18 -69 -48c0 -24 16 -35 16 -62c0 -24 -21 -40 -53 -40
c-35 0 -55 25 -55 69c0 72 71 116 168 116c100 0 163 -50 163 -159v-321c0 -31 3 -47 22 -47c17 0 24 15 36 47zM189 50c39 0 68 23 106 72v185l-44 -21c-77 -36 -128 -84 -128 -155c0 -54 27 -81 66 -81z" />
    <glyph glyph-name="aogonek" unicode="&#x105;" horiz-adv-x="480" 
d="M471 -183l6 -24c-34 -27 -71 -44 -118 -44c-59 0 -111 33 -111 97c0 88 86 108 134 134h-2c-59 0 -85 37 -85 99v4h-2c-19 -31 -63 -103 -150 -103c-70 0 -113 49 -113 126c0 128 112 168 218 216l47 22v47c0 75 -9 122 -76 122c-39 0 -69 -18 -69 -48
c0 -24 16 -35 16 -62c0 -24 -21 -40 -53 -40c-35 0 -55 25 -55 69c0 72 71 116 168 116c100 0 163 -50 163 -159v-321c0 -31 3 -47 22 -47c17 0 24 15 36 47h23c-10 -36 -22 -64 -48 -79c-41 -45 -100 -61 -100 -130c0 -39 23 -65 67 -65c24 0 45 6 82 23zM189 50
c39 0 68 23 106 72v185l-44 -21c-77 -36 -128 -84 -128 -155c0 -54 27 -81 66 -81z" />
    <glyph glyph-name="aring" unicode="&#xe5;" horiz-adv-x="480" 
d="M235 627c-60 0 -103 49 -103 103s43 101 103 101c59 0 101 -47 101 -101s-42 -103 -101 -103zM235 794c-44 0 -65 -33 -65 -64c0 -32 21 -65 65 -65c43 0 64 33 64 65c0 31 -21 64 -64 64zM447 68h23c-14 -51 -32 -88 -90 -88c-59 0 -85 37 -85 99v4h-2
c-19 -31 -63 -103 -150 -103c-70 0 -113 49 -113 126c0 128 112 168 218 216l47 22v47c0 75 -9 122 -76 122c-39 0 -69 -18 -69 -48c0 -24 16 -35 16 -62c0 -24 -21 -40 -53 -40c-35 0 -55 25 -55 69c0 72 71 116 168 116c100 0 163 -50 163 -159v-321c0 -31 3 -47 22 -47
c17 0 24 15 36 47zM189 50c39 0 68 23 106 72v185l-44 -21c-77 -36 -128 -84 -128 -155c0 -54 27 -81 66 -81z" />
    <glyph glyph-name="atilde" unicode="&#xe3;" horiz-adv-x="480" 
d="M155 731c-37 0 -48 -27 -54 -69h-24c6 66 23 139 86 139c64 0 96 -69 152 -69c37 0 48 27 53 69h24c-6 -66 -23 -139 -86 -139s-96 69 -151 69zM447 68h23c-14 -51 -32 -88 -90 -88c-59 0 -85 37 -85 99v4h-2c-19 -31 -63 -103 -150 -103c-70 0 -113 49 -113 126
c0 128 112 168 218 216l47 22v47c0 75 -9 122 -76 122c-39 0 -69 -18 -69 -48c0 -24 16 -35 16 -62c0 -24 -21 -40 -53 -40c-35 0 -55 25 -55 69c0 72 71 116 168 116c100 0 163 -50 163 -159v-321c0 -31 3 -47 22 -47c17 0 24 15 36 47zM189 50c39 0 68 23 106 72v185
l-44 -21c-77 -36 -128 -84 -128 -155c0 -54 27 -81 66 -81z" />
    <glyph glyph-name="ae" unicode="&#xe6;" horiz-adv-x="695" 
d="M634 210h24c-21 -154 -87 -230 -180 -230c-74 0 -129 46 -159 126c-35 -55 -90 -126 -176 -126c-70 0 -113 49 -113 123c0 125 112 171 218 219l47 22v47c0 75 -9 122 -73 122c-38 0 -68 -18 -68 -48c0 -24 16 -35 16 -62c0 -24 -21 -40 -53 -40c-35 0 -56 25 -56 69
c0 72 71 116 167 116c61 0 109 -19 136 -61c31 38 73 61 123 61c114 0 170 -110 170 -256h-266v-4c0 -136 41 -234 121 -234c48 0 94 38 122 156zM483 506c-59 0 -85 -72 -91 -173h169c0 96 -18 173 -78 173zM189 50c37 0 74 20 121 84c-10 36 -15 79 -15 126v47l-44 -21
c-77 -36 -128 -84 -128 -155c0 -55 27 -81 66 -81z" />
    <glyph glyph-name="b" unicode="b" horiz-adv-x="529" 
d="M81 59v618c0 65 1 77 -53 50l-11 21l144 72l13 -14v-359h4c44 59 91 101 157 101c92 0 158 -89 158 -246c0 -177 -84 -322 -216 -322c-80 0 -142 41 -196 79zM174 80c26 -29 58 -59 97 -59c87 0 115 132 115 252c0 146 -33 212 -93 212c-52 0 -88 -40 -119 -79v-326z" />
    <glyph glyph-name="c" unicode="c" horiz-adv-x="437" 
d="M292 418c-4 54 -15 88 -51 88c-67 0 -97 -91 -97 -227c0 -146 49 -236 129 -236c52 0 90 41 120 165h24c-21 -152 -83 -228 -185 -228c-124 0 -196 109 -196 274c0 181 87 294 211 294c89 0 154 -65 154 -131c0 -34 -17 -54 -51 -54s-55 18 -58 55z" />
    <glyph glyph-name="cacute" unicode="&#x107;" horiz-adv-x="437" 
d="M216 628l67 183h100l-129 -183h-38zM292 418c-4 54 -15 88 -51 88c-67 0 -97 -91 -97 -227c0 -146 49 -236 129 -236c52 0 90 41 120 165h24c-21 -152 -83 -228 -185 -228c-124 0 -196 109 -196 274c0 181 87 294 211 294c89 0 154 -65 154 -131c0 -34 -17 -54 -51 -54
s-55 18 -58 55z" />
    <glyph glyph-name="ccaron" unicode="&#x10d;" horiz-adv-x="437" 
d="M209 624l-95 184h38l105 -129l106 129h38l-95 -184h-97zM393 208h24c-21 -152 -83 -228 -185 -228c-124 0 -196 109 -196 274c0 181 87 294 211 294c89 0 154 -65 154 -131c0 -34 -17 -54 -51 -54s-55 18 -58 55c-4 54 -15 88 -51 88c-67 0 -97 -91 -97 -227
c0 -146 49 -236 129 -236c52 0 90 41 120 165z" />
    <glyph glyph-name="ccedilla" unicode="&#xe7;" horiz-adv-x="437" 
d="M260 -53c49 -4 102 -27 102 -84c0 -98 -122 -126 -233 -111l6 23c94 -7 153 18 153 79c0 53 -44 68 -103 69l54 57h-7c-124 0 -196 109 -196 274c0 181 87 294 211 294c89 0 154 -65 154 -131c0 -34 -17 -54 -51 -54s-55 18 -58 55c-4 54 -15 88 -51 88
c-67 0 -97 -91 -97 -227c0 -146 49 -236 129 -236c52 0 90 41 120 165h24c-16 -118 -57 -190 -122 -217z" />
    <glyph glyph-name="cdotaccent" unicode="&#x10b;" horiz-adv-x="437" 
d="M258 663c-32 0 -59 26 -59 58c0 33 27 59 59 59s59 -26 59 -59c0 -32 -27 -58 -59 -58zM292 418c-4 54 -15 88 -51 88c-67 0 -97 -91 -97 -227c0 -146 49 -236 129 -236c52 0 90 41 120 165h24c-21 -152 -83 -228 -185 -228c-124 0 -196 109 -196 274
c0 181 87 294 211 294c89 0 154 -65 154 -131c0 -34 -17 -54 -51 -54s-55 18 -58 55z" />
    <glyph glyph-name="d" unicode="d" horiz-adv-x="536" 
d="M504 73l11 -21l-143 -72l-14 14v87h-4c-39 -63 -79 -101 -144 -101c-107 0 -174 102 -174 263c0 172 74 305 200 305c56 0 96 -32 120 -64h2v193c0 65 2 77 -52 50l-11 21l143 72l14 -14v-683c0 -64 -2 -77 52 -50zM358 128v195c0 120 -43 183 -101 183
c-88 0 -113 -112 -113 -233c0 -131 29 -234 104 -234c53 0 82 44 110 89z" />
    <glyph glyph-name="eth" unicode="&#xf0;" horiz-adv-x="565" 
d="M515 300c5 -194 -104 -320 -233 -320c-162 0 -232 148 -232 302c0 132 71 258 205 258c48 0 90 -21 117 -54c-21 58 -51 117 -95 174l-112 -65l-15 26l108 63c-33 39 -74 77 -122 112v24c63 -32 119 -69 167 -111l116 68l15 -26l-108 -63c119 -111 185 -248 189 -388z
M282 21c90 0 131 120 125 280c-1 37 -6 78 -17 122c-31 57 -64 76 -110 76c-93 0 -122 -114 -122 -227c0 -149 34 -251 124 -251z" />
    <glyph glyph-name="dcaron" unicode="&#x10f;" horiz-adv-x="651" 
d="M452 123c0 -64 -2 -77 52 -50l11 -21l-143 -72l-14 14v87h-4c-39 -63 -79 -101 -144 -101c-107 0 -174 102 -174 263c0 172 74 305 200 305c56 0 96 -32 120 -64h2v193c0 65 2 77 -52 50l-11 21l143 72l14 -14v-683zM591 820c28 0 44 -19 44 -56c0 -60 -18 -120 -31 -219
h-23c-13 99 -33 159 -33 219c0 37 16 56 43 56zM358 128v195c0 120 -43 183 -101 183c-88 0 -113 -112 -113 -233c0 -131 29 -234 104 -234c53 0 82 44 110 89z" />
    <glyph glyph-name="dcroat" unicode="&#x111;" horiz-adv-x="617" 
d="M452 623v-500c0 -64 -2 -77 52 -50l11 -21l-143 -72l-14 14v87h-4c-39 -63 -79 -101 -144 -101c-107 0 -174 102 -174 263c0 172 74 305 200 305c56 0 96 -32 120 -64h2v139h-119v30h119v24c0 65 2 77 -52 50l-11 21l143 72l14 -14v-153h115v-30h-115zM358 128v195
c0 120 -43 183 -101 183c-88 0 -113 -112 -113 -233c0 -131 29 -234 104 -234c53 0 82 44 110 89z" />
    <glyph glyph-name="e" unicode="e" horiz-adv-x="436" 
d="M375 210h24c-21 -154 -87 -230 -180 -230c-114 0 -183 109 -183 280c0 154 70 288 192 288c114 0 170 -110 170 -256h-265v-4c0 -136 41 -234 120 -234c48 0 94 38 122 156zM224 506c-59 0 -85 -72 -90 -173h168c0 96 -18 173 -78 173z" />
    <glyph glyph-name="eacute" unicode="&#xe9;" horiz-adv-x="436" 
d="M354 811l-129 -183h-38l67 183h100zM375 210h24c-21 -154 -87 -230 -180 -230c-114 0 -183 109 -183 280c0 154 70 288 192 288c114 0 170 -110 170 -256h-265v-4c0 -136 41 -234 120 -234c48 0 94 38 122 156zM224 506c-59 0 -85 -72 -90 -173h168c0 96 -18 173 -78 173
z" />
    <glyph glyph-name="ecaron" unicode="&#x11b;" horiz-adv-x="436" 
d="M180 624l-95 184h38l105 -129l106 129h38l-95 -184h-97zM375 210h24c-21 -154 -87 -230 -180 -230c-114 0 -183 109 -183 280c0 154 70 288 192 288c114 0 170 -110 170 -256h-265v-4c0 -136 41 -234 120 -234c48 0 94 38 122 156zM224 506c-59 0 -85 -72 -90 -173h168
c0 96 -18 173 -78 173z" />
    <glyph glyph-name="ecircumflex" unicode="&#xea;" horiz-adv-x="436" 
d="M229 753l-106 -129h-38l95 184h97l95 -184h-38zM375 210h24c-21 -154 -87 -230 -180 -230c-114 0 -183 109 -183 280c0 154 70 288 192 288c114 0 170 -110 170 -256h-265v-4c0 -136 41 -234 120 -234c48 0 94 38 122 156zM224 506c-59 0 -85 -72 -90 -173h168
c0 96 -18 173 -78 173z" />
    <glyph glyph-name="edieresis" unicode="&#xeb;" horiz-adv-x="436" 
d="M130 663c-32 0 -59 26 -59 58c0 33 27 59 59 59s59 -26 59 -59c0 -32 -27 -58 -59 -58zM327 663c-32 0 -58 26 -58 58c0 33 26 59 58 59c33 0 59 -26 59 -59c0 -32 -26 -58 -59 -58zM375 210h24c-21 -154 -87 -230 -180 -230c-114 0 -183 109 -183 280
c0 154 70 288 192 288c114 0 170 -110 170 -256h-265v-4c0 -136 41 -234 120 -234c48 0 94 38 122 156zM224 506c-59 0 -85 -72 -90 -173h168c0 96 -18 173 -78 173z" />
    <glyph glyph-name="edotaccent" unicode="&#x117;" horiz-adv-x="436" 
d="M229 663c-32 0 -59 26 -59 58c0 33 27 59 59 59s59 -26 59 -59c0 -32 -27 -58 -59 -58zM375 210h24c-21 -154 -87 -230 -180 -230c-114 0 -183 109 -183 280c0 154 70 288 192 288c114 0 170 -110 170 -256h-265v-4c0 -136 41 -234 120 -234c48 0 94 38 122 156zM224 506
c-59 0 -85 -72 -90 -173h168c0 96 -18 173 -78 173z" />
    <glyph glyph-name="egrave" unicode="&#xe8;" horiz-adv-x="436" 
d="M283 628h-38l-129 183h100zM375 210h24c-21 -154 -87 -230 -180 -230c-114 0 -183 109 -183 280c0 154 70 288 192 288c114 0 170 -110 170 -256h-265v-4c0 -136 41 -234 120 -234c48 0 94 38 122 156zM224 506c-59 0 -85 -72 -90 -173h168c0 96 -18 173 -78 173z" />
    <glyph glyph-name="emacron" unicode="&#x113;" horiz-adv-x="436" 
d="M376 734v-41h-295v41h295zM375 210h24c-21 -154 -87 -230 -180 -230c-114 0 -183 109 -183 280c0 154 70 288 192 288c114 0 170 -110 170 -256h-265v-4c0 -136 41 -234 120 -234c48 0 94 38 122 156zM224 506c-59 0 -85 -72 -90 -173h168c0 96 -18 173 -78 173z" />
    <glyph glyph-name="eogonek" unicode="&#x119;" horiz-adv-x="436" 
d="M242 -206c24 0 45 6 82 23l6 -24c-34 -27 -71 -44 -118 -44c-59 0 -111 33 -111 97c0 89 88 109 135 135c-5 -1 -11 -1 -17 -1c-114 0 -183 109 -183 280c0 154 70 288 192 288c114 0 170 -110 170 -256h-265v-4c0 -136 41 -234 120 -234c48 0 94 38 122 156h24
c-17 -122 -61 -195 -125 -220h2c-42 -46 -101 -62 -101 -131c0 -39 23 -65 67 -65zM224 506c-59 0 -85 -72 -90 -173h168c0 96 -18 173 -78 173z" />
    <glyph glyph-name="f" unicode="f" horiz-adv-x="332" 
d="M286 820c74 0 142 -49 142 -106c0 -37 -25 -55 -53 -55c-29 0 -52 15 -56 53c-1 27 -5 67 -49 67c-61 0 -73 -60 -73 -154v-97h97v-42h-97v-383c0 -64 14 -79 100 -79v-24h-264v24c60 0 70 15 70 79v383h-70v42h70v53c0 165 74 239 183 239z" />
    <glyph glyph-name="g" unicode="g" horiz-adv-x="490" 
d="M250 85c144 0 226 -35 226 -133c0 -102 -119 -192 -273 -192c-103 0 -193 35 -193 121c0 58 43 102 98 143c-37 12 -55 35 -55 71c0 41 32 76 67 109c-43 33 -70 86 -70 153c0 117 82 191 182 191c36 0 71 -10 100 -29c35 17 74 29 111 29c26 0 37 -12 37 -30
s-12 -25 -32 -25c-31 0 -52 -1 -77 -6l-10 7c32 -33 52 -80 52 -137c0 -116 -83 -190 -181 -190c-33 0 -64 8 -90 23c-23 -22 -37 -39 -37 -57c0 -34 41 -48 145 -48zM218 509c-56 -4 -80 -57 -72 -159c9 -102 44 -148 99 -144c56 4 81 58 72 158c-10 101 -42 151 -99 145z
M241 -163c112 0 194 36 194 104c0 56 -61 67 -175 67c-50 0 -91 2 -122 8c-45 -41 -60 -66 -60 -97c0 -50 58 -82 163 -82z" />
    <glyph glyph-name="gbreve" unicode="&#x11f;" horiz-adv-x="490" 
d="M241 650c-79 0 -132 49 -138 143h24c7 -46 51 -69 114 -69s106 23 113 69h24c-6 -94 -59 -143 -137 -143zM250 85c144 0 226 -35 226 -133c0 -102 -119 -192 -273 -192c-103 0 -193 35 -193 121c0 58 43 102 98 143c-37 12 -55 35 -55 71c0 41 32 76 67 109
c-43 33 -70 86 -70 153c0 117 82 191 182 191c36 0 71 -10 100 -29c35 17 74 29 111 29c26 0 37 -12 37 -30s-12 -25 -32 -25c-31 0 -52 -1 -77 -6l-10 7c32 -33 52 -80 52 -137c0 -116 -83 -190 -181 -190c-33 0 -64 8 -90 23c-23 -22 -37 -39 -37 -57
c0 -34 41 -48 145 -48zM218 509c-56 -4 -80 -57 -72 -159c9 -102 44 -148 99 -144c56 4 81 58 72 158c-10 101 -42 151 -99 145zM241 -163c112 0 194 36 194 104c0 56 -61 67 -175 67c-50 0 -91 2 -122 8c-45 -41 -60 -66 -60 -97c0 -50 58 -82 163 -82z" />
    <glyph glyph-name="uni0123" unicode="&#x123;" horiz-adv-x="490" 
d="M245 663c-37 0 -62 27 -62 69c0 47 30 86 103 104v-24c-29 -7 -64 -26 -64 -53c0 -7 2 -15 10 -15s15 10 32 10s33 -16 33 -43c0 -32 -24 -48 -52 -48zM250 85c144 0 226 -35 226 -133c0 -102 -119 -192 -273 -192c-103 0 -193 35 -193 121c0 58 43 102 98 143
c-37 12 -55 35 -55 71c0 41 32 76 67 109c-43 33 -70 86 -70 153c0 117 82 191 182 191c36 0 71 -10 100 -29c35 17 74 29 111 29c26 0 37 -12 37 -30s-12 -25 -32 -25c-31 0 -52 -1 -77 -6l-10 7c32 -33 52 -80 52 -137c0 -116 -83 -190 -181 -190c-33 0 -64 8 -90 23
c-23 -22 -37 -39 -37 -57c0 -34 41 -48 145 -48zM218 509c-56 -4 -80 -57 -72 -159c9 -102 44 -148 99 -144c56 4 81 58 72 158c-10 101 -42 151 -99 145zM241 -163c112 0 194 36 194 104c0 56 -61 67 -175 67c-50 0 -91 2 -122 8c-45 -41 -60 -66 -60 -97
c0 -50 58 -82 163 -82z" />
    <glyph glyph-name="gdotaccent" unicode="&#x121;" horiz-adv-x="490" 
d="M241 663c-32 0 -59 26 -59 58c0 33 27 59 59 59s59 -26 59 -59c0 -32 -27 -58 -59 -58zM250 85c144 0 226 -35 226 -133c0 -102 -119 -192 -273 -192c-103 0 -193 35 -193 121c0 58 43 102 98 143c-37 12 -55 35 -55 71c0 41 32 76 67 109c-43 33 -70 86 -70 153
c0 117 82 191 182 191c36 0 71 -10 100 -29c35 17 74 29 111 29c26 0 37 -12 37 -30s-12 -25 -32 -25c-31 0 -52 -1 -77 -6l-10 7c32 -33 52 -80 52 -137c0 -116 -83 -190 -181 -190c-33 0 -64 8 -90 23c-23 -22 -37 -39 -37 -57c0 -34 41 -48 145 -48zM218 509
c-56 -4 -80 -57 -72 -159c9 -102 44 -148 99 -144c56 4 81 58 72 158c-10 101 -42 151 -99 145zM241 -163c112 0 194 36 194 104c0 56 -61 67 -175 67c-50 0 -91 2 -122 8c-45 -41 -60 -66 -60 -97c0 -50 58 -82 163 -82z" />
    <glyph glyph-name="h" unicode="h" horiz-adv-x="548" 
d="M191 806v-361h3c38 55 90 103 156 103c74 0 107 -52 107 -144v-301c0 -64 10 -79 71 -79v-24h-230v24c56 0 65 15 65 79v301c0 52 -16 80 -55 80s-81 -34 -117 -81v-300c0 -64 9 -79 65 -79v-24h-230v24c61 0 71 15 71 79v574c0 65 1 77 -55 49l-11 21l75 38l71 35z" />
    <glyph glyph-name="hbar" unicode="&#x127;" horiz-adv-x="621" 
d="M465 103c0 -64 9 -79 70 -79v-24h-229v24c56 0 65 15 65 79v301c0 52 -16 80 -55 80c-40 0 -81 -34 -118 -81v-300c0 -64 9 -79 65 -79v-24h-229v24c61 0 70 15 70 79v520h-71v30h71v24c0 65 2 77 -55 49l-10 21l145 73l14 -14v-153h163v-30h-163v-178h3
c39 55 90 103 157 103c73 0 107 -52 107 -144v-301z" />
    <glyph glyph-name="i" unicode="i" horiz-adv-x="281" 
d="M139 703c-32 0 -58 26 -58 58c0 33 26 59 58 59c33 0 59 -26 59 -59c0 -32 -26 -58 -59 -58zM191 103c0 -64 9 -79 70 -79v-24h-235v24c61 0 71 15 71 79v301c0 65 1 78 -55 50l-11 21l75 37l71 36l14 -14v-431z" />
    <glyph glyph-name="dotlessi" unicode="&#x131;" horiz-adv-x="281" 
d="M191 103c0 -64 9 -79 70 -79v-24h-235v24c61 0 71 15 71 79v301c0 65 1 78 -55 50l-11 21l75 37l71 36l14 -14v-431z" />
    <glyph glyph-name="iacute" unicode="&#xed;" horiz-adv-x="281" 
d="M86 628l67 183h100l-129 -183h-38zM191 103c0 -64 9 -79 70 -79v-24h-235v24c61 0 71 15 71 79v301c0 65 1 78 -55 50l-11 21l75 37l71 36l14 -14v-431z" />
    <glyph glyph-name="icircumflex" unicode="&#xee;" horiz-adv-x="281" 
d="M233 624l-105 129l-106 -129h-38l95 184h97l95 -184h-38zM191 103c0 -64 9 -79 70 -79v-24h-235v24c61 0 71 15 71 79v301c0 65 1 78 -55 50l-11 21l75 37l71 36l14 -14v-431z" />
    <glyph glyph-name="idieresis" unicode="&#xef;" horiz-adv-x="281" 
d="M29 663c-32 0 -59 26 -59 58c0 33 27 59 59 59s59 -26 59 -59c0 -32 -27 -58 -59 -58zM226 663c-32 0 -58 26 -58 58c0 33 26 59 58 59c33 0 59 -26 59 -59c0 -32 -26 -58 -59 -58zM191 103c0 -64 9 -79 70 -79v-24h-235v24c61 0 71 15 71 79v301c0 65 1 78 -55 50
l-11 21l75 37l71 36l14 -14v-431z" />
    <glyph glyph-name="i.loclTRK" horiz-adv-x="281" 
d="M128 663c-32 0 -59 26 -59 58c0 33 27 59 59 59s59 -26 59 -59c0 -32 -27 -58 -59 -58zM191 103c0 -64 9 -79 70 -79v-24h-235v24c61 0 71 15 71 79v301c0 65 1 78 -55 50l-11 21l75 37l71 36l14 -14v-431z" />
    <glyph glyph-name="igrave" unicode="&#xec;" horiz-adv-x="281" 
d="M183 628h-38l-129 183h100zM191 103c0 -64 9 -79 70 -79v-24h-235v24c61 0 71 15 71 79v301c0 65 1 78 -55 50l-11 21l75 37l71 36l14 -14v-431z" />
    <glyph glyph-name="imacron" unicode="&#x12b;" horiz-adv-x="281" 
d="M-20 734h295v-41h-295v41zM191 103c0 -64 9 -79 70 -79v-24h-235v24c61 0 71 15 71 79v301c0 65 1 78 -55 50l-11 21l75 37l71 36l14 -14v-431z" />
    <glyph glyph-name="iogonek" unicode="&#x12f;" horiz-adv-x="281" 
d="M128 663c-32 0 -59 26 -59 58c0 33 27 59 59 59s59 -26 59 -59c0 -32 -27 -58 -59 -58zM269 -173l6 -24c-34 -27 -71 -44 -118 -44c-59 0 -111 33 -111 97c0 99 109 112 149 144h-169v24c61 0 71 15 71 79v301c0 65 1 78 -55 50l-11 21l75 37l71 36l14 -14v-431
c0 -64 9 -79 70 -79v-24h-40c-42 -46 -101 -62 -101 -131c0 -39 23 -65 67 -65c24 0 45 6 82 23z" />
    <glyph glyph-name="j" unicode="j" horiz-adv-x="270" 
d="M148 703c-33 0 -59 26 -59 58c0 33 26 59 59 59c32 0 58 -26 58 -59c0 -32 -26 -58 -58 -58zM186 540l14 -14v-570c0 -131 -53 -196 -139 -196c-77 0 -124 37 -124 87c0 31 24 48 54 48c31 0 52 -16 55 -51c2 -24 0 -43 24 -43c33 0 36 60 36 145v451c0 65 2 77 -55 49
l-10 21z" />
    <glyph glyph-name="k" unicode="k" horiz-adv-x="556" 
d="M191 103c0 -64 9 -79 70 -79v-24h-235v24c61 0 71 15 71 79v574c0 65 1 77 -55 49l-11 21l75 38l71 35l14 -14v-703zM446 90c32 -56 58 -66 100 -66v-24h-246v24c68 0 60 10 29 66l-118 212l135 149c44 48 58 53 -15 53v24h189v-24c-43 0 -75 -5 -118 -54l-96 -108z" />
    <glyph glyph-name="uni0137" unicode="&#x137;" horiz-adv-x="556" 
d="M191 103c0 -64 9 -79 70 -79v-24h-235v24c61 0 71 15 71 79v574c0 65 1 77 -55 49l-11 21l75 38l71 35l14 -14v-703zM446 90c32 -56 58 -66 100 -66v-24h-246v24c68 0 60 10 29 66l-118 212l135 149c44 48 58 53 -15 53v24h189v-24c-43 0 -75 -5 -118 -54l-96 -108z
M268 -165c-17 0 -33 16 -33 43c0 32 24 48 52 48c37 0 62 -27 62 -69c0 -47 -30 -86 -103 -104v24c29 7 64 26 64 53c0 7 -2 15 -10 15s-15 -10 -32 -10z" />
    <glyph glyph-name="l" unicode="l" horiz-adv-x="281" 
d="M191 103c0 -64 9 -79 70 -79v-24h-235v24c61 0 71 15 71 79v574c0 65 1 77 -55 49l-11 21l75 38l71 35l14 -14v-703z" />
    <glyph glyph-name="lacute" unicode="&#x13a;" horiz-adv-x="281" 
d="M96 883l67 183h100l-129 -183h-38zM191 103c0 -64 9 -79 70 -79v-24h-235v24c61 0 71 15 71 79v574c0 65 1 77 -55 49l-11 21l75 38l71 35l14 -14v-703z" />
    <glyph glyph-name="lcaron" unicode="&#x13e;" horiz-adv-x="388" 
d="M191 103c0 -64 9 -79 70 -79v-24h-235v24c61 0 71 15 71 79v574c0 65 1 77 -55 49l-11 21l75 38l71 35l14 -14v-703zM286 764c0 37 15 56 43 56c27 0 43 -19 43 -56c0 -60 -18 -120 -30 -219h-24c-13 99 -32 159 -32 219z" />
    <glyph glyph-name="uni013C" unicode="&#x13c;" horiz-adv-x="281" 
d="M191 103c0 -64 9 -79 70 -79v-24h-235v24c61 0 71 15 71 79v574c0 65 1 77 -55 49l-11 21l75 38l71 35l14 -14v-703zM119 -165c-17 0 -33 16 -33 43c0 32 24 48 52 48c37 0 62 -27 62 -69c0 -47 -30 -86 -103 -104v24c29 7 64 26 64 53c0 7 -2 15 -10 15s-15 -10 -32 -10
z" />
    <glyph glyph-name="lslash" unicode="&#x142;" horiz-adv-x="328" 
d="M205 103c0 -64 10 -79 70 -79v-24h-234v24c60 0 70 15 70 79v265l-74 -43l-15 26l89 52v274c0 65 2 77 -55 49l-10 21l74 38l71 35l14 -14v-349l86 50l15 -26l-101 -59v-319z" />
    <glyph glyph-name="m" unicode="m" horiz-adv-x="806" 
d="M715 103c0 -64 10 -79 71 -79v-24h-227v24c54 0 63 15 63 79v304c0 53 -15 78 -51 78c-41 0 -81 -35 -118 -82v-300c0 -64 9 -79 63 -79v-24h-219v24c54 0 63 15 63 79v304c0 53 -15 78 -51 78c-41 0 -82 -35 -118 -82v-300c0 -64 8 -79 62 -79v-24h-227v24
c61 0 71 15 71 79v301c0 65 1 78 -55 50l-11 21l75 37l71 36l14 -14v-89h3c38 55 86 103 152 103c62 0 95 -37 104 -103h3c41 55 93 103 159 103c74 0 103 -52 103 -144v-301z" />
    <glyph glyph-name="n" unicode="n" horiz-adv-x="548" 
d="M191 534v-89h3c38 55 90 103 156 103c74 0 107 -52 107 -144v-301c0 -64 10 -79 71 -79v-24h-230v24c56 0 65 15 65 79v301c0 52 -16 80 -55 80s-81 -34 -117 -81v-300c0 -64 9 -79 65 -79v-24h-230v24c61 0 71 15 71 79v301c0 65 1 78 -55 50l-11 21l75 37l71 36z" />
    <glyph glyph-name="nacute" unicode="&#x144;" horiz-adv-x="548" 
d="M238 628l67 183h100l-129 -183h-38zM191 534v-89h3c38 55 90 103 156 103c74 0 107 -52 107 -144v-301c0 -64 10 -79 71 -79v-24h-230v24c56 0 65 15 65 79v301c0 52 -16 80 -55 80s-81 -34 -117 -81v-300c0 -64 9 -79 65 -79v-24h-230v24c61 0 71 15 71 79v301
c0 65 1 78 -55 50l-11 21l75 37l71 36z" />
    <glyph glyph-name="ncaron" unicode="&#x148;" horiz-adv-x="548" 
d="M231 624l-95 184h38l105 -129l106 129h38l-95 -184h-97zM457 103c0 -64 10 -79 71 -79v-24h-230v24c56 0 65 15 65 79v301c0 52 -16 80 -55 80s-81 -34 -117 -81v-300c0 -64 9 -79 65 -79v-24h-230v24c61 0 71 15 71 79v301c0 65 1 78 -55 50l-11 21l75 37l71 36l14 -14
v-89h3c38 55 90 103 156 103c74 0 107 -52 107 -144v-301z" />
    <glyph glyph-name="uni0146" unicode="&#x146;" horiz-adv-x="548" 
d="M191 534v-89h3c38 55 90 103 156 103c74 0 107 -52 107 -144v-301c0 -64 10 -79 71 -79v-24h-230v24c56 0 65 15 65 79v301c0 52 -16 80 -55 80s-81 -34 -117 -81v-300c0 -64 9 -79 65 -79v-24h-230v24c61 0 71 15 71 79v301c0 65 1 78 -55 50l-11 21l75 37l71 36z
M256 -165c-17 0 -33 16 -33 43c0 32 24 48 52 48c37 0 62 -27 62 -69c0 -47 -30 -86 -103 -104v24c29 7 64 26 64 53c0 7 -2 15 -10 15s-15 -10 -32 -10z" />
    <glyph glyph-name="eng" unicode="&#x14b;" horiz-adv-x="516" 
d="M376 548c84 0 120 -58 120 -157v-416c0 -144 -44 -215 -157 -215c-83 0 -135 37 -135 93c0 31 24 48 54 48s51 -16 55 -51c2 -30 0 -49 30 -49c55 0 57 60 57 145v455c0 59 -21 90 -68 90c-45 0 -96 -41 -139 -100v-288c0 -64 9 -79 63 -79v-24h-230v24c61 0 71 15 71 79
v301c0 65 1 78 -56 50l-10 22l75 36l73 36l14 -14v-102h3c45 62 107 116 180 116z" />
    <glyph glyph-name="ntilde" unicode="&#xf1;" horiz-adv-x="548" 
d="M351 662c-63 0 -96 69 -151 69c-37 0 -48 -27 -54 -69h-24c6 66 23 139 86 139c64 0 96 -69 152 -69c37 0 48 27 53 69h24c-6 -66 -23 -139 -86 -139zM191 534v-89h3c38 55 90 103 156 103c74 0 107 -52 107 -144v-301c0 -64 10 -79 71 -79v-24h-230v24c56 0 65 15 65 79
v301c0 52 -16 80 -55 80s-81 -34 -117 -81v-300c0 -64 9 -79 65 -79v-24h-230v24c61 0 71 15 71 79v301c0 65 1 78 -55 50l-11 21l75 37l71 36z" />
    <glyph glyph-name="o" unicode="o" horiz-adv-x="523" 
d="M262 -20c-140 0 -226 122 -226 284c0 161 86 284 226 284c139 0 225 -123 225 -284c0 -162 -86 -284 -225 -284zM283 22c76 7 109 92 96 252c-14 160 -62 238 -139 231c-76 -7 -109 -92 -96 -252c15 -159 62 -237 139 -231z" />
    <glyph glyph-name="oacute" unicode="&#xf3;" horiz-adv-x="523" 
d="M220 628l67 183h100l-129 -183h-38zM262 -20c-140 0 -226 122 -226 284c0 161 86 284 226 284c139 0 225 -123 225 -284c0 -162 -86 -284 -225 -284zM283 22c76 7 109 92 96 252c-14 160 -62 238 -139 231c-76 -7 -109 -92 -96 -252c15 -159 62 -237 139 -231z" />
    <glyph glyph-name="ocircumflex" unicode="&#xf4;" horiz-adv-x="523" 
d="M262 753l-106 -129h-38l95 184h97l95 -184h-38zM262 548c139 0 225 -123 225 -284c0 -162 -86 -284 -225 -284c-140 0 -226 122 -226 284c0 161 86 284 226 284zM283 22c76 7 109 92 96 252c-14 160 -62 238 -139 231c-76 -7 -109 -92 -96 -252c15 -159 62 -237 139 -231
z" />
    <glyph glyph-name="odieresis" unicode="&#xf6;" horiz-adv-x="523" 
d="M163 663c-32 0 -59 26 -59 58c0 33 27 59 59 59s59 -26 59 -59c0 -32 -27 -58 -59 -58zM360 663c-32 0 -58 26 -58 58c0 33 26 59 58 59c33 0 59 -26 59 -59c0 -32 -26 -58 -59 -58zM262 -20c-140 0 -226 122 -226 284c0 161 86 284 226 284c139 0 225 -123 225 -284
c0 -162 -86 -284 -225 -284zM283 22c76 7 109 92 96 252c-14 160 -62 238 -139 231c-76 -7 -109 -92 -96 -252c15 -159 62 -237 139 -231z" />
    <glyph glyph-name="ograve" unicode="&#xf2;" horiz-adv-x="523" 
d="M316 628h-38l-129 183h100zM262 -20c-140 0 -226 122 -226 284c0 161 86 284 226 284c139 0 225 -123 225 -284c0 -162 -86 -284 -225 -284zM283 22c76 7 109 92 96 252c-14 160 -62 238 -139 231c-76 -7 -109 -92 -96 -252c15 -159 62 -237 139 -231z" />
    <glyph glyph-name="ohungarumlaut" unicode="&#x151;" horiz-adv-x="523" 
d="M159 628l53 183h72l-95 -183h-30zM263 628l61 183h71l-102 -183h-30zM262 -20c-140 0 -226 122 -226 284c0 161 86 284 226 284c139 0 225 -123 225 -284c0 -162 -86 -284 -225 -284zM283 22c76 7 109 92 96 252c-14 160 -62 238 -139 231c-76 -7 -109 -92 -96 -252
c15 -159 62 -237 139 -231z" />
    <glyph glyph-name="omacron" unicode="&#x14d;" horiz-adv-x="523" 
d="M114 734h295v-41h-295v41zM262 -20c-140 0 -226 122 -226 284c0 161 86 284 226 284c139 0 225 -123 225 -284c0 -162 -86 -284 -225 -284zM283 22c76 7 109 92 96 252c-14 160 -62 238 -139 231c-76 -7 -109 -92 -96 -252c15 -159 62 -237 139 -231z" />
    <glyph glyph-name="oslash" unicode="&#xf8;" horiz-adv-x="523" 
d="M410 486c49 -51 77 -130 77 -222c0 -162 -86 -284 -225 -284c-47 0 -88 14 -122 39l-45 -78l-29 17l48 83c-50 51 -78 131 -78 223c0 161 86 284 226 284c47 0 89 -14 122 -39l45 77l29 -16zM144 253c5 -48 12 -88 22 -122l176 305c-24 50 -58 73 -102 69
c-76 -7 -109 -92 -96 -252zM283 22c76 7 109 92 96 252c-4 48 -11 89 -22 122l-175 -305c24 -49 58 -72 101 -69z" />
    <glyph glyph-name="otilde" unicode="&#xf5;" horiz-adv-x="523" 
d="M333 662c-63 0 -96 69 -151 69c-37 0 -48 -27 -54 -69h-24c6 66 23 139 86 139c64 0 96 -69 152 -69c37 0 48 27 53 69h24c-6 -66 -23 -139 -86 -139zM262 -20c-140 0 -226 122 -226 284c0 161 86 284 226 284c139 0 225 -123 225 -284c0 -162 -86 -284 -225 -284z
M283 22c76 7 109 92 96 252c-14 160 -62 238 -139 231c-76 -7 -109 -92 -96 -252c15 -159 62 -237 139 -231z" />
    <glyph glyph-name="oe" unicode="&#x153;" horiz-adv-x="828" 
d="M767 210h24c-22 -154 -88 -230 -180 -230c-74 0 -129 45 -158 124c-37 -76 -104 -124 -191 -124c-140 0 -226 122 -226 284c0 161 86 284 226 284c90 0 157 -51 194 -130c31 77 87 130 164 130c114 0 170 -110 170 -256h-266v-4c0 -136 41 -234 121 -234
c47 0 93 38 122 156zM283 22c76 7 109 92 96 252c-14 160 -62 238 -139 231c-76 -7 -109 -92 -96 -252c15 -159 62 -237 139 -231zM616 506c-59 0 -85 -72 -91 -173h168c0 96 -17 173 -77 173z" />
    <glyph glyph-name="p" unicode="p" horiz-adv-x="539" 
d="M349 548c109 0 154 -116 154 -253c0 -174 -80 -315 -189 -315c-53 0 -96 25 -128 77h-2v-174c0 -65 10 -79 71 -79v-24h-235v24c61 0 71 14 71 79v521c0 65 1 78 -53 51l-11 21l144 72l13 -14v-103h4c43 73 95 117 161 117zM294 21c79 0 102 124 102 245
c0 145 -23 223 -88 223c-49 0 -96 -47 -124 -96v-195c0 -112 48 -177 110 -177z" />
    <glyph glyph-name="thorn" unicode="&#xfe;" horiz-adv-x="571" 
d="M361 548c114 0 174 -116 174 -253c0 -174 -89 -315 -216 -315c-55 0 -97 22 -126 77h-2v-174c0 -65 9 -79 70 -79v-24h-235v24c61 0 71 14 71 79v794c0 65 2 77 -53 50l-10 21l143 72l14 -14v-381h4c42 79 94 123 166 123zM298 21c99 0 130 124 130 245
c0 146 -35 223 -105 223c-62 0 -104 -47 -132 -102v-189c0 -112 44 -177 107 -177z" />
    <glyph glyph-name="q" unicode="q" horiz-adv-x="539" 
d="M384 505l51 43l14 -14v-651c0 -65 10 -79 70 -79v-24h-234v24c60 0 70 14 70 79v198h-4c-43 -59 -84 -101 -151 -101c-97 0 -164 92 -164 249c0 177 66 319 216 319c45 0 86 -15 132 -43zM355 434c-21 45 -48 72 -91 72c-98 0 -120 -127 -120 -248
c0 -151 37 -215 102 -215c49 0 78 40 109 79v312z" />
    <glyph glyph-name="r" unicode="r" horiz-adv-x="418" 
d="M328 548c43 0 74 -24 74 -61c0 -30 -19 -56 -53 -56c-28 0 -40 12 -49 28c-7 12 -13 17 -23 17c-30 0 -53 -31 -86 -89v-284c0 -64 14 -79 105 -79v-24h-270v24c61 0 71 15 71 79v301c0 65 1 78 -55 50l-11 21l75 37l71 36l14 -14v-90h3c26 47 69 104 134 104z" />
    <glyph glyph-name="racute" unicode="&#x155;" horiz-adv-x="418" 
d="M351 811l-129 -183h-38l67 183h100zM328 548c43 0 74 -24 74 -61c0 -30 -19 -56 -53 -56c-28 0 -40 12 -49 28c-7 12 -13 17 -23 17c-30 0 -53 -31 -86 -89v-284c0 -64 14 -79 105 -79v-24h-270v24c61 0 71 15 71 79v301c0 65 1 78 -55 50l-11 21l75 37l71 36l14 -14v-90
h3c26 47 69 104 134 104z" />
    <glyph glyph-name="rcaron" unicode="&#x159;" horiz-adv-x="418" 
d="M178 624l-95 184h38l105 -129l106 129h38l-95 -184h-97zM328 548c43 0 74 -24 74 -61c0 -30 -19 -56 -53 -56c-28 0 -40 12 -49 28c-7 12 -13 17 -23 17c-30 0 -53 -31 -86 -89v-284c0 -64 14 -79 105 -79v-24h-270v24c61 0 71 15 71 79v301c0 65 1 78 -55 50l-11 21
l75 37l71 36l14 -14v-90h3c26 47 69 104 134 104z" />
    <glyph glyph-name="uni0157" unicode="&#x157;" horiz-adv-x="418" 
d="M328 548c43 0 74 -24 74 -61c0 -30 -19 -56 -53 -56c-28 0 -40 12 -49 28c-7 12 -13 17 -23 17c-30 0 -53 -31 -86 -89v-284c0 -64 14 -79 105 -79v-24h-270v24c61 0 71 15 71 79v301c0 65 1 78 -55 50l-11 21l75 37l71 36l14 -14v-90h3c26 47 69 104 134 104zM154 -74
c37 0 62 -27 62 -69c0 -47 -30 -86 -103 -104v24c29 7 64 26 64 53c0 7 -2 15 -10 15s-15 -10 -32 -10s-33 16 -33 43c0 32 24 48 52 48z" />
    <glyph glyph-name="s" unicode="s" horiz-adv-x="390" 
d="M51 -10v201h23c14 -97 66 -170 145 -170c43 0 63 26 63 67c0 58 -44 95 -112 155s-120 103 -120 180c0 74 53 125 131 125c71 0 97 -40 114 -40c12 0 12 10 12 30h23v-165h-23c-14 74 -58 133 -122 133c-42 0 -57 -29 -57 -53c0 -46 38 -79 98 -131
c91 -78 134 -121 134 -205c0 -94 -65 -137 -138 -137c-79 0 -111 40 -132 40c-13 0 -16 -10 -16 -30h-23z" />
    <glyph glyph-name="sacute" unicode="&#x15b;" horiz-adv-x="390" 
d="M166 628l67 183h100l-129 -183h-38zM51 -10v201h23c14 -97 66 -170 145 -170c43 0 63 26 63 67c0 58 -44 95 -112 155s-120 103 -120 180c0 74 53 125 131 125c71 0 97 -40 114 -40c12 0 12 10 12 30h23v-165h-23c-14 74 -58 133 -122 133c-42 0 -57 -29 -57 -53
c0 -46 38 -79 98 -131c91 -78 134 -121 134 -205c0 -94 -65 -137 -138 -137c-79 0 -111 40 -132 40c-13 0 -16 -10 -16 -30h-23z" />
    <glyph glyph-name="scaron" unicode="&#x161;" horiz-adv-x="390" 
d="M159 624l-95 184h38l105 -129l106 129h38l-95 -184h-97zM226 322c91 -78 134 -121 134 -205c0 -94 -65 -137 -138 -137c-79 0 -111 40 -132 40c-13 0 -16 -10 -16 -30h-23v201h23c14 -97 66 -170 145 -170c43 0 63 26 63 67c0 58 -44 95 -112 155s-120 103 -120 180
c0 74 53 125 131 125c71 0 97 -40 114 -40c12 0 12 10 12 30h23v-165h-23c-14 74 -58 133 -122 133c-42 0 -57 -29 -57 -53c0 -46 38 -79 98 -131z" />
    <glyph glyph-name="scedilla" unicode="&#x15f;" horiz-adv-x="390" 
d="M244 -53c49 -4 102 -27 102 -84c0 -98 -122 -126 -233 -111l6 23c94 -7 153 18 153 79c0 53 -44 68 -103 69l54 57h-1c-79 0 -111 40 -132 40c-13 0 -16 -10 -16 -30h-23v201h23c14 -97 66 -170 145 -170c43 0 63 26 63 67c0 58 -44 95 -112 155s-120 103 -120 180
c0 74 53 125 131 125c71 0 97 -40 114 -40c12 0 12 10 12 30h23v-165h-23c-14 74 -58 133 -122 133c-42 0 -57 -29 -57 -53c0 -46 38 -79 98 -131c91 -78 134 -121 134 -205c0 -69 -35 -111 -83 -128z" />
    <glyph glyph-name="uni0219" unicode="&#x219;" horiz-adv-x="390" 
d="M51 -10v201h23c14 -97 66 -170 145 -170c43 0 63 26 63 67c0 58 -44 95 -112 155s-120 103 -120 180c0 74 53 125 131 125c71 0 97 -40 114 -40c12 0 12 10 12 30h23v-165h-23c-14 74 -58 133 -122 133c-42 0 -57 -29 -57 -53c0 -46 38 -79 98 -131
c91 -78 134 -121 134 -205c0 -94 -65 -137 -138 -137c-79 0 -111 40 -132 40c-13 0 -16 -10 -16 -30h-23zM188 -165c-17 0 -33 16 -33 43c0 32 24 48 52 48c37 0 62 -27 62 -69c0 -47 -30 -86 -103 -104v24c29 7 64 26 64 53c0 7 -2 15 -10 15s-15 -10 -32 -10z" />
    <glyph glyph-name="germandbls" unicode="&#xdf;" horiz-adv-x="595" 
d="M43 0v24c60 0 70 15 70 79v425h-63v23c49 0 63 11 63 58c0 156 91 211 205 211c118 0 194 -60 194 -163c0 -79 -46 -146 -145 -187v-3c96 -21 198 -118 198 -263c0 -132 -61 -224 -161 -224c-81 0 -108 39 -108 78c0 25 17 45 45 45c29 0 43 -21 40 -49
c-2 -27 -7 -44 18 -44c42 0 58 81 58 183c0 165 -79 249 -181 249v23c79 39 129 110 129 188c0 74 -30 126 -93 126c-69 0 -105 -55 -105 -162v-514c0 -64 10 -79 70 -79v-24h-234z" />
    <glyph glyph-name="t" unicode="t" horiz-adv-x="355" 
d="M312 220h23c-1 -156 -22 -240 -117 -240c-79 0 -126 51 -126 185v321h-78v42c92 3 131 39 140 143h31v-143h116v-42h-116v-289c0 -98 6 -158 61 -158c46 0 64 49 66 181z" />
    <glyph glyph-name="tbar" unicode="&#x167;" horiz-adv-x="362" 
d="M312 220h23c-1 -156 -22 -240 -117 -240c-79 0 -126 51 -126 185v178h-82v30h82v113h-78v42c92 3 131 39 140 143h31v-143h116v-42h-116v-113h114v-30h-114v-146c0 -98 6 -158 61 -158c46 0 64 49 66 181z" />
    <glyph glyph-name="tcaron" unicode="&#x165;" horiz-adv-x="379" 
d="M242 588l67 183h100l-129 -183h-38zM312 220h23c-1 -156 -22 -240 -117 -240c-79 0 -126 51 -126 185v321h-78v42c92 3 131 39 140 143h31v-143h116v-42h-116v-289c0 -98 6 -158 61 -158c46 0 64 49 66 181z" />
    <glyph glyph-name="uni0163" unicode="&#x163;" horiz-adv-x="355" 
d="M228 -53c49 -4 102 -27 102 -84c0 -98 -122 -126 -233 -111l6 23c94 -7 153 18 153 79c0 53 -44 68 -103 69l54 57c-72 5 -115 57 -115 185v321h-78v42c92 3 131 39 140 143h31v-143h116v-42h-116v-289c0 -98 6 -158 61 -158c46 0 64 49 66 181h23
c-1 -131 -16 -211 -76 -233z" />
    <glyph glyph-name="uni021B" unicode="&#x21b;" horiz-adv-x="355" 
d="M312 220h23c-1 -156 -22 -240 -117 -240c-79 0 -126 51 -126 185v321h-78v42c92 3 131 39 140 143h31v-143h116v-42h-116v-289c0 -98 6 -158 61 -158c46 0 64 49 66 181zM172 -165c-17 0 -33 16 -33 43c0 32 24 48 52 48c37 0 62 -27 62 -69c0 -47 -30 -86 -103 -104v24
c29 7 64 26 64 53c0 7 -2 15 -10 15s-15 -10 -32 -10z" />
    <glyph glyph-name="u" unicode="u" horiz-adv-x="527" 
d="M353 -6v89h-3c-39 -56 -86 -103 -153 -103c-73 0 -107 51 -107 144v293c0 65 -3 77 -64 61l-6 23l80 22l70 18l14 -13v-404c0 -52 16 -81 55 -81c40 0 77 34 114 81v293c0 65 -4 77 -65 61l-6 23l81 22l70 18l14 -13v-405c0 -64 -2 -77 52 -50l11 -21l-143 -72z" />
    <glyph glyph-name="uacute" unicode="&#xfa;" horiz-adv-x="527" 
d="M223 628l67 183h100l-129 -183h-38zM353 -6v89h-3c-39 -56 -86 -103 -153 -103c-73 0 -107 51 -107 144v293c0 65 -3 77 -64 61l-6 23l80 22l70 18l14 -13v-404c0 -52 16 -81 55 -81c40 0 77 34 114 81v293c0 65 -4 77 -65 61l-6 23l81 22l70 18l14 -13v-405
c0 -64 -2 -77 52 -50l11 -21l-143 -72z" />
    <glyph glyph-name="ucircumflex" unicode="&#xfb;" horiz-adv-x="527" 
d="M265 753l-106 -129h-38l95 184h97l95 -184h-38zM499 73l11 -21l-143 -72l-14 14v89h-3c-39 -56 -86 -103 -153 -103c-73 0 -107 51 -107 144v293c0 65 -3 77 -64 61l-6 23l80 22l70 18l14 -13v-404c0 -52 16 -81 55 -81c40 0 77 34 114 81v293c0 65 -4 77 -65 61l-6 23
l81 22l70 18l14 -13v-405c0 -64 -2 -77 52 -50z" />
    <glyph glyph-name="udieresis" unicode="&#xfc;" horiz-adv-x="527" 
d="M166 663c-32 0 -59 26 -59 58c0 33 27 59 59 59s59 -26 59 -59c0 -32 -27 -58 -59 -58zM363 663c-32 0 -58 26 -58 58c0 33 26 59 58 59c33 0 59 -26 59 -59c0 -32 -26 -58 -59 -58zM353 -6v89h-3c-39 -56 -86 -103 -153 -103c-73 0 -107 51 -107 144v293
c0 65 -3 77 -64 61l-6 23l80 22l70 18l14 -13v-404c0 -52 16 -81 55 -81c40 0 77 34 114 81v293c0 65 -4 77 -65 61l-6 23l81 22l70 18l14 -13v-405c0 -64 -2 -77 52 -50l11 -21l-143 -72z" />
    <glyph glyph-name="ugrave" unicode="&#xf9;" horiz-adv-x="527" 
d="M320 628h-38l-129 183h100zM353 -6v89h-3c-39 -56 -86 -103 -153 -103c-73 0 -107 51 -107 144v293c0 65 -3 77 -64 61l-6 23l80 22l70 18l14 -13v-404c0 -52 16 -81 55 -81c40 0 77 34 114 81v293c0 65 -4 77 -65 61l-6 23l81 22l70 18l14 -13v-405c0 -64 -2 -77 52 -50
l11 -21l-143 -72z" />
    <glyph glyph-name="uhungarumlaut" unicode="&#x171;" horiz-adv-x="527" 
d="M162 628l53 183h72l-95 -183h-30zM266 628l61 183h71l-102 -183h-30zM353 -6v89h-3c-39 -56 -86 -103 -153 -103c-73 0 -107 51 -107 144v293c0 65 -3 77 -64 61l-6 23l80 22l70 18l14 -13v-404c0 -52 16 -81 55 -81c40 0 77 34 114 81v293c0 65 -4 77 -65 61l-6 23
l81 22l70 18l14 -13v-405c0 -64 -2 -77 52 -50l11 -21l-143 -72z" />
    <glyph glyph-name="umacron" unicode="&#x16b;" horiz-adv-x="527" 
d="M117 734h295v-41h-295v41zM353 -6v89h-3c-39 -56 -86 -103 -153 -103c-73 0 -107 51 -107 144v293c0 65 -3 77 -64 61l-6 23l80 22l70 18l14 -13v-404c0 -52 16 -81 55 -81c40 0 77 34 114 81v293c0 65 -4 77 -65 61l-6 23l81 22l70 18l14 -13v-405c0 -64 -2 -77 52 -50
l11 -21l-143 -72z" />
    <glyph glyph-name="uogonek" unicode="&#x173;" horiz-adv-x="527" 
d="M366 -19c-39 -36 -85 -55 -85 -116c0 -39 23 -65 67 -65c24 0 45 6 82 23l6 -24c-34 -27 -71 -44 -118 -44c-59 0 -111 33 -111 97c0 97 104 111 146 142v89h-3c-39 -56 -86 -103 -153 -103c-73 0 -107 51 -107 144v293c0 65 -3 77 -64 61l-6 23l80 22l70 18l14 -13v-404
c0 -52 16 -81 55 -81c40 0 77 34 114 81v293c0 65 -4 77 -65 61l-6 23l81 22l70 18l14 -13v-405c0 -64 -2 -77 52 -50l11 -21l-143 -72z" />
    <glyph glyph-name="uring" unicode="&#x16f;" horiz-adv-x="527" 
d="M265 627c-60 0 -103 49 -103 103s43 101 103 101c59 0 101 -47 101 -101s-42 -103 -101 -103zM265 665c43 0 64 33 64 65c0 31 -21 64 -64 64c-44 0 -65 -33 -65 -64c0 -32 21 -65 65 -65zM353 -6v89h-3c-39 -56 -86 -103 -153 -103c-73 0 -107 51 -107 144v293
c0 65 -3 77 -64 61l-6 23l80 22l70 18l14 -13v-404c0 -52 16 -81 55 -81c40 0 77 34 114 81v293c0 65 -4 77 -65 61l-6 23l81 22l70 18l14 -13v-405c0 -64 -2 -77 52 -50l11 -21l-143 -72z" />
    <glyph glyph-name="v" unicode="v" horiz-adv-x="495" 
d="M366 428c18 62 18 76 -46 76v24h165v-24c-43 0 -60 -14 -78 -76l-128 -451h-58l-133 451c-18 63 -36 76 -78 76v24h228v-24c-59 0 -59 -14 -41 -76l83 -290h3z" />
    <glyph glyph-name="w" unicode="w" horiz-adv-x="757" 
d="M747 528v-24c-42 0 -60 -14 -77 -76l-129 -451h-57l-89 302l-96 -302h-58l-149 452c-21 62 -40 75 -82 75v24h234v-24c-64 0 -63 -13 -42 -75l100 -308h3l71 223l-25 84c-18 63 -36 76 -79 76v24h229v-24c-60 0 -59 -14 -41 -76l82 -290h3l83 290c18 62 19 76 -45 76v24
h164z" />
    <glyph glyph-name="wacute" unicode="&#x1e83;" horiz-adv-x="757" 
d="M507 811l-129 -183h-38l67 183h100zM747 528v-24c-42 0 -60 -14 -77 -76l-129 -451h-57l-89 302l-96 -302h-58l-149 452c-21 62 -40 75 -82 75v24h234v-24c-64 0 -63 -13 -42 -75l100 -308h3l71 223l-25 84c-18 63 -36 76 -79 76v24h229v-24c-60 0 -59 -14 -41 -76
l82 -290h3l83 290c18 62 19 76 -45 76v24h164z" />
    <glyph glyph-name="wcircumflex" unicode="&#x175;" horiz-adv-x="757" 
d="M382 753l-106 -129h-38l95 184h97l95 -184h-38zM747 528v-24c-42 0 -60 -14 -77 -76l-129 -451h-57l-89 302l-96 -302h-58l-149 452c-21 62 -40 75 -82 75v24h234v-24c-64 0 -63 -13 -42 -75l100 -308h3l71 223l-25 84c-18 63 -36 76 -79 76v24h229v-24
c-60 0 -59 -14 -41 -76l82 -290h3l83 290c18 62 19 76 -45 76v24h164z" />
    <glyph glyph-name="wdieresis" unicode="&#x1e85;" horiz-adv-x="757" 
d="M283 663c-32 0 -59 26 -59 58c0 33 27 59 59 59s59 -26 59 -59c0 -32 -27 -58 -59 -58zM480 663c-32 0 -58 26 -58 58c0 33 26 59 58 59c33 0 59 -26 59 -59c0 -32 -26 -58 -59 -58zM747 528v-24c-42 0 -60 -14 -77 -76l-129 -451h-57l-89 302l-96 -302h-58l-149 452
c-21 62 -40 75 -82 75v24h234v-24c-64 0 -63 -13 -42 -75l100 -308h3l71 223l-25 84c-18 63 -36 76 -79 76v24h229v-24c-60 0 -59 -14 -41 -76l82 -290h3l83 290c18 62 19 76 -45 76v24h164z" />
    <glyph glyph-name="wgrave" unicode="&#x1e81;" horiz-adv-x="757" 
d="M436 628h-38l-129 183h100zM747 528v-24c-42 0 -60 -14 -77 -76l-129 -451h-57l-89 302l-96 -302h-58l-149 452c-21 62 -40 75 -82 75v24h234v-24c-64 0 -63 -13 -42 -75l100 -308h3l71 223l-25 84c-18 63 -36 76 -79 76v24h229v-24c-60 0 -59 -14 -41 -76l82 -290h3
l83 290c18 62 19 76 -45 76v24h164z" />
    <glyph glyph-name="x" unicode="x" horiz-adv-x="508" 
d="M397 92c29 -58 53 -68 95 -68v-24h-235v24c60 0 53 10 24 69l-51 103l-59 -106c-31 -56 -40 -66 20 -66v-24h-165v24c42 0 68 10 99 66l83 150l-97 195c-28 58 -52 69 -95 69v24h235v-24c-60 0 -53 -11 -24 -69l42 -85l48 87c31 57 40 67 -19 67v24h165v-24
c-43 0 -68 -10 -99 -67l-73 -131z" />
    <glyph glyph-name="y" unicode="y" horiz-adv-x="497" 
d="M23 -167c0 33 25 55 53 55c27 0 41 -15 51 -28c11 -15 17 -21 33 -21c36 0 58 45 81 148l-144 442c-20 62 -38 75 -81 75v24h236v-24c-64 0 -64 -13 -45 -76l83 -281l72 281c16 62 16 76 -48 76v24h166v-24c-42 0 -59 -14 -76 -76l-110 -410c-35 -125 -60 -258 -180 -258
c-54 0 -91 30 -91 73z" />
    <glyph glyph-name="yacute" unicode="&#xfd;" horiz-adv-x="497" 
d="M214 628l67 183h100l-129 -183h-38zM23 -167c0 33 25 55 53 55c27 0 41 -15 51 -28c11 -15 17 -21 33 -21c36 0 58 45 81 148l-144 442c-20 62 -38 75 -81 75v24h236v-24c-64 0 -64 -13 -45 -76l83 -281l72 281c16 62 16 76 -48 76v24h166v-24c-42 0 -59 -14 -76 -76
l-110 -410c-35 -125 -60 -258 -180 -258c-54 0 -91 30 -91 73z" />
    <glyph glyph-name="ycircumflex" unicode="&#x177;" horiz-adv-x="497" 
d="M257 753l-106 -129h-38l95 184h97l95 -184h-38zM480 528v-24c-42 0 -59 -14 -76 -76l-110 -410c-35 -125 -60 -258 -180 -258c-54 0 -91 30 -91 73c0 33 25 55 53 55c27 0 41 -15 51 -28c11 -15 17 -21 33 -21c36 0 58 45 81 148l-144 442c-20 62 -38 75 -81 75v24h236
v-24c-64 0 -64 -13 -45 -76l83 -281l72 281c16 62 16 76 -48 76v24h166z" />
    <glyph glyph-name="ydieresis" unicode="&#xff;" horiz-adv-x="497" 
d="M158 663c-32 0 -59 26 -59 58c0 33 27 59 59 59s59 -26 59 -59c0 -32 -27 -58 -59 -58zM355 663c-32 0 -58 26 -58 58c0 33 26 59 58 59c33 0 59 -26 59 -59c0 -32 -26 -58 -59 -58zM23 -167c0 33 25 55 53 55c27 0 41 -15 51 -28c11 -15 17 -21 33 -21
c36 0 58 45 81 148l-144 442c-20 62 -38 75 -81 75v24h236v-24c-64 0 -64 -13 -45 -76l83 -281l72 281c16 62 16 76 -48 76v24h166v-24c-42 0 -59 -14 -76 -76l-110 -410c-35 -125 -60 -258 -180 -258c-54 0 -91 30 -91 73z" />
    <glyph glyph-name="ygrave" unicode="&#x1ef3;" horiz-adv-x="497" 
d="M311 628h-38l-129 183h100zM23 -167c0 33 25 55 53 55c27 0 41 -15 51 -28c11 -15 17 -21 33 -21c36 0 58 45 81 148l-144 442c-20 62 -38 75 -81 75v24h236v-24c-64 0 -64 -13 -45 -76l83 -281l72 281c16 62 16 76 -48 76v24h166v-24c-42 0 -59 -14 -76 -76l-110 -410
c-35 -125 -60 -258 -180 -258c-54 0 -91 30 -91 73z" />
    <glyph glyph-name="z" unicode="z" horiz-adv-x="435" 
d="M302 41c65 0 80 20 80 141h23v-182h-375v24l250 462h-123c-64 0 -79 -16 -79 -120h-24v162h351v-24l-249 -463h146z" />
    <glyph glyph-name="zacute" unicode="&#x17a;" horiz-adv-x="435" 
d="M195 628l67 183h100l-129 -183h-38zM302 41c65 0 80 20 80 141h23v-182h-375v24l250 462h-123c-64 0 -79 -16 -79 -120h-24v162h351v-24l-249 -463h146z" />
    <glyph glyph-name="zcaron" unicode="&#x17e;" horiz-adv-x="435" 
d="M189 624l-95 184h38l105 -129l106 129h38l-95 -184h-97zM405 528v-24l-249 -463h146c65 0 80 20 80 141h23v-182h-375v24l250 462h-123c-64 0 -79 -16 -79 -120h-24v162h351z" />
    <glyph glyph-name="zdotaccent" unicode="&#x17c;" horiz-adv-x="435" 
d="M237 663c-32 0 -59 26 -59 58c0 33 27 59 59 59s59 -26 59 -59c0 -32 -27 -58 -59 -58zM302 41c65 0 80 20 80 141h23v-182h-375v24l250 462h-123c-64 0 -79 -16 -79 -120h-24v162h351v-24l-249 -463h146z" />
    <glyph glyph-name="C_O" horiz-adv-x="1171" 
d="M36 400c0 242 133 420 334 420c108 0 160 -56 185 -56c13 0 19 6 19 46h23l15 -275h-23c-17 171 -90 244 -197 244c-150 0 -233 -165 -233 -379s83 -371 230 -371c125 0 214 111 238 294h24c-27 -200 -114 -343 -286 -343c-201 0 -329 178 -329 420zM930 340
c-114 0 -193 102 -193 240s79 240 193 240c115 0 194 -102 194 -240s-79 -240 -194 -240zM948 382c81 7 112 89 102 209c-10 118 -55 194 -137 187c-80 -7 -113 -90 -101 -208c11 -119 54 -195 136 -188zM928 -20c-33 0 -59 26 -59 59c0 32 26 59 59 59c32 0 58 -27 58 -59
c0 -33 -26 -59 -58 -59z" />
    <glyph glyph-name="L_L" horiz-adv-x="986" 
d="M346 800v-24c-93 0 -107 -18 -107 -79v-589c0 -57 12 -67 62 -67h151c61 0 86 29 127 189l23 -6l-51 -200l-6 -24h-525v24c93 0 107 18 107 79v594c0 61 -14 79 -107 79v24h326zM765 800v-24c-86 0 -99 -18 -99 -79v-287c0 -47 8 -57 47 -57l108 -1c61 0 84 26 114 171
l23 -5l-37 -181l-5 -26h-461v24c86 0 99 19 99 80v282c0 61 -13 79 -99 79v24h310z" />
    <glyph glyph-name="L_T_D" horiz-adv-x="1447" 
d="M346 800v-24c-93 0 -107 -18 -107 -79v-589c0 -57 12 -67 62 -67h151c61 0 86 29 127 189l23 -6l-51 -200l-6 -24h-525v24c93 0 107 18 107 79v594c0 61 -14 79 -107 79v24h326zM637 759c-61 0 -81 -17 -94 -109l-24 3l16 116l5 31h400l4 -31l16 -116l-23 -3
c-13 92 -33 109 -94 109h-68v-296c0 -61 10 -79 75 -79v-24h-221v24c65 0 75 18 75 79v296h-67zM998 360v24c65 0 74 18 74 79v234c0 61 -9 79 -74 79v24h202c135 0 210 -87 210 -220s-75 -220 -210 -220h-202zM1204 401c91 0 133 65 133 179c0 115 -42 179 -133 179
c-23 0 -45 -3 -60 -10v-338c15 -7 37 -10 60 -10zM971 -20c-33 0 -59 26 -59 59c0 32 26 59 59 59c32 0 58 -27 58 -59c0 -33 -26 -59 -58 -59z" />
    <glyph glyph-name="O_O" horiz-adv-x="1090" 
d="M728 820c200 0 326 -189 326 -420s-126 -420 -326 -420c-71 0 -133 24 -183 65c-50 -41 -112 -65 -183 -65c-199 0 -326 189 -326 420s127 420 326 420c71 0 133 -24 183 -65c50 41 112 65 183 65zM750 19c138 13 215 174 195 401c-20 226 -124 374 -262 362
c-43 -4 -80 -23 -110 -53c73 -77 115 -196 115 -329c0 -122 -35 -233 -98 -310c43 -51 98 -77 160 -71zM407 19c43 4 80 22 110 52c-73 77 -115 196 -115 329c0 122 35 232 98 309c-44 51 -98 78 -160 73c-138 -13 -215 -175 -195 -402c20 -226 123 -373 262 -361zM530 668
c-37 -71 -52 -171 -42 -288c9 -101 34 -186 72 -249c37 71 52 171 42 289c-9 101 -34 186 -72 248z" />
    <glyph glyph-name="S_T" horiz-adv-x="1006" 
d="M57 -4v288h24c4 -162 95 -263 203 -263c81 0 132 51 132 127c0 90 -94 158 -194 242c-113 97 -166 147 -166 252c0 115 88 178 197 178c108 0 153 -69 177 -69c11 0 15 9 15 53h24v-235h-24c-4 123 -76 210 -181 210c-83 0 -119 -49 -119 -102c0 -75 75 -126 149 -190
c131 -113 211 -169 211 -304c0 -131 -105 -203 -209 -203c-126 0 -165 73 -194 73c-16 0 -21 -15 -21 -57h-24zM655 759c-61 0 -82 -17 -95 -109l-23 3l16 116l4 31h400l4 -31l16 -116l-23 -3c-13 92 -34 109 -95 109h-66v-296c0 -61 9 -79 74 -79v-24h-220v24
c65 0 74 18 74 79v296h-66zM757 -20c-32 0 -59 26 -59 59c0 32 27 59 59 59c33 0 59 -27 59 -59c0 -33 -26 -59 -59 -59z" />
    <glyph glyph-name="s_t" horiz-adv-x="740" 
d="M696 220h24c-1 -156 -22 -240 -118 -240c-78 0 -126 51 -126 185v321h-78v42c92 3 131 39 141 143c8 85 -41 124 -107 124c-84 0 -124 -57 -124 -149c0 -101 39 -180 71 -257l-23 -14c-48 69 -92 134 -162 134c-40 0 -66 -26 -66 -57c0 -45 44 -75 103 -125
c94 -82 147 -121 147 -205c0 -93 -71 -142 -153 -142s-114 40 -135 40c-13 0 -16 -10 -16 -30h-23v201h23c8 -100 66 -172 148 -172c54 0 79 30 79 74c0 53 -48 87 -122 149c-79 67 -129 104 -129 179c0 76 56 127 136 127c61 0 101 -35 121 -60l3 1c-28 49 -43 103 -43 168
c0 108 67 186 164 186c80 0 139 -48 139 -172v-143h116v-42h-116v-289c0 -98 5 -158 60 -158c46 0 64 49 66 181z" />
    <glyph glyph-name="zero" unicode="0" horiz-adv-x="586" 
d="M293 -20c-160 0 -243 188 -243 420s83 420 243 420s243 -188 243 -420s-83 -420 -243 -420zM293 21c93 0 128 158 128 379c0 222 -35 379 -128 379s-128 -157 -128 -379c0 -221 35 -379 128 -379z" />
    <glyph glyph-name="one" unicode="1" horiz-adv-x="345" 
d="M224 103c0 -64 10 -79 71 -79v-24h-242v24c60 0 70 15 70 79v561c0 65 -1 76 -76 36l-11 21l175 93l13 -14v-697z" />
    <glyph glyph-name="two" unicode="2" horiz-adv-x="521" 
d="M364 89c65 0 85 19 110 94l23 -7l-34 -100l-26 -76h-427v24c195 205 342 375 342 546c0 93 -38 161 -128 161c-102 0 -159 -85 -165 -214h-23c0 183 92 303 241 303c121 0 182 -87 182 -198c0 -187 -180 -382 -339 -530v-3h244z" />
    <glyph glyph-name="three" unicode="3" horiz-adv-x="497" 
d="M30 59c0 24 21 39 49 39c32 0 47 -18 60 -37c17 -22 35 -40 79 -40c66 0 131 61 131 180c0 151 -84 202 -191 212v24c89 31 145 92 145 188c0 67 -36 121 -108 121c-76 0 -117 -49 -133 -115h-24c16 119 91 189 200 189c96 0 172 -65 172 -179c0 -89 -54 -152 -144 -193
v-3c111 -14 191 -88 191 -219c0 -152 -122 -246 -257 -246c-80 0 -170 27 -170 79z" />
    <glyph glyph-name="four" unicode="4" horiz-adv-x="554" 
d="M38 219v83l306 498h78v-498h88v-83h-88v-116c0 -64 10 -79 71 -79v-24h-242v24c60 0 70 15 70 79v116h-283zM87 302h234v396l-234 -393v-3z" />
    <glyph glyph-name="five" unicode="5" horiz-adv-x="491" 
d="M23 55c0 27 17 40 44 40c31 0 44 -21 59 -42c13 -18 30 -32 68 -32c63 0 132 84 132 256c0 157 -50 219 -128 219c-42 0 -73 -15 -100 -43l-34 24l72 323h292l-21 -89h-237l-47 -201l4 -3c34 28 75 41 118 41c109 0 196 -100 196 -248c0 -216 -127 -320 -264 -320
c-84 0 -154 28 -154 75z" />
    <glyph glyph-name="six" unicode="6" horiz-adv-x="559" 
d="M334 548c122 0 185 -119 185 -258c0 -151 -74 -310 -229 -310c-153 0 -242 144 -240 353c3 236 142 438 418 487v-24c-186 -47 -259 -193 -287 -330c32 45 85 82 153 82zM290 21c77 0 114 86 114 247c0 125 -26 238 -112 238c-40 0 -81 -23 -117 -75
c-7 -43 -9 -83 -10 -119c-2 -175 42 -291 125 -291z" />
    <glyph glyph-name="seven" unicode="7" horiz-adv-x="522" 
d="M230 -12l-69 18l213 702v3h-237c-61 0 -82 -18 -101 -109l-24 5l24 114l16 79h428z" />
    <glyph glyph-name="eight" unicode="8" horiz-adv-x="519" 
d="M315 450c94 -82 158 -163 158 -266c0 -124 -92 -204 -215 -204c-132 0 -215 86 -215 194c0 102 70 170 156 241c-86 79 -136 139 -136 226c0 107 87 179 199 179c120 0 191 -75 191 -169c0 -90 -61 -140 -138 -201zM266 779c-64 0 -107 -49 -107 -117
c0 -58 34 -103 119 -180c69 66 93 115 93 175c0 68 -40 122 -105 122zM261 21c71 0 116 53 116 141c0 87 -58 146 -141 221c-71 -66 -112 -132 -112 -210s46 -152 137 -152z" />
    <glyph glyph-name="nine" unicode="9" horiz-adv-x="559" 
d="M269 820c153 0 242 -143 240 -353c-3 -236 -142 -438 -418 -487v24c186 47 259 193 287 330c-32 -45 -86 -81 -153 -81c-122 0 -185 118 -185 258c0 150 74 309 229 309zM394 488c2 175 -43 291 -125 291c-78 0 -114 -86 -114 -247c0 -124 26 -238 112 -238
c41 0 81 24 118 77c6 42 8 82 9 117z" />
    <glyph glyph-name="uni24FF" unicode="&#x24ff;" 
d="M471 820c-235 0 -421 -184 -421 -421c0 -231 186 -419 421 -419c232 0 419 188 419 419c0 237 -187 421 -419 421zM469 148c-106 0 -161 113 -161 252s55 252 161 252s161 -113 161 -252s-55 -252 -161 -252zM469 173c61 0 84 94 84 227s-23 227 -84 227
c-62 0 -85 -94 -85 -227s23 -227 85 -227z" />
    <glyph glyph-name="uni2776" unicode="&#x2776;" 
d="M471 820c-235 0 -421 -184 -421 -421c0 -231 186 -419 421 -419c232 0 419 188 419 419c0 237 -187 421 -419 421zM504 218c0 -39 6 -48 47 -48v-14h-161v14c40 0 47 9 47 48v336c0 39 -2 46 -53 21l-6 13l117 56l9 -8v-418z" />
    <glyph glyph-name="uni2777" unicode="&#x2777;" 
d="M471 820c-235 0 -421 -184 -421 -421c0 -231 186 -419 421 -419c232 0 419 188 419 419c0 237 -187 421 -419 421zM553 217c38 0 51 13 69 62l14 -5l-25 -65l-16 -45h-283v14c129 123 226 225 226 328c0 56 -25 97 -84 97c-68 0 -106 -52 -110 -129h-15
c0 110 60 182 159 182c81 0 121 -52 121 -119c0 -112 -119 -229 -225 -318v-2h169z" />
    <glyph glyph-name="uni2778" unicode="&#x2778;" 
d="M471 820c-235 0 -421 -184 -421 -421c0 -231 186 -419 421 -419c232 0 419 188 419 419c0 237 -187 421 -419 421zM332 195c0 15 14 24 32 24c21 0 31 -11 40 -22c11 -14 23 -24 52 -24c44 0 87 36 87 107c0 91 -55 122 -126 128v14c59 19 95 56 95 113
c0 40 -23 73 -71 73c-50 0 -77 -30 -88 -69h-16c11 71 60 113 132 113c64 0 115 -39 115 -108c0 -53 -36 -91 -96 -115v-2c73 -8 127 -53 127 -132c0 -91 -81 -147 -171 -147c-53 0 -112 16 -112 47z" />
    <glyph glyph-name="uni2779" unicode="&#x2779;" 
d="M471 820c-235 0 -421 -184 -421 -421c0 -231 186 -419 421 -419c232 0 419 188 419 419c0 237 -187 421 -419 421zM296 291v50l203 299h52v-299h58v-50h-58v-69c0 -39 7 -48 47 -48v-14h-161v14c41 0 47 9 47 48v69h-188zM329 341h155v238l-155 -236v-2z" />
    <glyph glyph-name="uni277A" unicode="&#x277a;" 
d="M471 820c-235 0 -421 -184 -421 -421c0 -231 186 -419 421 -419c232 0 419 188 419 419c0 237 -187 421 -419 421zM329 199c0 16 12 24 29 24c21 0 30 -13 40 -25c8 -11 20 -19 45 -19c41 0 87 50 87 153c0 95 -33 132 -85 132c-28 0 -48 -10 -66 -26l-22 14l47 194h194
l-14 -53h-157l-31 -121l2 -2c23 17 50 25 79 25c71 0 129 -60 129 -149c0 -129 -84 -192 -175 -192c-55 0 -102 17 -102 45z" />
    <glyph glyph-name="uni277B" unicode="&#x277b;" 
d="M471 820c-235 0 -421 -184 -421 -421c0 -231 186 -419 421 -419c232 0 419 188 419 419c0 237 -187 421 -419 421zM308 359c2 143 91 264 272 293v-14c-119 -29 -172 -113 -192 -198h2c21 27 56 49 102 49c79 0 120 -72 120 -155c0 -90 -47 -186 -149 -186
c-99 0 -157 87 -155 211zM379 347c-2 -104 29 -174 85 -174c52 0 76 52 76 148c0 75 -17 143 -76 143c-27 0 -55 -15 -80 -48c-4 -26 -5 -51 -5 -69z" />
    <glyph glyph-name="uni277C" unicode="&#x277c;" 
d="M471 820c-235 0 -421 -184 -421 -421c0 -231 186 -419 421 -419c232 0 419 188 419 419c0 237 -187 421 -419 421zM450 136l-45 11l141 421v2h-164c-36 0 -50 -12 -63 -72l-14 3l17 76l10 47h284z" />
    <glyph glyph-name="uni277D" unicode="&#x277d;" 
d="M471 820c-235 0 -421 -184 -421 -421c0 -231 186 -419 421 -419c232 0 419 188 419 419c0 237 -187 421 -419 421zM332 264c0 61 42 105 99 147c-56 46 -87 82 -87 134c0 64 54 107 128 107c76 0 123 -45 123 -101c0 -53 -35 -83 -88 -122c65 -51 103 -99 103 -159
c0 -74 -59 -122 -140 -122c-83 0 -138 52 -138 116zM401 557c0 -34 21 -62 77 -107c50 41 64 69 64 104c0 41 -26 73 -70 73c-43 0 -71 -29 -71 -70zM385 264c0 -47 31 -91 91 -91c48 0 78 31 78 85c0 52 -37 88 -93 133c-47 -40 -76 -81 -76 -127z" />
    <glyph glyph-name="uni277E" unicode="&#x277e;" 
d="M469 -20c235 0 421 184 421 421c0 231 -186 419 -421 419c-232 0 -419 -188 -419 -419c0 -237 187 -421 419 -421zM632 441c-2 -142 -91 -264 -272 -293v14c119 29 173 113 192 198h-2c-21 -26 -56 -48 -101 -48c-80 0 -121 71 -121 155c0 89 48 185 149 185
c99 0 157 -86 155 -211zM561 453c2 104 -29 174 -85 174c-52 0 -76 -52 -76 -148c0 -74 17 -143 76 -143c27 0 55 15 80 48c4 26 5 51 5 69z" />
    <glyph glyph-name="uni277F" unicode="&#x277f;" 
d="M471 820c-235 0 -421 -184 -421 -421c0 -231 186 -419 421 -419c232 0 419 188 419 419c0 237 -187 421 -419 421zM572 148c-106 0 -160 113 -160 252s54 252 160 252c107 0 161 -113 161 -252s-54 -252 -161 -252zM341 218c0 -39 7 -48 47 -48v-14h-161v14
c41 0 47 9 47 48v336c0 39 -2 46 -53 21l-6 13l68 32l49 24l9 -8v-418zM572 173c62 0 85 94 85 227s-23 227 -85 227c-61 0 -84 -94 -84 -227s23 -227 84 -227z" />
    <glyph glyph-name="uni24EB" unicode="&#x24eb;" 
d="M471 820c-235 0 -421 -184 -421 -421c0 -231 186 -419 421 -419c232 0 419 188 419 419c0 237 -187 421 -419 421zM390 227c0 -39 6 -47 46 -47v-15h-160v15c40 0 46 8 46 47v337c0 39 -2 45 -52 21l-7 13l68 32l49 24l10 -9v-418zM624 227c0 -39 6 -47 47 -47v-15h-161
v15c40 0 47 8 47 47v337c0 39 -2 45 -53 21l-6 13l117 56l9 -9v-418z" />
    <glyph glyph-name="uni24EC" unicode="&#x24ec;" 
d="M471 820c-235 0 -421 -184 -421 -421c0 -231 186 -419 421 -419c232 0 419 188 419 419c0 237 -187 421 -419 421zM659 216c38 0 51 13 70 62l13 -5l-24 -65l-17 -45h-283v14c129 123 226 225 226 328c0 56 -25 96 -84 96c-68 0 -106 -51 -110 -128h-15
c0 110 61 182 160 182c80 0 120 -52 120 -119c0 -113 -119 -229 -225 -318v-2h169zM337 225c0 -39 6 -48 46 -48v-14h-160v14c40 0 47 9 47 48v336c0 39 -2 45 -53 21l-6 13l117 56l9 -8v-418z" />
    <glyph glyph-name="uni24ED" unicode="&#x24ed;" 
d="M471 820c-235 0 -421 -184 -421 -421c0 -231 186 -419 421 -419c232 0 419 188 419 419c0 237 -187 421 -419 421zM434 195c0 15 14 24 32 24c21 0 31 -11 40 -22c11 -14 23 -24 52 -24c44 0 87 36 87 107c0 91 -55 122 -126 128v14c59 19 95 56 95 113
c0 40 -23 73 -71 73c-50 0 -77 -30 -88 -69h-16c11 71 60 113 132 113c64 0 115 -39 115 -108c0 -53 -36 -91 -96 -115v-2c73 -8 127 -53 127 -132c0 -91 -81 -147 -171 -147c-53 0 -112 16 -112 47zM345 219c0 -39 6 -48 47 -48v-14h-161v14c40 0 47 9 47 48v337
c0 38 -2 45 -53 20l-6 13l67 33l50 23l9 -8v-418z" />
    <glyph glyph-name="uni24EE" unicode="&#x24ee;" 
d="M471 820c-235 0 -421 -184 -421 -421c0 -231 186 -419 421 -419c232 0 419 188 419 419c0 237 -187 421 -419 421zM342 225c0 -39 6 -48 47 -48v-14h-161v14c40 0 47 9 47 48v336c0 39 -2 45 -53 21l-6 13l117 56l9 -8v-418zM406 294v50l203 299h52v-299h59v-50h-59v-69
c0 -39 7 -48 47 -48v-14h-160v14c40 0 46 9 46 48v69h-188zM439 344h155v238l-155 -237v-1z" />
    <glyph glyph-name="uni24EF" unicode="&#x24ef;" 
d="M471 820c-235 0 -421 -184 -421 -421c0 -231 186 -419 421 -419c232 0 419 188 419 419c0 237 -187 421 -419 421zM430 199c0 16 12 24 29 24c21 0 30 -13 40 -25c8 -11 20 -19 45 -19c41 0 87 50 87 153c0 95 -33 132 -84 132c-28 0 -49 -10 -67 -26l-22 14l48 194h193
l-14 -53h-157l-31 -121l3 -2c22 17 49 25 78 25c72 0 129 -60 129 -149c0 -129 -84 -192 -175 -192c-55 0 -102 17 -102 45zM353 219c0 -39 7 -48 47 -48v-14h-161v14c41 0 47 9 47 48v337c0 38 -2 45 -53 20l-6 13l67 33l50 23l9 -8v-418z" />
    <glyph glyph-name="uni24F0" unicode="&#x24f0;" 
d="M471 820c-235 0 -421 -184 -421 -421c0 -231 186 -419 421 -419c232 0 419 188 419 419c0 237 -187 421 -419 421zM419 359c2 143 92 264 272 293v-14c-119 -29 -172 -113 -191 -198h2c20 27 56 49 101 49c80 0 121 -72 121 -155c0 -90 -48 -186 -149 -186
c-99 0 -157 87 -156 211zM341 219c0 -39 6 -48 47 -48v-14h-161v14c40 0 47 9 47 48v337c0 38 -2 45 -53 20l-6 13l67 33l50 23l9 -8v-418zM491 347c-2 -104 29 -174 84 -174c53 0 77 52 77 148c0 75 -18 143 -76 143c-27 0 -56 -15 -81 -48c-4 -26 -4 -51 -4 -69z" />
    <glyph glyph-name="uni24F1" unicode="&#x24f1;" 
d="M471 820c-235 0 -421 -184 -421 -421c0 -231 186 -419 421 -419c232 0 419 188 419 419c0 237 -187 421 -419 421zM346 219c0 -39 6 -48 47 -48v-14h-161v14c40 0 47 9 47 48v337c0 38 -2 45 -53 20l-6 13l67 33l50 23l9 -8v-418zM549 155l-45 11l141 421v2h-164
c-36 0 -50 -12 -63 -72l-14 3l17 75l10 47h284z" />
    <glyph glyph-name="uni24F2" unicode="&#x24f2;" 
d="M471 820c-235 0 -421 -184 -421 -421c0 -231 186 -419 421 -419c232 0 419 188 419 419c0 237 -187 421 -419 421zM420 262c0 59 45 104 114 148c-65 47 -96 86 -96 137c0 62 57 105 137 105c81 0 134 -45 134 -99c0 -51 -34 -84 -96 -124c75 -54 117 -102 117 -161
c0 -72 -64 -120 -155 -120c-96 0 -155 52 -155 114zM335 219c0 -39 7 -48 47 -48v-14h-160v14c40 0 46 9 46 48v337c0 38 -2 45 -53 20l-6 13l68 33l49 23l9 -8v-418zM498 559c0 -33 19 -63 85 -110c58 43 69 73 69 107c0 39 -29 71 -77 71s-77 -29 -77 -68zM478 262
c0 -45 33 -89 105 -89c57 0 88 31 88 83c0 50 -38 88 -107 135c-57 -41 -86 -84 -86 -129z" />
    <glyph glyph-name="uni24F3" unicode="&#x24f3;" 
d="M471 820c-235 0 -421 -184 -421 -421c0 -231 186 -419 421 -419c232 0 419 188 419 419c0 237 -187 421 -419 421zM740 441c-2 -142 -92 -264 -272 -293v14c119 29 172 113 192 198h-2c-21 -26 -57 -48 -102 -48c-79 0 -120 71 -120 155c0 89 47 185 149 185
c99 0 157 -86 155 -211zM352 219c0 -39 7 -48 47 -48v-14h-161v14c41 0 47 9 47 48v337c0 38 -2 45 -53 20l-6 13l68 33l49 23l9 -8v-418zM668 453c0 104 -29 174 -84 174c-52 0 -77 -52 -77 -148c0 -74 18 -143 76 -143c27 0 56 15 81 48c4 26 4 51 4 69z" />
    <glyph glyph-name="uni24F4" unicode="&#x24f4;" 
d="M471 820c-235 0 -421 -184 -421 -421c0 -231 186 -419 421 -419c232 0 419 188 419 419c0 237 -187 421 -419 421zM666 148c-106 0 -161 113 -161 252s55 252 161 252s161 -113 161 -252s-55 -252 -161 -252zM399 207c38 0 51 13 69 62l14 -5l-25 -65l-16 -45h-283v14
c129 123 226 225 226 328c0 56 -25 97 -84 97c-68 0 -106 -52 -110 -129h-15c0 110 60 182 159 182c81 0 121 -52 121 -119c0 -112 -119 -229 -225 -318v-2h169zM666 173c62 0 85 94 85 227s-23 227 -85 227c-61 0 -85 -94 -85 -227s24 -227 85 -227z" />
    <glyph glyph-name="uni24EA" unicode="&#x24ea;" 
d="M471 820c232 0 419 -184 419 -421c0 -231 -187 -419 -419 -419c-235 0 -421 188 -421 419c0 237 186 421 421 421zM471 790c-220 0 -391 -175 -391 -391c0 -217 171 -389 391 -389c214 0 389 172 389 389c0 216 -175 391 -389 391zM469 148c-106 0 -161 113 -161 252
s55 252 161 252s161 -113 161 -252s-55 -252 -161 -252zM469 173c61 0 84 94 84 227s-23 227 -84 227c-62 0 -85 -94 -85 -227s23 -227 85 -227z" />
    <glyph glyph-name="uni2460" unicode="&#x2460;" 
d="M471 820c232 0 419 -184 419 -421c0 -231 -187 -419 -419 -419c-235 0 -421 188 -421 419c0 237 186 421 421 421zM471 790c-220 0 -391 -175 -391 -391c0 -217 171 -389 391 -389c214 0 389 172 389 389c0 216 -175 391 -389 391zM504 219c0 -39 6 -48 47 -48v-14h-161
v14c40 0 47 9 47 48v337c0 38 -2 45 -53 20l-6 13l67 33l50 23l9 -8v-418z" />
    <glyph glyph-name="uni2461" unicode="&#x2461;" 
d="M471 820c232 0 419 -184 419 -421c0 -231 -187 -419 -419 -419c-235 0 -421 188 -421 419c0 237 186 421 421 421zM471 790c-220 0 -391 -175 -391 -391c0 -217 171 -389 391 -389c214 0 389 172 389 389c0 216 -175 391 -389 391zM553 223c38 0 51 13 69 62l14 -5
l-25 -65l-16 -45h-283v14c129 123 226 225 226 328c0 55 -25 96 -84 96c-68 0 -106 -51 -110 -129h-15c0 111 60 183 159 183c81 0 121 -53 121 -119c0 -113 -119 -229 -225 -318v-2h169z" />
    <glyph glyph-name="uni2462" unicode="&#x2462;" 
d="M471 820c232 0 419 -184 419 -421c0 -231 -187 -419 -419 -419c-235 0 -421 188 -421 419c0 237 186 421 421 421zM471 790c-220 0 -391 -175 -391 -391c0 -217 171 -389 391 -389c214 0 389 172 389 389c0 216 -175 391 -389 391zM332 195c0 15 14 24 32 24
c21 0 31 -11 40 -22c11 -14 23 -24 52 -24c44 0 87 36 87 107c0 91 -55 122 -126 128v14c59 19 95 56 95 113c0 40 -23 73 -71 73c-50 0 -77 -30 -88 -69h-16c11 71 60 113 132 113c64 0 115 -39 115 -108c0 -53 -36 -91 -96 -115v-2c73 -8 127 -53 127 -132
c0 -91 -81 -147 -171 -147c-53 0 -112 16 -112 47z" />
    <glyph glyph-name="uni2463" unicode="&#x2463;" 
d="M471 820c232 0 419 -184 419 -421c0 -231 -187 -419 -419 -419c-235 0 -421 188 -421 419c0 237 186 421 421 421zM471 790c-220 0 -391 -175 -391 -391c0 -217 171 -389 391 -389c214 0 389 172 389 389c0 216 -175 391 -389 391zM298 291v50l203 299h52v-299h59v-50
h-59v-69c0 -39 7 -48 47 -48v-14h-160v14c40 0 46 9 46 48v69h-188zM331 341h155v238l-155 -236v-2z" />
    <glyph glyph-name="uni2464" unicode="&#x2464;" 
d="M471 820c232 0 419 -184 419 -421c0 -231 -187 -419 -419 -419c-235 0 -421 188 -421 419c0 237 186 421 421 421zM471 790c-220 0 -391 -175 -391 -391c0 -217 171 -389 391 -389c214 0 389 172 389 389c0 216 -175 391 -389 391zM332 199c0 16 11 24 29 24
c20 0 29 -13 39 -25c9 -11 20 -19 45 -19c42 0 88 50 88 153c0 95 -34 132 -85 132c-28 0 -49 -10 -67 -26l-22 14l48 194h193l-14 -53h-157l-31 -121l3 -2c22 17 49 25 78 25c72 0 130 -60 130 -149c0 -129 -84 -192 -175 -192c-56 0 -102 17 -102 45z" />
    <glyph glyph-name="uni2465" unicode="&#x2465;" 
d="M471 820c232 0 419 -184 419 -421c0 -231 -187 -419 -419 -419c-235 0 -421 188 -421 419c0 237 186 421 421 421zM471 10c214 0 389 172 389 389c0 216 -175 391 -389 391c-220 0 -391 -175 -391 -391c0 -217 171 -389 391 -389zM496 489c80 0 122 -72 122 -155
c0 -90 -49 -186 -151 -186s-161 86 -159 212c2 141 94 263 277 292v-14c-123 -28 -172 -116 -190 -198c21 26 56 49 101 49zM467 173c51 0 75 51 75 148c0 75 -17 143 -74 143c-27 0 -53 -14 -77 -44c-5 -26 -7 -51 -7 -73c-2 -105 28 -174 83 -174z" />
    <glyph glyph-name="uni2466" unicode="&#x2466;" 
d="M471 820c232 0 419 -184 419 -421c0 -231 -187 -419 -419 -419c-235 0 -421 188 -421 419c0 237 186 421 421 421zM471 790c-220 0 -391 -175 -391 -391c0 -217 171 -389 391 -389c214 0 389 172 389 389c0 216 -175 391 -389 391zM451 141l-45 11l141 421v2h-164
c-36 0 -50 -12 -63 -72l-14 3l17 75l10 47h284z" />
    <glyph glyph-name="uni2467" unicode="&#x2467;" 
d="M471 820c232 0 419 -184 419 -421c0 -231 -187 -419 -419 -419c-235 0 -421 188 -421 419c0 237 186 421 421 421zM471 10c214 0 389 172 389 389c0 216 -175 391 -389 391c-220 0 -391 -175 -391 -391c0 -217 171 -389 391 -389zM507 431c62 -50 104 -99 104 -161
c0 -74 -60 -122 -142 -122c-88 0 -143 52 -143 116c0 62 46 103 104 145c-58 48 -91 83 -91 136c0 64 58 107 133 107c79 0 126 -45 126 -101c0 -54 -40 -84 -91 -120zM474 627c-42 0 -71 -29 -71 -70c0 -35 23 -62 79 -107c46 39 62 68 62 104c0 41 -27 73 -70 73zM471 173
c47 0 77 32 77 84c0 53 -38 88 -94 133c-47 -40 -74 -80 -74 -126c0 -47 30 -91 91 -91z" />
    <glyph glyph-name="uni2468" unicode="&#x2468;" 
d="M469 820c235 0 421 -188 421 -419c0 -237 -186 -421 -421 -421c-232 0 -419 184 -419 421c0 231 187 419 419 419zM469 10c220 0 391 175 391 391c0 217 -171 389 -391 389c-214 0 -389 -172 -389 -389c0 -216 175 -391 389 -391zM473 652c102 0 161 -86 159 -212
c-2 -141 -94 -263 -277 -292v14c123 28 172 116 190 198c-21 -26 -56 -48 -101 -48c-80 0 -122 71 -122 154c0 90 49 186 151 186zM556 453c2 105 -28 174 -83 174c-51 0 -75 -51 -75 -148c0 -74 17 -143 74 -143c27 0 53 14 77 44c5 26 7 51 7 73z" />
    <glyph glyph-name="uni2469" unicode="&#x2469;" 
d="M471 820c232 0 419 -184 419 -421c0 -231 -187 -419 -419 -419c-235 0 -421 188 -421 419c0 237 186 421 421 421zM471 790c-220 0 -391 -175 -391 -391c0 -217 171 -389 391 -389c214 0 389 172 389 389c0 216 -175 391 -389 391zM587 148c-106 0 -160 113 -160 252
s54 252 160 252s161 -113 161 -252s-55 -252 -161 -252zM356 219c0 -39 7 -48 47 -48v-14h-161v14c41 0 47 9 47 48v337c0 38 -2 45 -53 20l-6 13l67 33l50 23l9 -8v-418zM587 173c62 0 85 94 85 227s-23 227 -85 227c-61 0 -84 -94 -84 -227s23 -227 84 -227z" />
    <glyph glyph-name="uni246A" unicode="&#x246a;" 
d="M471 820c232 0 419 -184 419 -421c0 -231 -187 -419 -419 -419c-235 0 -421 188 -421 419c0 237 186 421 421 421zM471 790c-220 0 -391 -175 -391 -391c0 -217 171 -389 391 -389c214 0 389 172 389 389c0 216 -175 391 -389 391zM390 219c0 -39 6 -48 46 -48v-14h-160
v14c40 0 46 9 46 48v337c0 38 -2 45 -52 20l-7 13l68 33l49 23l10 -8v-418zM625 219c0 -39 6 -48 46 -48v-14h-160v14c40 0 46 9 46 48v337c0 38 -2 45 -52 20l-7 13l68 33l49 23l10 -8v-418z" />
    <glyph glyph-name="uni246B" unicode="&#x246b;" 
d="M471 820c232 0 419 -184 419 -421c0 -231 -187 -419 -419 -419c-235 0 -421 188 -421 419c0 237 186 421 421 421zM471 790c-220 0 -391 -175 -391 -391c0 -217 171 -389 391 -389c214 0 389 172 389 389c0 216 -175 391 -389 391zM663 210c39 0 52 13 70 62l13 -5
l-24 -65l-17 -45h-283v14c129 123 227 225 227 328c0 56 -25 97 -85 97c-68 0 -105 -52 -109 -129h-16c0 110 61 182 160 182c80 0 121 -52 121 -119c0 -112 -120 -229 -225 -318v-2h168zM344 219c0 -39 6 -48 46 -48v-14h-160v14c40 0 47 9 47 48v337c0 38 -2 45 -53 20
l-6 13l67 33l50 23l9 -8v-418z" />
    <glyph glyph-name="uni246C" unicode="&#x246c;" 
d="M471 820c232 0 419 -184 419 -421c0 -231 -187 -419 -419 -419c-235 0 -421 188 -421 419c0 237 186 421 421 421zM471 790c-220 0 -391 -175 -391 -391c0 -217 171 -389 391 -389c214 0 389 172 389 389c0 216 -175 391 -389 391zM436 195c0 15 14 24 32 24
c21 0 31 -11 40 -22c11 -14 23 -24 52 -24c44 0 87 36 87 107c0 91 -55 122 -126 128v14c59 19 95 56 95 113c0 40 -23 73 -71 73c-50 0 -77 -30 -88 -69h-16c11 71 60 113 132 113c64 0 115 -39 115 -108c0 -53 -36 -91 -96 -115v-2c73 -8 127 -53 127 -132
c0 -91 -81 -147 -171 -147c-53 0 -112 16 -112 47zM358 219c0 -39 7 -48 47 -48v-14h-161v14c41 0 47 9 47 48v337c0 38 -2 45 -53 20l-6 13l68 33l49 23l9 -8v-418z" />
    <glyph glyph-name="uni246D" unicode="&#x246d;" 
d="M471 820c232 0 419 -184 419 -421c0 -231 -187 -419 -419 -419c-235 0 -421 188 -421 419c0 237 186 421 421 421zM471 790c-220 0 -391 -175 -391 -391c0 -217 171 -389 391 -389c214 0 389 172 389 389c0 216 -175 391 -389 391zM344 219c0 -39 6 -48 46 -48v-14h-160
v14c40 0 47 9 47 48v337c0 38 -2 45 -53 20l-6 13l67 33l50 23l9 -8v-418zM406 288v50l202 299h53v-299h58v-50h-58v-69c0 -39 6 -48 46 -48v-14h-160v14c40 0 46 9 46 48v69h-187zM438 338h155v238l-155 -236v-2z" />
    <glyph glyph-name="uni246E" unicode="&#x246e;" 
d="M471 820c232 0 419 -184 419 -421c0 -231 -187 -419 -419 -419c-235 0 -421 188 -421 419c0 237 186 421 421 421zM471 790c-220 0 -391 -175 -391 -391c0 -217 171 -389 391 -389c214 0 389 172 389 389c0 216 -175 391 -389 391zM444 199c0 16 11 24 29 24
c20 0 29 -13 39 -25c9 -11 20 -19 45 -19c42 0 88 50 88 153c0 95 -34 132 -85 132c-28 0 -49 -10 -67 -26l-22 14l48 194h193l-14 -53h-157l-31 -121l3 -2c22 17 49 25 78 25c72 0 130 -60 130 -149c0 -129 -84 -192 -175 -192c-56 0 -102 17 -102 45zM359 219
c0 -39 6 -48 46 -48v-14h-160v14c40 0 47 9 47 48v337c0 38 -2 45 -53 20l-6 13l67 33l50 23l9 -8v-418z" />
    <glyph glyph-name="uni246F" unicode="&#x246f;" 
d="M471 820c232 0 419 -184 419 -421c0 -231 -187 -419 -419 -419c-235 0 -421 188 -421 419c0 237 186 421 421 421zM471 10c214 0 389 172 389 389c0 216 -175 391 -389 391c-220 0 -391 -175 -391 -391c0 -217 171 -389 391 -389zM613 489c80 0 122 -72 122 -155
c0 -90 -49 -186 -151 -186s-161 86 -159 212c2 141 94 263 277 292v-14c-123 -28 -172 -116 -190 -198c21 26 56 49 101 49zM346 219c0 -39 6 -48 46 -48v-14h-160v14c40 0 46 9 46 48v337c0 38 -2 45 -52 20l-7 13l68 33l49 23l10 -8v-418zM584 173c51 0 75 51 75 148
c0 75 -17 143 -74 143c-27 0 -53 -14 -77 -44c-5 -26 -7 -51 -7 -73c-2 -105 28 -174 83 -174z" />
    <glyph glyph-name="uni2470" unicode="&#x2470;" 
d="M471 820c232 0 419 -184 419 -421c0 -231 -187 -419 -419 -419c-235 0 -421 188 -421 419c0 237 186 421 421 421zM471 790c-220 0 -391 -175 -391 -391c0 -217 171 -389 391 -389c214 0 389 172 389 389c0 216 -175 391 -389 391zM346 219c0 -39 7 -48 47 -48v-14h-161
v14c41 0 47 9 47 48v337c0 38 -2 45 -53 20l-6 13l68 33l49 23l9 -8v-418zM556 155l-46 11l141 421v2h-163c-37 0 -50 -12 -64 -72l-14 3l17 75l11 47h283z" />
    <glyph glyph-name="uni2471" unicode="&#x2471;" 
d="M471 820c232 0 419 -184 419 -421c0 -231 -187 -419 -419 -419c-235 0 -421 188 -421 419c0 237 186 421 421 421zM471 10c214 0 389 172 389 389c0 216 -175 391 -389 391c-220 0 -391 -175 -391 -391c0 -217 171 -389 391 -389zM612 430c63 -49 105 -98 105 -160
c0 -74 -61 -122 -143 -122c-87 0 -142 52 -142 116c0 62 46 102 103 145c-57 48 -90 83 -90 136c0 64 58 107 132 107c80 0 127 -45 127 -101c0 -54 -41 -84 -92 -121zM349 219c0 -39 6 -48 47 -48v-14h-161v14c40 0 47 9 47 48v337c0 38 -2 45 -53 20l-6 13l67 33l50 23
l9 -8v-418zM580 627c-43 0 -71 -29 -71 -70c0 -35 22 -62 79 -107c46 39 61 68 61 104c0 41 -26 73 -69 73zM576 173c47 0 77 32 77 84c0 53 -38 88 -94 133c-47 -40 -73 -80 -73 -126c0 -47 30 -91 90 -91z" />
    <glyph glyph-name="uni2472" unicode="&#x2472;" 
d="M471 820c232 0 419 -184 419 -421c0 -231 -187 -419 -419 -419c-235 0 -421 188 -421 419c0 237 186 421 421 421zM471 10c214 0 389 172 389 389c0 216 -175 391 -389 391c-220 0 -391 -175 -391 -391c0 -217 171 -389 391 -389zM581 652c101 0 160 -86 159 -212
c-2 -141 -94 -263 -277 -292v14c123 28 172 116 190 198c-22 -26 -57 -48 -102 -48c-80 0 -122 71 -122 154c0 90 49 186 152 186zM353 219c0 -39 6 -48 46 -48v-14h-160v14c40 0 46 9 46 48v337c0 38 -2 45 -52 20l-7 13l68 33l49 23l10 -8v-418zM663 453
c2 105 -28 174 -82 174c-52 0 -76 -51 -76 -148c0 -74 17 -143 75 -143c26 0 53 14 77 45c4 26 6 50 6 72z" />
    <glyph glyph-name="uni2473" unicode="&#x2473;" 
d="M471 820c232 0 419 -184 419 -421c0 -231 -187 -419 -419 -419c-235 0 -421 188 -421 419c0 237 186 421 421 421zM471 10c214 0 389 172 389 389c0 216 -175 391 -389 391c-220 0 -391 -175 -391 -391c0 -93 32 -178 85 -245v14c129 123 226 225 226 328
c0 56 -24 97 -84 97c-68 0 -106 -52 -109 -129h-16c0 110 61 182 160 182c80 0 121 -52 121 -119c0 -112 -120 -229 -225 -318v-2h168c39 0 51 13 70 62l13 -5l-24 -65l-17 -45h-283c71 -88 181 -144 306 -144zM664 652c106 0 161 -113 161 -252s-55 -252 -161 -252
s-161 113 -161 252s55 252 161 252zM664 173c62 0 85 94 85 227s-23 227 -85 227c-61 0 -85 -94 -85 -227s24 -227 85 -227z" />
    <glyph glyph-name="zero.dnom" horiz-adv-x="336" 
d="M166 -10c-106 0 -160 113 -160 252s54 252 160 252c107 0 161 -113 161 -252s-54 -252 -161 -252zM166 15c62 0 85 94 85 227s-23 227 -85 227c-61 0 -84 -94 -84 -227s23 -227 84 -227z" />
    <glyph glyph-name="one.dnom" horiz-adv-x="183" 
d="M126 62c0 -39 6 -48 46 -48v-14h-160v14c40 0 46 9 46 48v337c0 38 -2 45 -52 20l-7 13l68 33l49 23l10 -8v-418z" />
    <glyph glyph-name="two.dnom" horiz-adv-x="338" 
d="M224 53c39 0 52 13 70 62l14 -5l-25 -65l-17 -45h-283v14c130 123 227 225 227 328c0 56 -25 97 -84 97c-68 0 -106 -52 -110 -129h-16c0 110 61 182 160 182c80 0 121 -52 121 -119c0 -112 -119 -229 -225 -318v-2h168z" />
    <glyph glyph-name="three.dnom" horiz-adv-x="300" 
d="M-3 37c0 15 14 24 32 24c21 0 31 -11 40 -22c11 -14 23 -24 52 -24c44 0 87 36 87 107c0 91 -55 122 -126 128v14c59 19 95 56 95 113c0 40 -23 73 -71 73c-50 0 -77 -30 -88 -69h-16c11 71 60 113 132 113c64 0 115 -39 115 -108c0 -53 -36 -91 -96 -115v-2
c73 -8 127 -53 127 -132c0 -91 -81 -147 -171 -147c-53 0 -112 16 -112 47z" />
    <glyph glyph-name="four.dnom" horiz-adv-x="329" 
d="M10 131v50l203 299h52v-299h59v-50h-59v-69c0 -39 7 -48 47 -48v-14h-160v14c40 0 46 9 46 48v69h-188zM43 181h155v238l-155 -236v-2z" />
    <glyph glyph-name="five.dnom" horiz-adv-x="293" 
d="M5 35c0 16 12 24 29 24c21 0 30 -13 40 -25c8 -11 20 -19 45 -19c41 0 87 50 87 153c0 95 -33 132 -85 132c-28 0 -48 -10 -66 -26l-22 14l47 194h194l-14 -53h-157l-31 -121l2 -2c23 17 50 25 79 25c71 0 129 -60 129 -149c0 -129 -84 -192 -175 -192
c-55 0 -102 17 -102 45z" />
    <glyph glyph-name="six.dnom" horiz-adv-x="324" 
d="M198 331c81 0 123 -72 123 -155c0 -90 -49 -186 -152 -186c-101 0 -161 86 -159 212c2 141 94 263 277 292v-14c-123 -28 -172 -116 -190 -198c21 26 56 49 101 49zM169 15c51 0 75 51 75 148c0 75 -17 143 -74 143c-26 0 -54 -14 -78 -46c-4 -25 -6 -50 -6 -71
c-1 -105 28 -174 83 -174z" />
    <glyph glyph-name="seven.dnom" horiz-adv-x="324" 
d="M142 -6l-45 11l141 421v2h-163c-37 0 -50 -12 -64 -72l-14 3l17 75l11 47h283z" />
    <glyph glyph-name="eight.dnom" horiz-adv-x="298" 
d="M186 272c63 -49 104 -98 104 -160c0 -74 -61 -122 -142 -122c-88 0 -143 52 -143 116c0 62 46 103 104 145c-58 48 -91 83 -91 136c0 64 58 107 133 107c79 0 126 -45 126 -101c0 -54 -41 -84 -91 -121zM153 469c-43 0 -71 -29 -71 -70c0 -35 22 -62 79 -107
c46 39 62 68 62 104c0 41 -27 73 -70 73zM150 15c47 0 77 32 77 84c0 53 -38 88 -94 133c-47 -40 -74 -80 -74 -126c0 -47 30 -91 91 -91z" />
    <glyph glyph-name="nine.dnom" horiz-adv-x="324" 
d="M155 494c101 0 161 -86 159 -212c-2 -141 -94 -263 -277 -292v14c123 28 172 116 190 198c-21 -26 -56 -48 -101 -48c-81 0 -122 71 -122 154c0 90 48 186 151 186zM238 295c2 105 -28 174 -83 174c-51 0 -75 -51 -75 -148c0 -74 17 -143 74 -143c26 0 54 14 78 46
c4 25 6 50 6 71z" />
    <glyph glyph-name="zero.numr" horiz-adv-x="336" 
d="M166 316c-106 0 -160 113 -160 252s54 252 160 252c107 0 161 -113 161 -252s-54 -252 -161 -252zM166 341c62 0 85 94 85 227s-23 227 -85 227c-61 0 -84 -94 -84 -227s23 -227 84 -227z" />
    <glyph glyph-name="one.numr" horiz-adv-x="183" 
d="M126 390c0 -39 6 -48 46 -48v-14h-160v14c40 0 46 9 46 48v337c0 38 -2 45 -52 20l-7 13l68 33l49 23l10 -8v-418z" />
    <glyph glyph-name="two.numr" horiz-adv-x="338" 
d="M224 381c39 0 52 13 70 62l14 -5l-25 -65l-17 -45h-283v14c130 123 227 225 227 328c0 56 -25 97 -84 97c-68 0 -106 -52 -110 -129h-16c0 110 61 182 160 182c80 0 121 -52 121 -119c0 -112 -119 -229 -225 -318v-2h168z" />
    <glyph glyph-name="three.numr" horiz-adv-x="300" 
d="M-3 355c0 15 14 24 32 24c21 0 31 -11 40 -22c11 -14 23 -24 52 -24c44 0 87 36 87 107c0 91 -55 122 -126 128v14c59 19 95 56 95 113c0 40 -23 73 -71 73c-50 0 -77 -30 -88 -69h-16c11 71 60 113 132 113c64 0 115 -39 115 -108c0 -53 -36 -91 -96 -115v-2
c73 -8 127 -53 127 -132c0 -91 -81 -147 -171 -147c-53 0 -112 16 -112 47z" />
    <glyph glyph-name="four.numr" horiz-adv-x="329" 
d="M10 459v50l203 299h52v-299h59v-50h-59v-69c0 -39 7 -48 47 -48v-14h-160v14c40 0 46 9 46 48v69h-188zM43 509h155v238l-155 -236v-2z" />
    <glyph glyph-name="five.numr" horiz-adv-x="293" 
d="M5 353c0 16 12 24 29 24c21 0 30 -13 40 -25c8 -11 20 -19 45 -19c41 0 87 50 87 153c0 95 -33 132 -85 132c-28 0 -48 -10 -66 -26l-22 14l47 194h194l-14 -53h-157l-31 -121l2 -2c23 17 50 25 79 25c71 0 129 -60 129 -149c0 -129 -84 -192 -175 -192
c-55 0 -102 17 -102 45z" />
    <glyph glyph-name="six.numr" horiz-adv-x="324" 
d="M198 649c81 0 123 -72 123 -155c0 -90 -49 -186 -152 -186c-101 0 -161 86 -159 212c2 141 94 263 277 292v-14c-123 -28 -172 -116 -190 -198c21 26 56 49 101 49zM169 333c51 0 75 51 75 148c0 75 -17 143 -74 143c-26 0 -54 -14 -78 -46c-4 -25 -6 -50 -6 -71
c-1 -105 28 -174 83 -174z" />
    <glyph glyph-name="seven.numr" horiz-adv-x="324" 
d="M142 313l-45 11l141 421v2h-163c-37 0 -50 -12 -64 -72l-14 3l17 75l11 47h283z" />
    <glyph glyph-name="eight.numr" horiz-adv-x="298" 
d="M186 590c63 -49 104 -98 104 -160c0 -74 -61 -122 -142 -122c-88 0 -143 52 -143 116c0 62 46 103 104 145c-58 48 -91 83 -91 136c0 64 58 107 133 107c79 0 126 -45 126 -101c0 -54 -41 -84 -91 -121zM153 787c-43 0 -71 -29 -71 -70c0 -35 22 -62 79 -107
c46 39 62 68 62 104c0 41 -27 73 -70 73zM150 333c47 0 77 32 77 84c0 53 -38 88 -94 133c-47 -40 -74 -80 -74 -126c0 -47 30 -91 91 -91z" />
    <glyph glyph-name="nine.numr" horiz-adv-x="324" 
d="M155 812c101 0 161 -86 159 -212c-2 -141 -94 -263 -277 -292v14c123 28 172 116 190 198c-21 -26 -56 -48 -101 -48c-81 0 -122 71 -122 154c0 90 48 186 151 186zM238 613c2 105 -28 174 -83 174c-51 0 -75 -51 -75 -148c0 -74 17 -143 74 -143c26 0 54 14 78 46
c4 25 6 50 6 71z" />
    <glyph glyph-name="fraction" unicode="&#x2044;" horiz-adv-x="440" 
d="M447 800h43l-497 -800h-43z" />
    <glyph glyph-name="onehalf" unicode="&#xbd;" horiz-adv-x="871" 
d="M196 390c0 -39 6 -48 46 -48v-14h-160v14c40 0 46 9 46 48v337c0 38 -2 45 -52 20l-7 13l68 33l49 23l10 -8v-418zM621 800h43l-497 -800h-43zM721 53c38 0 51 13 70 62l13 -5l-24 -65l-17 -45h-283v14c129 123 226 225 226 328c0 56 -25 97 -84 97
c-68 0 -106 -52 -110 -129h-15c0 110 61 182 160 182c80 0 120 -52 120 -119c0 -112 -119 -229 -225 -318v-2h169z" />
    <glyph glyph-name="onequarter" unicode="&#xbc;" horiz-adv-x="775" 
d="M196 390c0 -39 6 -48 46 -48v-14h-160v14c40 0 46 9 46 48v337c0 38 -2 45 -52 20l-7 13l68 33l49 23l10 -8v-418zM611 800h43l-497 -800h-43zM393 131v50l203 299h52v-299h58v-50h-58v-69c0 -39 6 -48 47 -48v-14h-161v14c40 0 47 9 47 48v69h-188zM426 181h155v238
l-155 -236v-2z" />
    <glyph glyph-name="threequarters" unicode="&#xbe;" horiz-adv-x="855" 
d="M73 355c0 15 14 24 32 24c21 0 31 -11 40 -22c11 -14 24 -24 52 -24c44 0 88 36 88 107c0 91 -56 122 -127 128v14c59 19 96 56 96 113c0 40 -24 73 -72 73c-50 0 -77 -30 -88 -69h-16c11 71 60 113 132 113c65 0 115 -39 115 -108c0 -53 -36 -91 -95 -115v-2
c73 -8 126 -53 126 -132c0 -91 -81 -147 -170 -147c-53 0 -113 16 -113 47zM697 800h43l-497 -800h-43zM473 131v50l203 299h52v-299h58v-50h-58v-69c0 -39 7 -48 47 -48v-14h-161v14c41 0 47 9 47 48v69h-188zM506 181h155v238l-155 -236v-2z" />
    <glyph glyph-name="oneeighth" unicode="&#x215b;" horiz-adv-x="853" 
d="M82 342c40 0 46 9 46 48v337c0 38 -2 45 -52 20l-7 13l68 33l49 23l10 -8v-418c0 -39 6 -48 46 -48v-14h-160v14zM616 800h43l-497 -800h-43zM681 272c63 -49 104 -98 104 -160c0 -74 -61 -122 -142 -122c-88 0 -143 52 -143 116c0 62 46 103 104 145
c-58 48 -91 83 -91 136c0 64 58 107 133 107c79 0 126 -45 126 -101c0 -54 -41 -84 -91 -121zM648 469c-43 0 -71 -29 -71 -70c0 -35 22 -62 79 -107c46 39 62 68 62 104c0 41 -27 73 -70 73zM645 15c47 0 77 32 77 84c0 53 -38 88 -94 133c-47 -40 -74 -80 -74 -126
c0 -47 30 -91 91 -91z" />
    <glyph glyph-name="threeeighths" unicode="&#x215c;" horiz-adv-x="927" 
d="M356 455c0 -91 -81 -147 -170 -147c-53 0 -113 16 -113 47c0 15 14 24 32 24c21 0 31 -11 40 -22c11 -14 24 -24 52 -24c44 0 88 36 88 107c0 91 -56 122 -127 128v14c59 19 96 56 96 113c0 40 -24 73 -72 73c-50 0 -77 -30 -88 -69h-16c11 71 60 113 132 113
c65 0 115 -39 115 -108c0 -53 -36 -91 -95 -115v-2c73 -8 126 -53 126 -132zM697 800h43l-497 -800h-43zM762 272c62 -49 105 -98 105 -160c0 -74 -61 -122 -143 -122c-87 0 -142 52 -142 116c0 62 46 102 103 145c-57 48 -90 83 -90 136c0 64 58 107 132 107
c79 0 127 -45 127 -101c0 -54 -41 -84 -92 -121zM730 469c-43 0 -71 -29 -71 -70c0 -35 22 -62 79 -107c46 39 61 68 61 104c0 41 -26 73 -69 73zM726 15c47 0 77 32 77 84c0 53 -38 88 -94 133c-47 -40 -73 -80 -73 -126c0 -47 30 -91 90 -91z" />
    <glyph glyph-name="fiveeighths" unicode="&#x215d;" horiz-adv-x="896" 
d="M346 500c0 -129 -84 -192 -175 -192c-56 0 -102 17 -102 45c0 16 12 24 29 24c21 0 29 -13 39 -25c9 -11 20 -19 45 -19c42 0 88 50 88 153c0 95 -34 132 -85 132c-28 0 -48 -10 -66 -26l-23 14l48 194h193l-14 -53h-156l-31 -121l2 -2c23 17 50 25 78 25
c72 0 130 -60 130 -149zM666 800h43l-497 -800h-43zM731 273c62 -50 105 -99 105 -161c0 -74 -61 -122 -143 -122c-87 0 -143 52 -143 116c0 62 46 103 104 146c-57 47 -90 82 -90 135c0 64 57 107 132 107c79 0 126 -45 126 -101c0 -54 -40 -84 -91 -120zM698 469
c-42 0 -71 -29 -71 -70c0 -35 23 -62 79 -107c46 39 62 68 62 104c0 41 -26 73 -70 73zM695 15c47 0 77 32 77 84c0 53 -38 88 -94 133c-47 -40 -73 -80 -73 -126c0 -47 29 -91 90 -91z" />
    <glyph glyph-name="seveneighths" unicode="&#x215e;" horiz-adv-x="844" 
d="M295 747h-163c-36 0 -50 -12 -64 -72l-14 3l18 75l10 47h283l-165 -487l-46 11l141 421v2zM614 800h43l-497 -800h-43zM679 272c63 -49 104 -98 104 -160c0 -74 -61 -122 -142 -122c-88 0 -143 52 -143 116c0 62 46 103 104 145c-58 48 -91 83 -91 136
c0 64 58 107 133 107c79 0 126 -45 126 -101c0 -54 -41 -84 -91 -121zM646 469c-43 0 -71 -29 -71 -70c0 -35 22 -62 79 -107c46 39 62 68 62 104c0 41 -27 73 -70 73zM643 15c47 0 77 32 77 84c0 53 -38 88 -94 133c-47 -40 -74 -80 -74 -126c0 -47 30 -91 91 -91z" />
    <glyph glyph-name="period" unicode="." horiz-adv-x="218" 
d="M109 -20c-33 0 -59 26 -59 59c0 32 26 59 59 59c32 0 59 -27 59 -59c0 -33 -27 -59 -59 -59z" />
    <glyph glyph-name="comma" unicode="," horiz-adv-x="234" 
d="M99 -20c-31 0 -49 26 -49 57c0 37 27 61 63 61c38 0 71 -33 71 -90c0 -77 -40 -141 -130 -184v23c47 24 93 66 93 123c0 16 -3 24 -10 24c-9 0 -16 -14 -38 -14z" />
    <glyph glyph-name="colon" unicode=":" horiz-adv-x="218" 
d="M109 424c-33 0 -59 26 -59 59c0 32 26 58 59 58c32 0 59 -26 59 -58c0 -33 -27 -59 -59 -59zM109 -20c-33 0 -59 26 -59 59c0 32 26 59 59 59c32 0 59 -27 59 -59c0 -33 -27 -59 -59 -59z" />
    <glyph glyph-name="semicolon" unicode=";" horiz-adv-x="234" 
d="M118 424c-33 0 -59 26 -59 59c0 32 26 58 59 58c32 0 58 -26 58 -58c0 -33 -26 -59 -58 -59zM99 -20c-31 0 -49 26 -49 57c0 37 27 61 63 61c38 0 71 -33 71 -90c0 -77 -40 -141 -130 -184v23c47 24 93 66 93 123c0 16 -3 24 -10 24c-9 0 -16 -14 -38 -14z" />
    <glyph glyph-name="ellipsis" unicode="&#x2026;" horiz-adv-x="690" 
d="M109 -20c-33 0 -59 26 -59 59c0 32 26 59 59 59c32 0 59 -27 59 -59c0 -33 -27 -59 -59 -59zM345 -20c-32 0 -58 26 -58 59c0 32 26 59 58 59c33 0 59 -27 59 -59c0 -33 -26 -59 -59 -59zM582 -20c-33 0 -59 26 -59 59c0 32 26 59 59 59c32 0 58 -27 58 -59
c0 -33 -26 -59 -58 -59z" />
    <glyph glyph-name="exclam" unicode="!" horiz-adv-x="221" 
d="M56 735c0 62 22 85 55 85s54 -23 54 -85c0 -121 -38 -274 -41 -537h-24c-3 263 -44 416 -44 537zM111 -20c-33 0 -59 26 -59 59c0 32 26 59 59 59c32 0 58 -27 58 -59c0 -33 -26 -59 -58 -59z" />
    <glyph glyph-name="exclamdown" unicode="&#xa1;" horiz-adv-x="221" 
d="M111 548c32 0 58 -27 58 -59c0 -33 -26 -59 -58 -59c-33 0 -59 26 -59 59c0 32 26 59 59 59zM56 -208c0 122 41 275 44 538h24c3 -263 41 -416 41 -538c0 -61 -21 -85 -54 -85s-55 24 -55 85z" />
    <glyph glyph-name="question" unicode="?" horiz-adv-x="473" 
d="M316 666c0 69 -32 113 -92 113c-53 0 -81 -39 -81 -81c0 -45 25 -49 25 -85c0 -31 -25 -45 -53 -45c-37 0 -65 37 -65 95c0 83 70 157 185 157c113 0 188 -61 188 -152c0 -173 -193 -184 -193 -470h-24c0 320 110 323 110 468zM218 -20c-32 0 -58 26 -58 59
c0 32 26 59 58 59c33 0 59 -27 59 -59c0 -33 -26 -59 -59 -59z" />
    <glyph glyph-name="questiondown" unicode="&#xbf;" horiz-adv-x="453" 
d="M235 540c32 0 59 -26 59 -59c0 -32 -27 -58 -59 -58c-33 0 -59 26 -59 58c0 33 26 59 59 59zM138 -146c0 -69 31 -113 91 -113c53 0 82 39 82 81c0 45 -26 49 -26 85c0 31 25 45 53 45c37 0 65 -37 65 -95c0 -83 -70 -157 -185 -157c-113 0 -188 61 -188 152
c0 173 194 184 194 471h23c0 -321 -109 -324 -109 -469z" />
    <glyph glyph-name="periodcentered" unicode="&#xb7;" horiz-adv-x="218" 
d="M109 340c-33 0 -59 26 -59 59c0 32 26 59 59 59c32 0 59 -27 59 -59c0 -33 -27 -59 -59 -59z" />
    <glyph glyph-name="bullet" unicode="&#x2022;" horiz-adv-x="394" 
d="M197 242c-81 0 -147 65 -147 147c0 81 66 146 147 146s147 -65 147 -146c0 -82 -66 -147 -147 -147z" />
    <glyph glyph-name="asterisk" unicode="*" horiz-adv-x="467" 
d="M392 573c25 -14 31 -40 19 -60c-11 -21 -37 -29 -62 -14c-40 23 -43 60 -107 101c4 -75 35 -98 35 -143c0 -29 -20 -47 -43 -47c-24 0 -43 18 -43 47c0 45 33 69 37 145c-66 -42 -70 -80 -109 -103c-26 -15 -51 -7 -63 14c-12 20 -6 46 20 60c39 23 75 5 144 41
c-69 36 -105 20 -144 43c-26 14 -32 40 -20 61c12 20 37 28 63 14c39 -24 42 -65 109 -107c-3 79 -37 102 -37 148c0 29 19 47 43 47c23 0 43 -18 43 -47c0 -46 -32 -69 -35 -146c65 41 67 81 107 105c25 14 51 6 62 -14c12 -21 6 -47 -19 -61c-40 -23 -76 -7 -144 -43
c68 -36 104 -18 144 -41z" />
    <glyph glyph-name="numbersign" unicode="#" horiz-adv-x="858" 
d="M795 534h-151l-74 -255h155v-67h-174l-67 -232h-68l67 232h-216l-67 -232h-68l67 232h-136v67h155l74 255h-159v67h178l63 219h68l-63 -219h216l63 219h68l-63 -219h132v-67zM502 279l74 255h-216l-74 -255h216z" />
    <glyph glyph-name="slash" unicode="/" horiz-adv-x="331" 
d="M262 820h69l-262 -820h-69z" />
    <glyph glyph-name="backslash" unicode="\" horiz-adv-x="293" 
d="M31 820l262 -820h-68l-263 820h69z" />
    <glyph glyph-name="colon.case" horiz-adv-x="218" 
d="M109 590c-33 0 -59 26 -59 59c0 32 26 59 59 59c32 0 59 -27 59 -59c0 -33 -27 -59 -59 -59zM109 120c-33 0 -59 26 -59 59c0 32 26 59 59 59c32 0 59 -27 59 -59c0 -33 -27 -59 -59 -59z" />
    <glyph glyph-name="periodcentered.case" horiz-adv-x="218" 
d="M109 355c-33 0 -59 26 -59 59c0 32 26 59 59 59c32 0 59 -27 59 -59c0 -33 -27 -59 -59 -59z" />
    <glyph glyph-name="bullet.case" horiz-adv-x="394" 
d="M197 278c-81 0 -147 66 -147 147s66 147 147 147s147 -66 147 -147s-66 -147 -147 -147z" />
    <glyph glyph-name="parenleft" unicode="(" horiz-adv-x="386" 
d="M356 -276v-24c-171 112 -306 301 -306 560c0 263 124 461 289 560v-24c-121 -113 -174 -319 -174 -536c0 -203 62 -413 191 -536z" />
    <glyph glyph-name="parenright" unicode=")" horiz-adv-x="386" 
d="M30 -276c129 123 191 333 191 536c0 217 -53 423 -174 536v24c165 -99 289 -297 289 -560c0 -259 -135 -448 -306 -560v24z" />
    <glyph glyph-name="braceleft" unicode="{" horiz-adv-x="401" 
d="M371 796c-110 -19 -134 -81 -134 -134c0 -80 52 -132 52 -228c0 -117 -92 -165 -161 -172v-3c69 -7 161 -56 161 -173c0 -96 -52 -148 -52 -228c0 -53 24 -115 134 -134v-24c-187 20 -212 128 -212 192c0 92 33 154 33 236c0 80 -60 120 -142 120v24c82 0 142 40 142 121
s-33 143 -33 235c0 64 25 172 212 192v-24z" />
    <glyph glyph-name="braceright" unicode="}" horiz-adv-x="401" 
d="M351 248c-81 0 -142 -40 -142 -120c0 -82 33 -144 33 -236c0 -64 -25 -172 -212 -192v24c110 19 135 81 135 134c0 80 -52 132 -52 228c0 117 92 166 161 173v3c-69 7 -161 55 -161 172c0 96 52 148 52 228c0 53 -25 115 -135 134v24c187 -20 212 -128 212 -192
c0 -92 -33 -154 -33 -235s61 -121 142 -121v-24z" />
    <glyph glyph-name="bracketleft" unicode="[" horiz-adv-x="294" 
d="M264 779h-99v-1038h99v-41h-214v1120h214v-41z" />
    <glyph glyph-name="bracketright" unicode="]" horiz-adv-x="294" 
d="M244 820v-1120h-214v41h99v1038h-99v41h214z" />
    <glyph glyph-name="parenleft.case" horiz-adv-x="386" 
d="M356 -136v-24c-171 112 -306 301 -306 560c0 263 124 461 289 560v-24c-121 -113 -174 -319 -174 -536c0 -203 62 -413 191 -536z" />
    <glyph glyph-name="parenright.case" horiz-adv-x="386" 
d="M30 -136c129 123 191 333 191 536c0 217 -53 423 -174 536v24c165 -99 289 -297 289 -560c0 -259 -135 -448 -306 -560v24z" />
    <glyph glyph-name="braceleft.case" horiz-adv-x="401" 
d="M371 936c-110 -19 -134 -81 -134 -134c0 -80 52 -132 52 -228c0 -117 -92 -165 -161 -172v-3c69 -7 161 -56 161 -173c0 -96 -52 -148 -52 -228c0 -53 24 -115 134 -134v-24c-187 20 -212 128 -212 192c0 92 33 154 33 236c0 80 -60 120 -142 120v24c82 0 142 40 142 121
s-33 143 -33 235c0 64 25 172 212 192v-24z" />
    <glyph glyph-name="braceright.case" horiz-adv-x="401" 
d="M351 388c-81 0 -142 -40 -142 -120c0 -82 33 -144 33 -236c0 -64 -25 -172 -212 -192v24c110 19 135 81 135 134c0 80 -52 132 -52 228c0 117 92 166 161 173v3c-69 7 -161 55 -161 172c0 96 52 148 52 228c0 53 -25 115 -135 134v24c187 -20 212 -128 212 -192
c0 -92 -33 -154 -33 -235s61 -121 142 -121v-24z" />
    <glyph glyph-name="bracketleft.case" horiz-adv-x="294" 
d="M264 919h-99v-1038h99v-41h-214v1120h214v-41z" />
    <glyph glyph-name="bracketright.case" horiz-adv-x="294" 
d="M244 960v-1120h-214v41h99v1038h-99v41h214z" />
    <glyph glyph-name="hyphen" unicode="-" horiz-adv-x="445" 
d="M50 233v74h345v-74h-345z" />
    <glyph glyph-name="endash" unicode="&#x2013;" horiz-adv-x="600" 
d="M0 233v74h600v-74h-600z" />
    <glyph glyph-name="emdash" unicode="&#x2014;" horiz-adv-x="1200" 
d="M0 233v74h1200v-74h-1200z" />
    <glyph glyph-name="underscore" unicode="_" horiz-adv-x="700" 
d="M700 -143h-700v53h700v-53z" />
    <glyph glyph-name="hyphen.case" horiz-adv-x="400" 
d="M50 363v74h345v-74h-345z" />
    <glyph glyph-name="endash.case" horiz-adv-x="600" 
d="M0 363v74h600v-74h-600z" />
    <glyph glyph-name="emdash.case" horiz-adv-x="1200" 
d="M0 363v74h1200v-74h-1200z" />
    <glyph glyph-name="quotesinglbase" unicode="&#x201a;" horiz-adv-x="234" 
d="M99 -20c-31 0 -49 26 -49 57c0 37 27 61 64 61c39 0 70 -32 70 -83c0 -63 -40 -124 -130 -168v24c47 23 93 65 93 104c0 13 -3 19 -10 19c-9 0 -16 -14 -38 -14z" />
    <glyph glyph-name="quotedblbase" unicode="&#x201e;" horiz-adv-x="423" 
d="M99 -20c-31 0 -49 26 -49 57c0 37 27 61 64 61c39 0 70 -32 70 -83c0 -63 -40 -124 -130 -168v24c47 23 93 65 93 104c0 13 -3 19 -10 19c-9 0 -16 -14 -38 -14zM291 -20c-31 0 -49 26 -49 57c0 37 27 61 64 61c39 0 71 -32 71 -83c0 -63 -41 -124 -131 -168v24
c47 23 93 65 93 104c0 13 -3 19 -10 19c-9 0 -16 -14 -38 -14z" />
    <glyph glyph-name="quotedblleft" unicode="&#x201c;" horiz-adv-x="423" 
d="M132 688c30 0 49 -27 49 -57c0 -37 -27 -61 -64 -61c-39 0 -71 31 -71 82c0 64 41 125 131 168v-24c-47 -23 -93 -64 -93 -104c0 -12 3 -18 10 -18c9 0 15 14 38 14zM324 688c31 0 49 -27 49 -57c0 -37 -27 -61 -64 -61c-39 0 -71 31 -71 82c0 64 41 125 131 168v-24
c-47 -23 -93 -64 -93 -104c0 -12 3 -18 10 -18c9 0 16 14 38 14z" />
    <glyph glyph-name="quotedblright" unicode="&#x201d;" horiz-adv-x="423" 
d="M99 703c-31 0 -49 26 -49 56c0 37 27 61 64 61c39 0 70 -31 70 -82c0 -63 -40 -125 -130 -168v24c47 23 93 64 93 104c0 12 -3 18 -10 18c-9 0 -16 -13 -38 -13zM291 703c-31 0 -49 26 -49 56c0 37 27 61 64 61c39 0 71 -31 71 -82c0 -63 -41 -125 -131 -168v24
c47 23 93 64 93 104c0 12 -3 18 -10 18c-9 0 -16 -13 -38 -13z" />
    <glyph glyph-name="quoteleft" unicode="&#x2018;" horiz-adv-x="234" 
d="M136 688c30 0 48 -27 48 -57c0 -37 -26 -61 -63 -61c-39 0 -71 31 -71 82c0 64 40 125 131 168v-24c-47 -23 -94 -64 -94 -104c0 -12 4 -18 11 -18c9 0 15 14 38 14z" />
    <glyph glyph-name="quoteright" unicode="&#x2019;" horiz-adv-x="234" 
d="M99 703c-31 0 -49 26 -49 56c0 37 27 61 64 61c39 0 70 -31 70 -82c0 -63 -40 -125 -130 -168v24c47 23 93 64 93 104c0 12 -3 18 -10 18c-9 0 -16 -13 -38 -13z" />
    <glyph glyph-name="guillemotleft" unicode="&#xab;" horiz-adv-x="462" 
d="M146 293l105 -244h-23l-170 244l170 241h23zM314 293l105 -244h-23l-171 244l171 241h23z" />
    <glyph glyph-name="guillemotright" unicode="&#xbb;" horiz-adv-x="462" 
d="M148 293l-105 241h23l170 -241l-170 -244h-23zM316 293l-106 241h24l170 -241l-170 -244h-24z" />
    <glyph glyph-name="guilsinglleft" unicode="&#x2039;" horiz-adv-x="294" 
d="M146 293l105 -244h-23l-170 244l170 241h23z" />
    <glyph glyph-name="guilsinglright" unicode="&#x203a;" horiz-adv-x="294" 
d="M148 293l-105 241h23l170 -241l-170 -244h-23z" />
    <glyph glyph-name="quotedbl" unicode="&#x22;" horiz-adv-x="341" 
d="M50 764c0 37 16 56 43 56c28 0 43 -19 43 -56c0 -60 -17 -120 -30 -219h-24c-12 99 -32 159 -32 219zM205 764c0 37 16 56 43 56c28 0 43 -19 43 -56c0 -60 -17 -120 -30 -219h-24c-12 99 -32 159 -32 219z" />
    <glyph glyph-name="quotesingle" unicode="'" horiz-adv-x="199" 
d="M56 764c0 37 16 56 43 56c28 0 44 -19 44 -56c0 -60 -18 -120 -31 -219h-23c-13 99 -33 159 -33 219z" />
    <glyph glyph-name="guillemotleft.case" horiz-adv-x="462" 
d="M146 402l105 -244h-23l-170 244l170 241h23zM314 402l105 -244h-23l-171 244l171 241h23z" />
    <glyph glyph-name="guillemotright.case" horiz-adv-x="462" 
d="M148 402l-105 241h23l170 -241l-170 -244h-23zM316 402l-106 241h24l170 -241l-170 -244h-24z" />
    <glyph glyph-name="guilsinglleft.case" horiz-adv-x="294" 
d="M146 402l105 -244h-23l-170 244l170 241h23z" />
    <glyph glyph-name="guilsinglright.case" horiz-adv-x="294" 
d="M148 402l-105 241h23l170 -241l-170 -244h-23z" />
    <glyph glyph-name="cent" unicode="&#xa2;" horiz-adv-x="477" 
d="M400 208h23c-21 -152 -83 -228 -184 -228c-15 0 -29 2 -43 5l-50 -205h-35l53 216c-78 36 -121 130 -121 258c0 181 87 294 210 294c16 0 31 -2 45 -6l63 258h35l-66 -270c47 -24 77 -68 77 -113c0 -34 -17 -54 -51 -54c-30 0 -50 14 -56 44l-84 -341
c18 -15 39 -23 63 -23c52 0 90 41 121 165zM150 279c0 -78 14 -140 39 -181l95 387c-8 13 -19 21 -37 21c-66 0 -97 -91 -97 -227z" />
    <glyph glyph-name="currency" unicode="&#xa4;" horiz-adv-x="654" 
d="M554 364c0 -51 -17 -97 -45 -135l95 -94l-48 -48l-94 95c-38 -28 -84 -45 -135 -45s-98 17 -135 45l-94 -95l-48 48l94 94c-28 38 -44 85 -44 135c0 51 16 97 44 135l-94 94l48 48l94 -94c37 28 84 44 135 44s97 -17 135 -45l94 95l48 -48l-95 -94c28 -37 45 -84 45 -135
zM168 364c0 -87 68 -159 159 -159s159 72 159 159c0 88 -68 159 -159 159s-159 -71 -159 -159z" />
    <glyph glyph-name="dollar" unicode="$" horiz-adv-x="533" 
d="M483 187c0 -132 -93 -204 -200 -207v-75h-34v76c-86 4 -147 31 -199 64v190h24c0 -160 80 -209 175 -214v313c-13 10 -27 21 -41 33c-116 96 -152 152 -152 240c0 113 87 173 193 173v68h34v-70c65 -6 120 -31 164 -66v-138h-24c0 113 -56 158 -140 164v-271l12 -9
c122 -100 188 -152 188 -271zM141 642c0 -58 42 -97 108 -149v246c-72 -5 -108 -47 -108 -97zM283 22c76 7 115 57 115 121c0 57 -47 106 -115 163v-284z" />
    <glyph glyph-name="Euro" unicode="&#x20ac;" horiz-adv-x="675" 
d="M601 298h24c-21 -187 -85 -318 -234 -318c-155 0 -253 152 -269 359h-72l12 34h58v27c0 13 0 25 1 37h-71l12 34h61c19 205 121 349 277 349c79 0 142 -37 193 -92v-185h-24c-7 171 -73 236 -148 236c-108 0 -164 -130 -176 -308h243l-12 -34h-232c-1 -12 -1 -24 -1 -37
v-27h213l-11 -34h-200c10 -182 66 -310 174 -310c98 0 164 99 182 269z" />
    <glyph glyph-name="sterling" unicode="&#xa3;" horiz-adv-x="575" 
d="M502 205h23c-7 -77 -23 -225 -137 -225c-54 0 -105 39 -150 75c-30 -46 -67 -75 -108 -75c-48 0 -80 33 -80 85c0 57 42 90 91 90c21 0 40 -4 57 -10c4 35 6 74 6 114c0 45 -4 81 -9 114h-106v34h100c-13 67 -31 122 -31 209c0 121 61 204 186 204c90 0 149 -55 149 -116
c0 -30 -24 -51 -54 -51c-29 0 -55 18 -55 49c0 37 4 77 -47 77c-60 0 -83 -60 -83 -140c0 -90 26 -143 39 -232h127v-34h-123c2 -21 3 -43 3 -68c0 -71 -13 -139 -34 -194c34 -18 70 -35 120 -35c65 0 101 42 116 129zM129 21c30 0 48 28 59 71c-19 13 -37 21 -54 21
c-26 0 -43 -19 -43 -47c0 -25 13 -45 38 -45z" />
    <glyph glyph-name="yen" unicode="&#xa5;" horiz-adv-x="808" 
d="M733 776c-61 0 -87 -11 -114 -70l-137 -301h220v-34h-235l-9 -19v-68h244v-34h-244v-147c0 -61 13 -79 106 -79v-24h-326v24c94 0 107 18 107 79v147h-239v34h239v68l-9 19h-230v34h213l-152 303c-29 58 -56 68 -117 68v24h311v-24c-93 0 -88 -14 -61 -69l142 -285h3
l129 284c25 56 29 70 -64 70v24h223v-24z" />
    <glyph glyph-name="plus" unicode="+" horiz-adv-x="510" 
d="M50 233v74h169v168h74v-168h167v-74h-167v-168h-74v168h-169z" />
    <glyph glyph-name="minus" unicode="&#x2212;" horiz-adv-x="445" 
d="M50 233v74h345v-74h-345z" />
    <glyph glyph-name="multiply" unicode="&#xd7;" horiz-adv-x="443" 
d="M50 387l52 52l120 -119l119 118l52 -52l-119 -119l118 -118l-52 -52l-118 118l-119 -119l-52 53l119 118z" />
    <glyph glyph-name="divide" unicode="&#xf7;" horiz-adv-x="445" 
d="M223 398c-25 0 -47 21 -47 46s22 46 47 46s46 -21 46 -46s-21 -46 -46 -46zM50 233v74h345v-74h-345zM223 50c-25 0 -47 21 -47 46s22 47 47 47s46 -22 46 -47s-21 -46 -46 -46z" />
    <glyph glyph-name="equal" unicode="=" horiz-adv-x="445" 
d="M50 324v74h345v-74h-345zM50 142v74h345v-74h-345z" />
    <glyph glyph-name="notequal" unicode="&#x2260;" horiz-adv-x="445" 
d="M395 324h-133l-43 -108h176v-74h-205l-56 -139h-36l56 139h-104v74h133l43 108h-176v74h206l56 140h36l-56 -140h103v-74z" />
    <glyph glyph-name="greater" unicode="&#x3e;" horiz-adv-x="468" 
d="M50 106v77l305 88v3l-305 88v78l368 -114v-107z" />
    <glyph glyph-name="less" unicode="&#x3c;" horiz-adv-x="460" 
d="M410 106l-367 113v107l367 114v-78l-305 -88v-3l305 -88v-77z" />
    <glyph glyph-name="greaterequal" unicode="&#x2265;" horiz-adv-x="468" 
d="M50 161v77l305 88v3l-305 88v78l368 -114v-107zM50 66v73h368v-73h-368z" />
    <glyph glyph-name="lessequal" unicode="&#x2264;" horiz-adv-x="468" 
d="M418 161l-368 113v107l368 114v-78l-306 -88v-3l306 -88v-77zM418 66h-368v73h368v-73z" />
    <glyph glyph-name="plusminus" unicode="&#xb1;" horiz-adv-x="510" 
d="M50 307v74h169v168h74v-168h167v-74h-167v-168h-74v168h-169zM50 41v73h410v-73h-410z" />
    <glyph glyph-name="approxequal" unicode="&#x2248;" horiz-adv-x="618" 
d="M544 440h24c-4 -93 -52 -152 -130 -152c-99 0 -168 80 -267 80c-50 0 -86 -23 -97 -79h-24c4 93 52 152 129 152c100 0 169 -80 267 -80c51 0 87 23 98 79zM544 250h24c-4 -93 -52 -152 -130 -152c-99 0 -168 80 -267 80c-50 0 -86 -23 -97 -79h-24c4 93 52 152 129 152
c100 0 169 -80 267 -80c51 0 87 23 98 79z" />
    <glyph glyph-name="asciitilde" unicode="~" horiz-adv-x="618" 
d="M544 345h24c-4 -93 -52 -152 -130 -152c-99 0 -168 80 -267 80c-50 0 -86 -23 -97 -79h-24c4 93 52 152 129 152c100 0 169 -80 267 -80c51 0 87 23 98 79z" />
    <glyph glyph-name="logicalnot" unicode="&#xac;" horiz-adv-x="596" 
d="M50 439h496v-287h-74v213h-422v74z" />
    <glyph glyph-name="asciicircum" unicode="^" horiz-adv-x="578" 
d="M50 389l195 411h86l197 -411h-82l-157 337h-3l-154 -337h-82z" />
    <glyph glyph-name="emptyset" unicode="&#x2205;" horiz-adv-x="651" 
d="M601 554l-82 -82c37 -44 60 -102 60 -164c0 -140 -114 -254 -254 -254c-63 0 -120 23 -164 61l-82 -82l-29 29l82 82c-37 44 -60 101 -60 164c0 140 113 254 253 254c63 0 120 -23 165 -61l82 82zM113 308c0 -51 18 -98 48 -135l299 299c-37 30 -84 48 -135 48
c-117 0 -212 -95 -212 -212zM538 308c0 51 -18 98 -49 135l-299 -299c37 -30 84 -48 135 -48c117 0 213 95 213 212z" />
    <glyph glyph-name="infinity" unicode="&#x221e;" horiz-adv-x="918" 
d="M689 592c98 0 179 -67 179 -182c0 -122 -84 -192 -181 -192c-100 0 -159 61 -232 139c-97 -87 -166 -119 -247 -119c-86 0 -158 59 -158 165c0 99 71 169 172 169c85 0 146 -60 207 -125c105 98 168 145 260 145zM687 266c72 0 139 52 139 149c0 71 -51 122 -122 122
c-78 0 -123 -61 -206 -141c-4 -3 -7 -7 -11 -10c68 -71 123 -120 200 -120zM194 293c57 0 102 27 204 124c-71 72 -120 108 -181 108c-75 0 -126 -56 -126 -125c0 -64 45 -107 103 -107z" />
    <glyph glyph-name="integral" unicode="&#x222b;" horiz-adv-x="440" 
d="M335 15c0 -114 -47 -195 -155 -195c-78 0 -130 47 -130 105c0 26 13 47 42 47s42 -18 44 -45c2 -34 3 -66 44 -66c51 0 66 64 66 143c0 216 -141 415 -141 641c0 114 51 195 159 195c74 0 126 -47 126 -105c0 -26 -13 -47 -42 -47s-42 18 -44 45c-2 34 -3 66 -44 66
c-51 0 -66 -64 -66 -150c0 -209 141 -408 141 -634z" />
    <glyph glyph-name="product" unicode="&#x220f;" horiz-adv-x="877" 
d="M827 796c-93 0 -107 -18 -107 -79v-774c0 -61 14 -79 107 -79v-24h-310v24c94 0 107 18 107 79v836h-371v-836c0 -61 14 -79 107 -79v-24h-310v24c93 0 107 18 107 79v774c0 61 -14 79 -107 79v24h777v-24z" />
    <glyph glyph-name="summation" unicode="&#x2211;" horiz-adv-x="721" 
d="M627 820l3 -28l16 -157l-24 -2c-13 125 -33 146 -94 146h-346l270 -379l-305 -464h390c61 0 83 26 105 178l23 -3l-27 -191l-12 -80h-576v24l319 484v3l-319 445v24h577z" />
    <glyph glyph-name="radical" unicode="&#x221a;" horiz-adv-x="675" 
d="M656 887l-168 -949h-35l-264 519l-119 -59l-20 36l206 103l218 -440h3l138 790h41z" />
    <glyph glyph-name="partialdiff" unicode="&#x2202;" horiz-adv-x="664" 
d="M387 820c170 0 251 -152 220 -436c-29 -279 -154 -444 -322 -444c-169 0 -260 126 -229 322c26 160 146 256 285 256c125 0 188 -60 226 -121c24 254 -80 342 -196 342c-69 0 -138 -22 -197 -100h-23c42 98 119 181 236 181zM289 -19c152 0 243 156 274 378
c-35 64 -94 117 -195 117c-99 0 -192 -82 -217 -230c-25 -150 17 -265 138 -265z" />
    <glyph glyph-name="percent" unicode="%" horiz-adv-x="777" 
d="M189 410c-78 0 -139 90 -139 204c0 116 61 206 139 206c76 0 137 -90 137 -206c0 -114 -61 -204 -137 -204zM615 800h43l-497 -800h-43zM189 440c49 0 64 79 64 174c0 97 -15 176 -64 176c-51 0 -65 -79 -65 -176c0 -95 14 -174 65 -174zM589 -20c-78 0 -139 90 -139 205
c0 116 61 206 139 206c76 0 138 -90 138 -206c0 -115 -62 -205 -138 -205zM589 10c49 0 64 79 64 175c0 97 -15 176 -64 176c-51 0 -65 -79 -65 -176c0 -96 14 -175 65 -175z" />
    <glyph glyph-name="perthousand" unicode="&#x2030;" horiz-adv-x="1061" 
d="M189 410c-78 0 -139 90 -139 204c0 116 61 206 139 206c76 0 137 -90 137 -206c0 -114 -61 -204 -137 -204zM592 800h43l-497 -800h-43zM189 440c49 0 64 79 64 174c0 97 -15 176 -64 176c-51 0 -65 -79 -65 -176c0 -95 14 -174 65 -174zM541 -20c-78 0 -139 90 -139 205
c0 116 61 206 139 206c76 0 138 -90 138 -206c0 -115 -62 -205 -138 -205zM873 -20c-77 0 -138 90 -138 205c0 116 61 206 138 206s138 -90 138 -206c0 -115 -61 -205 -138 -205zM541 10c49 0 64 79 64 175c0 97 -15 176 -64 176c-51 0 -65 -79 -65 -176
c0 -96 14 -175 65 -175zM873 10c50 0 64 79 64 175c0 97 -14 176 -64 176s-64 -79 -64 -176c0 -96 14 -175 64 -175z" />
    <glyph glyph-name="arrowup" unicode="&#x2191;" horiz-adv-x="570" 
d="M314 -63h-58v507c0 68 19 105 19 164h-3c-52 -117 -110 -160 -169 -198l-49 56c105 57 165 117 214 225h35c49 -108 108 -168 213 -225l-48 -56c-60 38 -118 81 -170 198h-3c0 -59 19 -96 19 -164v-507z" />
    <glyph glyph-name="uni2197" unicode="&#x2197;" horiz-adv-x="671" 
d="M97 -8l-41 42l358 358c48 48 87 60 129 102l-2 2c-119 -45 -190 -35 -260 -20l6 74c115 -34 199 -34 310 8l25 -24c-42 -112 -42 -196 -8 -311l-75 -5c-14 69 -25 141 20 260l-2 2c-41 -42 -54 -82 -102 -130z" />
    <glyph glyph-name="arrowright" unicode="&#x2192;" horiz-adv-x="854" 
d="M50 241v58h507c68 0 104 -19 163 -19v3c-116 52 -159 110 -198 170l57 48c57 -105 117 -164 225 -213v-35c-108 -49 -168 -109 -225 -214l-57 49c39 59 82 117 198 169v3c-59 0 -96 -19 -163 -19h-507z" />
    <glyph glyph-name="uni2198" unicode="&#x2198;" horiz-adv-x="671" 
d="M97 548l358 -358c48 -48 61 -88 102 -130l2 2c-45 119 -34 191 -20 260l75 -5c-34 -115 -34 -199 8 -311l-25 -24c-111 42 -195 42 -310 8l-6 74c70 15 141 25 260 -20l2 2c-42 42 -81 54 -129 102l-358 358z" />
    <glyph glyph-name="arrowdown" unicode="&#x2193;" horiz-adv-x="570" 
d="M314 628v-507c0 -68 -19 -105 -19 -164h3c52 117 110 160 170 198l48 -56c-105 -57 -164 -117 -213 -225h-35c-49 108 -109 168 -214 225l49 56c59 -38 117 -81 169 -198h3c0 59 -19 96 -19 164v507h58z" />
    <glyph glyph-name="uni2199" unicode="&#x2199;" horiz-adv-x="671" 
d="M573 548l42 -42l-358 -358c-48 -48 -88 -60 -130 -102l3 -2c119 45 190 35 259 20l-5 -74c-115 34 -199 34 -310 -8l-25 24c42 112 42 196 8 311l74 5c15 -69 26 -141 -20 -260l2 -2c42 42 54 82 102 130z" />
    <glyph glyph-name="arrowleft" unicode="&#x2190;" horiz-adv-x="854" 
d="M804 241h-507c-68 0 -104 19 -163 19v-3c116 -52 159 -110 198 -169l-57 -49c-57 105 -117 165 -225 214v35c108 49 168 108 225 213l57 -48c-39 -60 -82 -118 -198 -170v-3c59 0 95 19 163 19h507v-58z" />
    <glyph glyph-name="uni2196" unicode="&#x2196;" horiz-adv-x="671" 
d="M573 -8l-358 358c-48 48 -60 88 -102 130l-2 -2c46 -119 35 -191 20 -260l-74 5c34 115 34 199 -8 311l25 24c111 -42 195 -42 310 -8l5 -74c-69 -15 -140 -25 -259 20l-3 -2c42 -42 82 -54 130 -102l358 -358z" />
    <glyph glyph-name="arrowboth" unicode="&#x2194;" horiz-adv-x="1154" 
d="M879 501c57 -105 117 -164 225 -213v-35c-108 -49 -168 -109 -225 -214l-57 49c39 59 82 117 198 169v3c-59 0 -96 -19 -163 -19h-560c-68 0 -104 19 -163 19v-3c116 -52 159 -110 198 -169l-57 -49c-57 105 -117 165 -225 214v35c108 49 168 108 225 213l57 -48
c-39 -60 -82 -118 -198 -170v-3c59 0 95 19 163 19h560c68 0 104 -19 163 -19v3c-116 52 -159 110 -198 170z" />
    <glyph glyph-name="arrowupdn" unicode="&#x2195;" horiz-adv-x="563" 
d="M294 -176c52 116 110 159 170 198l49 -57c-106 -57 -165 -117 -214 -225h-35c-49 108 -109 168 -214 225l49 57c59 -39 117 -82 169 -198h3c0 59 -19 95 -19 163v560c0 67 19 104 19 163h-3c-52 -116 -110 -159 -169 -198l-49 57c105 57 165 117 214 225h35
c49 -108 108 -168 214 -225l-49 -57c-60 39 -118 82 -170 198h-3c0 -59 20 -95 20 -163v-560c0 -68 -20 -104 -20 -163h3z" />
    <glyph glyph-name="lozenge" unicode="&#x25ca;" horiz-adv-x="578" 
d="M331 800l197 -411l-197 -411h-86l-195 411l195 411h86zM289 52l157 337l-157 337h-3l-154 -337l154 -337h3z" />
    <glyph glyph-name="at" unicode="@" horiz-adv-x="1074" 
d="M62 338c53 271 274 438 506 438c299 0 429 -249 391 -477c-34 -206 -164 -319 -283 -319c-99 0 -100 66 -92 107l3 16h-4c-53 -79 -100 -123 -177 -123c-106 0 -154 119 -116 267c43 168 157 293 273 293c56 0 85 -32 98 -77h2l16 73l75 5l-87 -413
c-14 -66 -13 -107 37 -107c75 0 189 88 221 278c35 204 -74 443 -357 443c-236 0 -408 -170 -458 -404c-69 -321 108 -560 409 -560c252 0 395 136 471 295h34c-77 -178 -240 -329 -505 -329c-327 0 -522 256 -457 594zM367 268c-30 -130 -5 -225 83 -225
c68 0 119 52 155 129l31 155c22 105 -5 172 -71 172c-101 0 -171 -115 -198 -231z" />
    <glyph glyph-name="ampersand" unicode="&#x26;" horiz-adv-x="792" 
d="M718 172h24c-15 -103 -58 -192 -153 -192c-47 0 -88 22 -130 67c-49 -41 -112 -67 -194 -67c-119 0 -215 60 -215 185c0 113 77 184 182 260c-34 79 -55 155 -55 216c0 124 88 189 195 189c102 0 148 -64 148 -139c0 -89 -71 -158 -168 -232c-6 -4 -12 -9 -17 -13
c18 -42 40 -87 66 -134c33 -59 66 -111 98 -153c33 56 60 125 80 197c15 63 14 77 -53 77v23h206v-23c-72 0 -94 -14 -112 -76c-22 -79 -50 -163 -94 -232c36 -41 70 -66 102 -66c45 0 74 38 90 113zM277 660c0 -42 14 -102 41 -173l3 2c107 79 147 135 147 202
c0 48 -24 98 -86 98c-71 0 -105 -64 -105 -129zM299 21c52 0 96 21 134 56c-37 47 -78 113 -127 199c-19 33 -36 66 -52 100c-62 -63 -89 -124 -89 -200c0 -94 52 -155 134 -155z" />
    <glyph glyph-name="paragraph" unicode="&#xb6;" horiz-adv-x="646" 
d="M596 820v-24c-93 0 -107 -18 -107 -79v-892h-47v954h-116v-954h-48v613c-134 0 -228 63 -228 191s94 191 228 191h318z" />
    <glyph glyph-name="section" unicode="&#xa7;" horiz-adv-x="431" 
d="M381 347c0 -79 -57 -133 -103 -168c45 -48 70 -95 70 -151c0 -93 -64 -141 -138 -141c-89 0 -138 56 -138 103c0 27 15 48 42 48c28 0 43 -18 44 -43c3 -27 9 -74 62 -74s83 36 83 88c0 51 -42 92 -129 162c-91 70 -124 112 -124 190c0 79 59 134 104 168
c-45 47 -70 94 -70 150c0 94 64 141 137 141c89 0 138 -56 138 -103c0 -26 -15 -47 -42 -47s-42 18 -44 42c-2 27 -9 74 -62 74s-82 -36 -82 -87s41 -93 129 -162c90 -70 123 -112 123 -190zM103 391c0 -61 35 -91 126 -167c12 -10 22 -19 32 -29c40 35 68 71 68 122
c0 60 -35 91 -126 166c-12 10 -23 20 -33 30c-39 -35 -67 -71 -67 -122z" />
    <glyph glyph-name="copyright" unicode="&#xa9;" horiz-adv-x="920" 
d="M461 824c234 0 413 -186 413 -425c0 -233 -179 -423 -413 -423c-237 0 -415 190 -415 423c0 239 178 425 415 425zM461 790c-220 0 -381 -175 -381 -391c0 -217 161 -389 381 -389c214 0 379 172 379 389c0 216 -165 391 -379 391zM206 398c0 151 108 260 250 260
c107 0 149 -56 168 -56c8 0 10 6 10 36h23l15 -185h-23c-14 109 -88 164 -182 164c-102 0 -180 -85 -180 -219s78 -218 190 -218c98 0 174 62 205 174h24c-33 -129 -112 -216 -249 -216c-148 0 -251 109 -251 260z" />
    <glyph glyph-name="registered" unicode="&#xae;" horiz-adv-x="922" 
d="M461 824c234 0 414 -185 414 -424c0 -234 -180 -424 -414 -424c-237 0 -415 190 -415 424c0 239 178 424 415 424zM461 10c214 0 380 173 380 390c0 216 -166 390 -380 390c-220 0 -381 -174 -381 -390c0 -217 161 -390 381 -390zM597 228c34 -54 61 -63 97 -63v-24h-124
l-135 220h-13h-56v-117c0 -61 7 -79 54 -79v-24h-178v24c47 0 54 18 54 79v314c0 61 -7 79 -54 79v24h178c144 0 208 -54 208 -150c0 -74 -37 -123 -120 -142zM412 395c91 0 143 31 143 116s-52 116 -133 116c-25 0 -42 -2 -56 -7v-225h46z" />
    <glyph glyph-name="trademark" unicode="&#x2122;" horiz-adv-x="1145" 
d="M145 759c-61 0 -81 -16 -92 -109l-24 3l14 116l4 31h404l3 -31l14 -116l-23 -3c-11 93 -32 109 -93 109h-66v-296c0 -61 9 -79 74 -79v-24h-223v24c65 0 75 18 75 79v296h-67zM805 471h3l139 329h168v-24c-66 0 -75 -18 -75 -79v-234c0 -61 9 -79 75 -79v-24h-224v24
c66 0 75 18 75 79v269h-3l-166 -392h-20l-156 392h-3l2 -269c0 -61 9 -79 75 -79v-24h-191v24c65 0 75 18 75 79v234c0 61 -10 79 -75 79v24h170z" />
    <glyph glyph-name="degree" unicode="&#xb0;" horiz-adv-x="521" 
d="M260 403c-119 0 -210 91 -210 211c0 119 91 210 210 210c120 0 211 -91 211 -210c0 -120 -91 -211 -211 -211zM260 467c83 0 147 63 147 147s-64 146 -147 146s-146 -62 -146 -146s63 -147 146 -147z" />
    <glyph glyph-name="bar" unicode="|" horiz-adv-x="174" 
d="M50 861h74v-1062h-74v1062z" />
    <glyph glyph-name="brokenbar" unicode="&#xa6;" horiz-adv-x="174" 
d="M50 801h74v-381h-74v381zM50 240h74v-381h-74v381z" />
    <glyph glyph-name="dagger" unicode="&#x2020;" horiz-adv-x="503" 
d="M399 659c30 0 54 -19 54 -54s-24 -54 -54 -54c-41 0 -67 40 -138 44c2 -66 20 -97 51 -136c-34 -70 -47 -154 -49 -360v-362h-24v362c-1 206 -15 290 -48 360c30 39 51 70 53 136c-73 -3 -98 -44 -141 -44c-29 0 -53 19 -53 54s24 54 53 54c43 0 68 -43 141 -46
c-3 79 -47 102 -47 161c0 36 23 57 54 57c32 0 55 -21 55 -57c0 -59 -42 -82 -45 -161c71 4 97 46 138 46z" />
    <glyph glyph-name="daggerdbl" unicode="&#x2021;" horiz-adv-x="503" 
d="M399 -3c30 0 54 -20 54 -55s-24 -54 -54 -54c-41 0 -67 42 -138 46c3 -79 45 -102 45 -160c0 -37 -23 -58 -55 -58c-31 0 -54 21 -54 58c0 58 44 81 47 160c-73 -3 -98 -46 -141 -46c-29 0 -53 19 -53 54s24 55 53 55c43 0 68 -42 141 -45c-2 56 -18 87 -40 126
c28 60 39 109 39 196c0 86 -11 136 -39 196c22 39 38 69 40 125c-73 -3 -98 -44 -141 -44c-29 0 -53 19 -53 54s24 54 53 54c43 0 68 -43 141 -46c-3 79 -47 102 -47 161c0 36 23 57 54 57c32 0 55 -21 55 -57c0 -59 -42 -82 -45 -161c71 4 97 46 138 46c30 0 54 -19 54 -54
s-24 -54 -54 -54c-41 0 -67 40 -138 44c2 -56 16 -86 37 -125c-27 -60 -38 -110 -38 -196c0 -87 11 -136 38 -196c-21 -39 -35 -70 -37 -126c71 4 97 45 138 45z" />
    <glyph glyph-name="uni0308" unicode="&#x308;" horiz-adv-x="0" 
d="M-306 663c-32 0 -59 26 -59 58c0 33 27 59 59 59s59 -26 59 -59c0 -32 -27 -58 -59 -58zM-109 663c-32 0 -58 26 -58 58c0 33 26 59 58 59c33 0 59 -26 59 -59c0 -32 -26 -58 -59 -58z" />
    <glyph glyph-name="uni0307" unicode="&#x307;" horiz-adv-x="0" 
d="M-109 663c-32 0 -59 26 -59 58c0 33 27 59 59 59s59 -26 59 -59c0 -32 -27 -58 -59 -58z" />
    <glyph glyph-name="gravecomb" unicode="&#x300;" horiz-adv-x="0" 
d="M-40 628h-38l-129 183h100z" />
    <glyph glyph-name="acutecomb" unicode="&#x301;" horiz-adv-x="0" 
d="M-204 628l67 183h100l-129 -183h-38z" />
    <glyph glyph-name="uni030B" unicode="&#x30b;" horiz-adv-x="0" 
d="M-267 628l53 183h72l-95 -183h-30zM-163 628l61 183h71l-102 -183h-30z" />
    <glyph glyph-name="uni0302" unicode="&#x302;" horiz-adv-x="0" 
d="M-46 624h-38l-105 129l-106 -129h-38l95 184h97z" />
    <glyph glyph-name="uni030C" unicode="&#x30c;" horiz-adv-x="0" 
d="M-78 808h38l-95 -184h-97l-95 184h38l105 -129z" />
    <glyph glyph-name="uni0306" unicode="&#x306;" horiz-adv-x="0" 
d="M-50 793c-6 -94 -59 -143 -137 -143c-79 0 -132 49 -138 143h24c7 -46 51 -69 114 -69s106 23 113 69h24z" />
    <glyph glyph-name="uni030A" unicode="&#x30a;" horiz-adv-x="0" 
d="M-151 627c-60 0 -103 49 -103 103s43 101 103 101c59 0 101 -47 101 -101s-42 -103 -101 -103zM-151 665c43 0 64 33 64 65c0 31 -21 64 -64 64c-44 0 -65 -33 -65 -64c0 -32 21 -65 65 -65z" />
    <glyph glyph-name="tildecomb" unicode="&#x303;" horiz-adv-x="0" 
d="M-136 662c-63 0 -96 69 -151 69c-37 0 -48 -27 -54 -69h-24c6 66 23 139 86 139c64 0 96 -69 152 -69c37 0 48 27 53 69h24c-6 -66 -23 -139 -86 -139z" />
    <glyph glyph-name="uni0304" unicode="&#x304;" horiz-adv-x="0" 
d="M-345 734h295v-41h-295v41z" />
    <glyph glyph-name="uni0312" unicode="&#x312;" horiz-adv-x="0" 
d="M-83 754c17 0 33 -16 33 -43c0 -32 -24 -48 -52 -48c-37 0 -62 27 -62 69c0 47 30 86 103 104v-24c-29 -7 -64 -26 -64 -53c0 -7 2 -15 10 -15s15 10 32 10z" />
    <glyph glyph-name="uni0326" unicode="&#x326;" horiz-adv-x="0" 
d="M-131 -165c-17 0 -33 16 -33 43c0 32 24 48 52 48c37 0 62 -27 62 -69c0 -47 -30 -86 -103 -104v24c29 7 64 26 64 53c0 7 -2 15 -10 15s-15 -10 -32 -10z" />
    <glyph glyph-name="uni0327" unicode="&#x327;" horiz-adv-x="0" 
d="M-227 -77l82 87h42l-49 -63c49 -4 102 -27 102 -84c0 -98 -122 -126 -233 -111l6 23c94 -7 153 18 153 79c0 53 -44 68 -103 69z" />
    <glyph glyph-name="uni0328" unicode="&#x328;" horiz-adv-x="0" 
d="M-98 -10c-42 -46 -101 -62 -101 -131c0 -39 23 -65 67 -65c24 0 45 6 82 23l6 -24c-34 -27 -71 -44 -118 -44c-59 0 -111 33 -111 97c0 99 109 112 149 144h26z" />
    <glyph glyph-name="acute" unicode="&#xb4;" horiz-adv-x="250" 
d="M46 628l67 183h100l-129 -183h-38z" />
    <glyph glyph-name="breve" unicode="&#x2d8;" horiz-adv-x="375" 
d="M325 793c-6 -94 -59 -143 -137 -143c-79 0 -132 49 -138 143h24c7 -46 51 -69 114 -69s106 23 113 69h24z" />
    <glyph glyph-name="caron" unicode="&#x2c7;" horiz-adv-x="367" 
d="M289 808h38l-95 -184h-97l-95 184h38l105 -129z" />
    <glyph glyph-name="cedilla" unicode="&#xb8;" horiz-adv-x="333" 
d="M106 -77l82 87h42l-49 -63c49 -4 102 -27 102 -84c0 -98 -122 -126 -233 -111l6 23c94 -7 153 18 153 79c0 53 -44 68 -103 69z" />
    <glyph glyph-name="circumflex" unicode="&#x2c6;" horiz-adv-x="367" 
d="M327 624h-38l-106 129l-105 -129h-38l95 184h97z" />
    <glyph glyph-name="dieresis" unicode="&#xa8;" horiz-adv-x="415" 
d="M109 663c-32 0 -59 26 -59 58c0 33 27 59 59 59s59 -26 59 -59c0 -32 -27 -58 -59 -58zM306 663c-32 0 -58 26 -58 58c0 33 26 59 58 59c33 0 59 -26 59 -59c0 -32 -26 -58 -59 -58z" />
    <glyph glyph-name="dotaccent" unicode="&#x2d9;" horiz-adv-x="218" 
d="M109 663c-32 0 -59 26 -59 58c0 33 27 59 59 59s59 -26 59 -59c0 -32 -27 -58 -59 -58z" />
    <glyph glyph-name="grave" unicode="`" horiz-adv-x="250" 
d="M203 628h-37l-130 183h100z" />
    <glyph glyph-name="hungarumlaut" unicode="&#x2dd;" horiz-adv-x="336" 
d="M50 628l53 183h72l-95 -183h-30zM154 628l61 183h71l-102 -183h-30z" />
    <glyph glyph-name="macron" unicode="&#xaf;" horiz-adv-x="395" 
d="M50 734h295v-41h-295v41z" />
    <glyph glyph-name="ogonek" unicode="&#x2db;" horiz-adv-x="329" 
d="M231 -10c-42 -46 -101 -62 -101 -131c0 -39 23 -65 67 -65c24 0 45 6 82 23l6 -24c-34 -27 -71 -44 -118 -44c-59 0 -111 33 -111 97c0 99 109 112 149 144h26z" />
    <glyph glyph-name="ring" unicode="&#x2da;" horiz-adv-x="304" 
d="M153 627c-60 0 -103 49 -103 103s43 101 103 101c59 0 101 -47 101 -101s-42 -103 -101 -103zM153 665c43 0 64 33 64 65c0 31 -21 64 -64 64c-44 0 -65 -33 -65 -64c0 -32 21 -65 65 -65z" />
    <glyph glyph-name="tilde" unicode="&#x2dc;" horiz-adv-x="415" 
d="M279 662c-63 0 -96 69 -151 69c-37 0 -48 -27 -54 -69h-24c6 66 23 139 86 139c64 0 96 -69 152 -69c37 0 48 27 53 69h24c-6 -66 -23 -139 -86 -139z" />
    </font>
</defs>
</svg>
